<svg width="500" height="500" xmlns="http://www.w3.org/2000/svg" id="freepik_stories-teacher" class="animated" version="1.1" viewBox="0 0 500 500">
	<style>
		@keyframes heartbeat{0%,30%,40%,60%,to{transform:scale(1)}10%,50%{transform:scale(1.1)}}svg#freepik_stories-teacher:not(.animated) .animable{opacity:0}svg#freepik_stories-teacher.animated #freepik--speech-bubble--inject-16{animation:6s Infinite linear heartbeat;animation-delay:0s}
	</style>
	<g id="freepik--Floor--inject-16" class="animable" style="transform-origin:250.96px 372.38px">
		<ellipse id="freepik--floor--inject-16" cx="250.96" cy="372.38" fill="#f5f5f5" rx="205.13" ry="107.97" style="transform-origin:250.96px 372.38px" class="animable" />
	</g>
	<g id="freepik--Shadows--inject-16" class="animable" style="transform-origin:269.875px 373.48px">
		<path id="freepik--Shadow--inject-16" style="transform-origin:327.17px 360.56px" fill="#e0e0e0" d="M302.8 423.88l-85.31-49.25 134.05-77.39 85.31 49.25-134.05 77.39z" class="animable" />
		<ellipse id="freepik--shadow--inject-16" cx="163.86" cy="414.53" fill="#e0e0e0" rx="60.96" ry="35.19" style="transform-origin:163.86px 414.53px" class="animable" />
	</g>
	<g id="freepik--Plants--inject-16" class="animable" style="transform-origin:438.758px 312.587px">
		<g id="freepik--plants--inject-16" class="animable" style="transform-origin:438.758px 312.587px">
			<path d="M420.61 321.78s-.51-12.09 3.95-22.22 11.68-17.16 19.15-18.95 14.69 4.22 7.34 10.28-21 13.18-24.8 32.11z" style="transform-origin:437.355px 301.645px" id="el0t6nh0lvnj9l" fill="#0092df" class="animable" />
			<path d="M420.61 321.78s-.51-12.09 3.95-22.22 11.68-17.16 19.15-18.95 14.69 4.22 7.34 10.28-21 13.18-24.8 32.11z" style="transform-origin:437.355px 301.645px" id="elfozdwufx6vf" class="animable" opacity=".15" />
			<path d="M422.35 322.35h-.08a.43.43 0 01-.31-.5c4.91-20.92 18.83-35.52 25.51-38.2a.41.41 0 01.53.23.41.41 0 01-.23.53c-6.54 2.62-20.18 17-25 37.63a.43.43 0 01-.42.31z" style="transform-origin:434.99px 302.986px" id="eld3yipvs9otp" fill="#fff" class="animable" />
			<path d="M440.07 338.33c-1.13 3.66-3.9 5.65-7.65 6.38-2.39.47-6.23 0-8.24-1.49-2.81-2.09-3.76-3.58-4.35-5.61a34.57 34.57 0 01-1.21-8.29 8.61 8.61 0 011.89-5.06 14.84 14.84 0 011.45-1.62c.57-.61 1.22-1.14 1.82-1.71a6.52 6.52 0 001.92-2.73c.47-1.52 0-3.15 0-4.74a7.26 7.26 0 015.56-6.92 33.27 33.27 0 014.75-.84c2.39-.22 5 .47 7.29-.26s4.34-1.91 6.72-2.37a8.47 8.47 0 017.21 1.64 4.47 4.47 0 011.65 3.87c-.26 1.59-1.62 2.75-2.91 3.71s-2.71 2-3.13 3.57c-.86 3.14 2.74 6.29 1.75 9.39a5.09 5.09 0 01-2.82 2.81c-1 .48-2.13.77-3.2 1.15a12.66 12.66 0 01-1.59.29 7.33 7.33 0 00-4.38 1.67c-1.83 1.83-1.77 4.7-2.53 7.16z" style="transform-origin:438.758px 323.868px" id="elfz8jhqx795m" fill="#0092df" class="animable" />
			<path d="M432.27 319.65a33.94 33.94 0 012.31-2.63 38.72 38.72 0 015.89-4.95 39.61 39.61 0 0110.69-5.28 17.79 17.79 0 012.29-.56.36.36 0 01.41.3.35.35 0 01-.29.41c-3.32.55-13.05 4.07-19.93 12.19a20 20 0 0115.85 2.31.36.36 0 01.08.5.39.39 0 01-.31.15.31.31 0 01-.2-.07 17.48 17.48 0 00-9.3-2.83 21.28 21.28 0 00-6.26.71c-1.19.31-1.61 1.08-2.09 2.15a73.48 73.48 0 00-3.18 8.37c-.44 1.43-.84 2.87-1.19 4.32-.17.68-.34 1.35-.5 2a10.94 10.94 0 00-.49 2.24c-.29 1.44-.56 2.89-.8 4.34 0 .09 0 .19-.05.28a.5.5 0 01-.18.39.37.37 0 01-.48-.19 1.13 1.13 0 010-.58 78.2 78.2 0 013.22-13.07c1.09-3.63 2.13-7.43 4.51-10.5z" style="transform-origin:439.184px 325.122px" id="elonbj4h3wxd" fill="#fff" class="animable" />
		</g>
	</g>
	<g id="freepik--Window--inject-16" class="animable" style="transform-origin:392.785px 142.65px">
		<g id="freepik--window--inject-16" class="animable" style="transform-origin:392.785px 142.65px">
			<path style="transform-origin:392.765px 186.485px" id="el88rlyynm5ff" fill="#fafafa" d="M445.29 215.34l-2.74 1.63-102.31-59.34 2.74-1.63 102.31 59.34z" class="animable" />
			<path style="transform-origin:392.765px 142.64px" id="el99i7nshgxbi" fill="#fff" d="M342.98 156l99.57 57.75v-84.48l-99.57-57.74V156z" class="animable" />
			<path style="transform-origin:390.105px 139.825px" id="el7kfxaqh05jm" fill="#f0f0f0" d="M392.69 97.47v87.7l-5.17-2.98V94.48l5.17 2.99z" class="animable" />
			<path style="transform-origin:393.98px 140.57px" id="elwpadzy6lln" fill="#e0e0e0" d="M395.27 95.97l-2.58 1.5v87.7l2.58-1.5v-87.7z" class="animable" />
			<path d="M335.08 160.61l112.63 65.3v-99.62L335.08 61zm5.16-90.69l102.31 59.35V217l-102.31-59.37z" style="transform-origin:391.395px 143.455px" id="els5xkpkye1yi" fill="#f0f0f0" class="animable" />
			<path style="transform-origin:341.61px 113.775px" id="elcy2okl5k5hq" fill="#e0e0e0" d="M340.24 157.63l2.74-1.63V71.53l-2.74-1.61v87.71z" class="animable" />
			<path style="transform-origin:392.785px 92.84px" id="el5z32cem19l" fill="#fafafa" d="M335.08 60.98l2.78-1.59 112.63 65.31-2.78 1.59-112.63-65.31z" class="animable" />
			<path style="transform-origin:449.1px 175.305px" id="elefkxwf0gqmc" fill="#e0e0e0" d="M450.49 124.7l-2.78 1.59v99.62l2.78-1.59V124.7z" class="animable" />
			<path style="transform-origin:390.115px 100.445px" id="elpd9h4xowrc" fill="#e0e0e0" d="M392.69 100.44l-5.15-2.97v2.98l5.15 2.97v-2.98z" class="animable" />
			<path style="transform-origin:393.98px 101.93px" id="eln7z1gjpmwve" d="M392.69 103.42l2.58-1.49-2.58-1.49v2.98z" class="animable" opacity=".15" />
		</g>
	</g>
	<g id="freepik--Board--inject-16" class="animable" style="transform-origin:147.68px 177.855px">
		<g id="freepik--board--inject-16" class="animable" style="transform-origin:147.68px 177.855px">
			<path style="transform-origin:150.48px 256.41px" id="elku3pr1t86o" fill="#37474f" d="M247.2 201.44L53.76 313.12v-1.73L247.2 199.7v1.74z" class="animable" />
			<path style="transform-origin:147.68px 253.93px" id="el2jbhb6ssmhr" fill="#455a64" d="M241.61 196.47l5.59 3.23L53.76 311.39l-5.6-3.23 193.45-111.69z" class="animable" />
			<path style="transform-origin:50.96px 310.64px" id="elmnyp5bv2c9i" fill="#263238" d="M48.16 308.16l5.6 3.23v1.73l-5.6-3.23v-1.73z" class="animable" />
			<path style="transform-origin:144.885px 175.38px" id="elxjf4zs8wfv" fill="#0092df" d="M237.31 198.96L52.46 305.68V151.8L237.31 45.08v153.88z" class="animable" />
			<path style="transform-origin:144.885px 175.38px" id="elsbs2cglmz" d="M237.31 198.96L52.46 305.68V151.8L237.31 45.08v153.88z" class="animable" opacity=".2" />
			<path style="transform-origin:144.89px 175.375px" id="elum4ler8cped" fill="#37474f" d="M57.4 296.25V155.53L232.38 54.5v140.72L57.4 296.25z" class="animable" />
			<path style="transform-origin:144.89px 175.375px" id="elclnd630stpd" fill="#263238" d="M232.38 54.5L61.17 153.35l-3.77 2.18v140.72l3.77-2.18V158.38l171.21-98.84V54.5z" class="animable" />
			<path style="transform-origin:144.885px 250.45px" id="el6h5my46hrqq" d="M57.4 296.25l-4.94 9.43 184.85-106.72-4.93-3.74L57.4 296.25z" class="animable" opacity=".3" />
			<path style="transform-origin:144.885px 100.305px" id="el5t01dkgagnw" d="M232.38 54.5l4.93-9.42L52.46 151.8l4.94 3.73L232.38 54.5z" class="animable" opacity=".15" />
			<path style="transform-origin:50.31px 227.5px" id="ell0bpgf7vu0d" fill="#0092df" d="M48.16 149.32l4.3 2.48v153.88l-4.3-2.49V149.32z" class="animable" />
			<path style="transform-origin:50.31px 227.5px" id="elp5t4npe9b4" d="M48.16 149.32l4.3 2.48v153.88l-4.3-2.49V149.32z" class="animable" opacity=".35" />
			<path style="transform-origin:142.735px 97.195px" id="elzh2ybh5acgc" fill="#0092df" d="M237.31 45.08l-4.3-2.49L48.16 149.32l4.3 2.48L237.31 45.08z" class="animable" />
			<path style="transform-origin:142.735px 97.195px" id="elnf51f88h04" d="M237.31 45.08l-4.3-2.49L48.16 149.32l4.3 2.48L237.31 45.08z" class="animable" opacity=".1" />
			<path d="M207.4 164.05a.65.65 0 01.1.25l-.13-.23c-.16.07-.32.12-.49.21.19-.27.34-.34.46-.27a13 13 0 00-1.07-1.65 8.13 8.13 0 00-4.34-3.44c-2.29-.6-5.12.75-7.83 2.46 3.56-8.35 7.84-16.22 7.83-24.82 0-9-6.57-9-11.91-1.72q-5.76 7.89-11.46 16c4.38-9.23 7.6-18.72 6.21-26.68-1-5.55-5.29-5.79-9.56-1.83-2.58 2.4-5.34 6.21-8.27 10.11-2.37 3.15-4.81 6.36-7.07 9.73a40.82 40.82 0 003.76-11c.86-5.62-.4-12.76-5.11-11.14-3.89 1.35-7.09 4.85-10.09 9 1.22-4.7 1.27-9.47-1.49-10.82-1.77-.85-3.76.07-5.66 1.87l.12-.18a14.87 14.87 0 00-2.91 3.4c-.21.3-.4.61-.59.92-3.5 4.82-6.22 10.73-9.15 16.15-1.83 3.37-3.56 6.71-5.37 10 .51-7-1.77-12.44-8.22-7.35-2.75 2.17-5.1 5.6-7.45 8.29-.3.34-.61.68-.95 1a4 4 0 00-3.52-2.63c-3.53-.06-7.43 1.63-11.34 5.77-5.51 5.84-9.09 20.57-1.54 18.6 1.08-.28 2.16-.79 3.23-1.15a10.65 10.65 0 00.7 3.25c1.37 3.42 4.09 3.18 7.12 1.27-2.15 5.37-4.41 10.58-6.49 15.92-1.45 3.78-2.82 7.87-4.44 11.61-2.64 6.06-5.58 11.92-7.1 18.37a12.72 12.72 0 00-.4 3.24c-.41 1.06-.8 2.12-1.18 3.19-2.57 7.25-.3 15.59 4.94 13.92 7.5-2.39 15.54-16.73 21.05-25.76 2.77-4.55 5.69-9.08 8.64-13.57l-.06.11c-1.19 2.53-2.53 5.13-3.64 7.69-.39 1-.74 2-1.11 3 0 .06-.05.09-.08.16-5.32 9.37-12.27 27.81-8 34.7 1.42 2.3 3.88 3.52 6.82 1.28 6.87-5.25 12.71-17 17.62-25.72 3.28-5.8 6.72-11.75 10.05-17.75a64.93 64.93 0 00-1.8 8.39c-1.08 8.07 2.22 12.29 7.85 9.33 4.15-2.17 8.49-9.11 11.63-14 4.21-6.5 8.64-12.65 12.88-19.09a26.83 26.83 0 00-.15 5.91c.65 7 4.83 9.26 10.33 3.69 5.15-5.21 9.7-13.37 15.09-16.88a15.51 15.51 0 002 2.42c2.55 2.5 6 2.69 9.85.74 9.57-4.8 11.48-28.32 1.69-24.27z" style="transform-origin:147.308px 185.178px" id="eloby7e7o236" fill="#455a64" class="animable" />
			<path d="M238.73 198l-43.34-8.57c-.24 0-.53.35-.53.71v33.59c0 .26.16.38.35.27l43.35-25c.35-.23.44-.93.17-1zm-37.22 13.6v-13.92l18.08 3.48z" style="transform-origin:216.874px 206.735px" id="el39rqrrhxmit" fill="#0092df" class="animable" />
			<path d="M102.28 279.07a3.58 3.58 0 00-1.62-2.81 1.14 1.14 0 00-1.15-.11l-18.35 10.6 2.3 4 18.35-10.6a1.14 1.14 0 00.47-1.08z" style="transform-origin:91.725px 283.397px" id="eltaybxshhu9" fill="#fafafa" class="animable" />
			<path d="M82.31 286.86a3.58 3.58 0 011.62 2.81c0 1-.73 1.45-1.62.94a3.6 3.6 0 01-1.63-2.82c0-1.03.73-1.45 1.63-.93z" style="transform-origin:82.305px 288.729px" id="el1tj4y5ez7mo" fill="#e6e6e6" class="animable" />
			<path d="M179.72 179.09c-3.8 0-5.35-1.66-6-3.05-1.5-3.27.45-8.38 5.35-14 7.63-8.82 20.11-16 27.82-16 3.79 0 5.35 1.66 6 3 1.5 3.27-.46 8.39-5.35 14-7.63 8.87-20.11 16.05-27.82 16.05zm27.19-31.4c-7.29 0-19.2 6.92-26.56 15.41-4.31 5-6.27 9.68-5.09 12.25.78 1.7 2.85 2.06 4.46 2.06 7.28 0 19.2-6.91 26.55-15.41 4.32-5 6.27-9.67 5.1-12.24-.78-1.71-2.86-2.07-4.46-2.07zm-27.19 14.86z" style="transform-origin:193.304px 162.565px" id="elormaznnpkf" fill="#fafafa" class="animable" />
			<path d="M175.38 169.77a.83.83 0 01-.8-1.1l17.94-53.47a.84.84 0 01.72-.57.85.85 0 01.81.43L212 147.82a.84.84 0 01-1.47.8l-17-31.08-17.36 51.66a.83.83 0 01-.79.57z" style="transform-origin:193.302px 142.199px" id="el9zowro9i9st" fill="#fafafa" class="animable" />
			<path d="M193.31 163.39a.83.83 0 01-.83-.84v-47.09a.83.83 0 01.84-.83.83.83 0 01.83.83v47.09a.84.84 0 01-.84.84z" style="transform-origin:193.315px 139.01px" id="el7q195v7ky9n" fill="#fafafa" class="animable" />
			<path d="M185.2 121a.85.85 0 01-.73-.42.84.84 0 01.31-1.14l2.9-1.67a.83.83 0 011.14.3.85.85 0 01-.31 1.15l-2.9 1.67a.77.77 0 01-.41.11z" style="transform-origin:186.645px 119.328px" id="elmwujvazhzi" fill="#fafafa" class="animable" />
			<path d="M148 142.44a.82.82 0 01-.72-.42.83.83 0 01.3-1.14l6.2-3.58a.84.84 0 01.83 1.45l-6.19 3.57a.81.81 0 01-.42.12zm12.39-7.15a.85.85 0 01-.73-.42.84.84 0 01.31-1.14l6.19-3.58a.84.84 0 01.84 1.45l-6.2 3.58a.87.87 0 01-.37.11zm12.38-7.15a.82.82 0 01-.72-.42.83.83 0 01.3-1.14l6.19-3.58a.84.84 0 011.15.31.84.84 0 01-.31 1.14l-6.15 3.55a.91.91 0 01-.42.14z" style="transform-origin:163.482px 132.664px" id="elqmieijul379" fill="#fafafa" class="animable" />
			<path d="M139 147.68a.86.86 0 01-.73-.41.85.85 0 01.31-1.15l2.9-1.67a.84.84 0 01.84 1.45l-2.9 1.67a.8.8 0 01-.42.11z" style="transform-origin:140.424px 146.023px" id="el22lc8x0djyb" fill="#fafafa" class="animable" />
			<path d="M185.2 168.08a.85.85 0 01-.73-.42.84.84 0 01.31-1.14l2.9-1.67a.82.82 0 011.14.3.85.85 0 01-.31 1.15l-2.9 1.67a.77.77 0 01-.41.11z" style="transform-origin:186.645px 166.406px" id="elphvnamh1v68" fill="#fafafa" class="animable" />
			<path d="M148 189.53a.82.82 0 01-.72-.42.83.83 0 01.3-1.14l6.2-3.58a.84.84 0 01.83 1.45l-6.19 3.57a.81.81 0 01-.42.12zm12.39-7.15a.85.85 0 01-.73-.42.84.84 0 01.31-1.14l6.19-3.58a.84.84 0 01.84 1.45l-6.2 3.58a.87.87 0 01-.37.11zm12.38-7.15a.82.82 0 01-.72-.42.83.83 0 01.3-1.14l6.19-3.58a.84.84 0 011.15.31.84.84 0 01-.31 1.14l-6.19 3.58a.91.91 0 01-.38.11z" style="transform-origin:163.482px 179.754px" id="elebd23dryc5" fill="#fafafa" class="animable" />
			<path d="M139 194.77a.85.85 0 01-.73-.42.84.84 0 01.31-1.14l2.9-1.67a.84.84 0 01.84 1.45l-2.9 1.67a.8.8 0 01-.42.11z" style="transform-origin:140.425px 193.113px" id="el19dw3zscf2r" fill="#fafafa" class="animable" />
			<path d="M129.48 151.72c-1.18 1.06-2.72-2.11-2.54-3.11.14-.75-1.21-1.4-1.42-.5a62.65 62.65 0 01-2.09 6.1c-.21.61-.38 1.22-.63 1.82a2.57 2.57 0 01-.43.86q-.23.12-.06.24a1.06 1.06 0 01-.35-.58c-.57-1.36-.06-3.26.21-4.67.21-1.09.62-2.57-.15-3.54-.26-.33-.82-.59-1.17-.23-.6.61-4.25 6.9-5.06 6.1a.66.66 0 00-1.06 0c-.51.85-.89 1.78-1.39 2.65-.25.43-.66.88-.86 1.32l-.07.06a2.7 2.7 0 01-.12-.49c-.1-.53-1-1.16-1.33-.51-.57 1-.76 2.2-1.38 3.15a1.93 1.93 0 01-.27.31v-.1a4.47 4.47 0 00-.19-1.31c-.14-.51-1.29-1.1-1.59-.42-.8 1.77-1.26 4.12-2.76 5.46a1.5 1.5 0 01-.67.35c.6-1.08 1.59-2.69 1.06-4a1.55 1.55 0 00-2.38-.68 3.67 3.67 0 00-1 5 7.69 7.69 0 01-2 2.31c-1.2.85-3.23 1.21-4.49.25a1.69 1.69 0 01-.49-.74 15.77 15.77 0 001-3.56c.08-.47-.57-1.18-1.06-.91-.93.52-1.26 2-1.32 3.07a24 24 0 01-1.33 2.69 9.46 9.46 0 01-1.7 2.36c-.87.76-1.08-.24-1.34-1.05-.19-.58-1.34-1.28-1.81-.56a32.05 32.05 0 00-1.87 3.34 13.72 13.72 0 01-1.55 3c-.16-.25-.28-.63-.38-.77a1.87 1.87 0 00-.77-.65 2 2 0 00-2.11.33c-.12.1-.23.21-.34.32a12.57 12.57 0 00.51-1.33c.59-1.85.65-4.28-.75-5.82-2.49-2.73-6.47.8-5.94 3.8.11.61 1.24 1.23 1.23.29a3.83 3.83 0 012-3c1.59-.85 1.55 2 1.4 3-.44 2.82-2.39 5.17-3.13 7.92-.32 1.17 1.53 1.36 2.15.82a39.51 39.51 0 004-3.92l.21-.23.1.04a3 3 0 001.52 1.2c1.61.49 2.43-1.15 3-2.35s1.09-2.34 1.69-3.49c.87 1.06 2.09 1.64 3.49.52a11.25 11.25 0 002.62-3.85 4.25 4.25 0 001.94 1.21c3.17.95 5.35-.83 7-3.19a2.25 2.25 0 00.44.14c2.5.6 3.75-2 4.61-4.27a1.32 1.32 0 001.59.42c1.26-.35 1.58-1.76 1.93-3 .47.51 1.09.67 1.85 0 1.06-1 1.52-2.5 2.14-3.8 1.84.61 3.64-2.28 5-4.43-.07.25-.13.47-.15.6a21.9 21.9 0 00-.36 2.56c-.11 1.56.17 4.26 2.25 4.39 1.52.1 2.06-1.87 2.4-3 .48-1.56 1.08-3.06 1.52-4.6 1 1.9 2.8 3.5 4.16 1.65.36-.52-.64-1.43-1.16-.99z" style="transform-origin:102.354px 164.035px" id="elfgj21s0kkfh" fill="#fafafa" class="animable" />
			<path d="M109.78 209.7c-1.06.83-1.85 2.88-3.33 3a1.43 1.43 0 01-.84-.18 8.52 8.52 0 001.16-2.5c.41-1.56-.19-3.57-2.17-3.43-2.41.18-1.66 4-1.06 5.41 0 .1.1.2.15.3l-.21.22c-.33.33-.93.92-1.46.89-.69 0-.82-1-.94-1.55s-.81-.92-1.19-.54c-.92.94-1.23 2.47-1.87 3.6h-.13a3.05 3.05 0 00-.27-.57 1.89 1.89 0 00-1.07-.91.59.59 0 00-.76.22c-.49 1-.84 2-1.25 3a14.07 14.07 0 01-.72 1.52 6.74 6.74 0 01-.71.84 4.09 4.09 0 010-.47 10.28 10.28 0 000-1.84c-.07-.5-1.07-1.2-1.45-.61-2 3.13-4 6.5-6.71 9-.32.29-1.21 1.19-1.71 1.11s-.28-1.9-.13-2.42a18.38 18.38 0 012.18-4.31c.6-1 1.31-2.43 2.42-3a3.65 3.65 0 01-1.23 2.35c-.37.34.16 1.28.62.92a5.26 5.26 0 002-4.08 1 1 0 00-.78-.83c-2.79-.39-4.39 3.36-5.51 5.35s-2.62 5.21-.57 7c2.73 2.4 6.59-3.7 7.81-5.4.55-.77 1.1-1.56 1.62-2.35.1.78.42 1.41 1.29 1.5s1.77-1.08 2.2-1.81a27.9 27.9 0 001.63-3.76 2.2 2.2 0 00.32.67 1.32 1.32 0 001.44.29c1.28-.46 1.41-1.85 1.87-3a2.21 2.21 0 003.06 1.09 5.07 5.07 0 001.33-1 3.2 3.2 0 002.52.72 4.53 4.53 0 003.31-3.78c-.02-.19-.45-.99-.86-.66zm-5.24.91c-.13-.6-.38-2.08.28-2.5s.68.23.64.65a5.18 5.18 0 01-.82 2.25c-.04-.13-.07-.27-.1-.4z" style="transform-origin:95.9314px 217.163px" id="elifnm5jwvq3" fill="#fafafa" class="animable" />
			<path d="M132.67 201.48a3.4 3.4 0 01-1.14-2.12c-.09-.74.06-1.49-.06-2.23a1.64 1.64 0 00-2.36-1.34 7 7 0 00-2.17 2.55c-.27.43-.52.87-.77 1.3-.35-.47-1.14-.73-1.54-.2a27.65 27.65 0 00-1.56 2.32v-.3a2.65 2.65 0 00-2.85-2.15 5.15 5.15 0 00-3.78 3 3.92 3.92 0 00-.42 2.18 1 1 0 00.72.94.64.64 0 00.63-.08c.09-.08.33-.44.19-.57s.39-1.38.49-1.57a6 6 0 011.07-1.39 3.69 3.69 0 011.17-.78 3.25 3.25 0 01.73-.16c.42.23.37 1.36.38 1.76V205c0 .79 1.37 1.35 1.8.6.75-1.31 1.47-2.64 2.28-3.91v.06c.24.44 1.22.89 1.54.28.8-1.51 1.57-3.39 2.86-4.57v1.18a5.35 5.35 0 001.92 3.85c.87.7 1.75-.33.87-1.01z" style="transform-origin:124.518px 200.787px" id="elmpj62m0j20n" fill="#fafafa" class="animable" />
		</g>
	</g>
	<g id="freepik--Desk--inject-16" class="animable" style="transform-origin:327.75px 310.79px">
		<g id="freepik--desk--inject-16" class="animable" style="transform-origin:327.75px 310.79px">
			<g id="freepik--desk--inject-16" class="animable" style="transform-origin:327.75px 317.42px">
				<g id="freepik--desk--inject-16" class="animable" style="transform-origin:327.75px 317.42px">
					<path style="transform-origin:327.75px 273.78px" id="elux3v2034jql" fill="#0092df" d="M302.8 331.91l-75.59-43.64 125.5-72.62 75.58 43.64-125.49 72.62z" class="animable" />
					<g style="transform-origin:327.75px 273.78px" id="elydr46559fof" class="animable" opacity=".2">
						<path id="elg5hrgi66sn7" class="animable" style="transform-origin:327.75px 273.78px" d="M302.8 331.91l-75.59-43.64 125.5-72.62 75.58 43.64-125.49 72.62z" />
					</g>
					<path style="transform-origin:265.005px 353.73px" id="elkj7c4q6ewkg" fill="#0092df" d="M227.21 288.27v87.28l3.98 2.3v-5.53l67.63 39.04v5.53l3.98 2.3v-87.28l-75.59-43.64z" class="animable" />
					<g style="transform-origin:265.005px 353.73px" id="elvvrmxcqv0p" class="animable" opacity=".45">
						<path id="el008p1hb3482me" class="animable" style="transform-origin:265.005px 353.73px" d="M227.21 288.27v87.28l3.98 2.3v-5.53l67.63 39.04v5.53l3.98 2.3v-87.28l-75.59-43.64z" />
					</g>
					<path style="transform-origin:233.18px 375.085px" id="ells7o77zuolo" fill="#0092df" d="M231.19 377.85l3.98-2.3v-.93l-3.98-2.3v5.53z" class="animable" />
					<g style="transform-origin:233.18px 375.085px" id="elazxhwq6snqc" class="animable" opacity=".6">
						<path id="elx7gmvvhridr" class="animable" style="transform-origin:233.18px 375.085px" d="M231.19 377.85l3.98-2.3v-.93l-3.98-2.3v5.53z" />
					</g>
					<path style="transform-origin:365.545px 339.24px" id="elcb88gzn3hvp" fill="#0092df" d="M302.8 419.19l3.98-2.3v-5.53l117.54-68.03v5.54l3.97-2.3v-87.28L302.8 331.91v87.28z" class="animable" />
					<g style="transform-origin:365.545px 339.24px" id="elkd9nh0qz7f" class="animable" opacity=".3">
						<path id="eljcgn3lvzlbj" class="animable" style="transform-origin:365.545px 339.24px" d="M302.8 419.19l3.98-2.3v-5.53l117.54-68.03v5.54l3.97-2.3v-87.28L302.8 331.91v87.28z" />
					</g>
					<path style="transform-origin:422.33px 346.1px" id="el70tds3ejg2t" fill="#0092df" d="M424.32 348.87l-3.98-2.3v-.94l3.98-2.3v5.54z" class="animable" />
					<g style="transform-origin:422.33px 346.1px" id="elirh7ta7yk9c" class="animable" opacity=".6">
						<path id="el141j2kln7vsi" class="animable" style="transform-origin:422.33px 346.1px" d="M424.32 348.87l-3.98-2.3v-.94l3.98-2.3v5.54z" />
					</g>
				</g>
			</g>
			<g id="freepik--Things--inject-16" class="animable" style="transform-origin:334.969px 259.204px">
				<g id="freepik--Sheets--inject-16" class="animable" style="transform-origin:299.26px 272.815px">
					<g style="transform-origin:299.268px 272.1px" id="eldfta6crh2cs" class="animable" opacity=".15">
						<path id="eleh98dtzwamt" d="M275.19 270.49L302.05 286a1.67 1.67 0 001.51 0l19.77-11.41a.46.46 0 000-.88l-26.86-15.51a1.67 1.67 0 00-1.51 0l-19.77 11.42a.46.46 0 000 .87z" class="animable" style="transform-origin:299.268px 272.1px" />
					</g>
					<g style="transform-origin:299.281px 274.881px" id="el2v2dw1qzojt" class="animable" opacity=".15">
						<path id="el1z7jl4341q8" d="M275.19 273.26l26.86 15.51a1.67 1.67 0 001.51 0l19.77-11.41a.46.46 0 000-.88L296.47 261a1.61 1.61 0 00-1.51 0l-19.77 11.41a.46.46 0 000 .85z" class="animable" style="transform-origin:299.281px 274.881px" />
					</g>
					<path d="M275.19 271.88l26.86 15.5a1.61 1.61 0 001.51 0L323.33 276a.46.46 0 000-.87l-26.86-15.51a1.67 1.67 0 00-1.51 0L275.19 271a.46.46 0 000 .88z" style="transform-origin:299.252px 273.504px" id="elja6l7zxbj2" fill="#ebebeb" class="animable" />
					<path d="M295 259.59l-18.77 10.84 25.86 14.93a1.67 1.67 0 001.51 0l18.78-10.84-25.87-14.93a1.67 1.67 0 00-1.51 0z" style="transform-origin:299.305px 272.475px" id="elfxo2jg3hw4g" fill="#e0e0e0" class="animable" />
					<path d="M275.19 269.15l26.86 15.5a1.67 1.67 0 001.51 0l19.77-11.41a.46.46 0 000-.87l-26.86-15.51a1.67 1.67 0 00-1.51 0l-19.77 11.41c-.42.24-.42.63 0 .88z" style="transform-origin:299.258px 270.755px" id="elazhz1z7t1l8" fill="#fafafa" class="animable" />
				</g>
				<g id="freepik--Pencil--inject-16" class="animable" style="transform-origin:335.048px 287.058px">
					<path d="M323.44 293c-.86.44 1.3 2 2.37 1.37l18.75-11 2.25-2.37a.15.15 0 00-.15-.25l-4.34 1.33z" style="transform-origin:335.048px 287.631px" id="freepik--shadow--inject-16" class="animable" opacity=".15" />
					<path d="M342.49 280.38l4-.78a.12.12 0 01.11.2l-2.71 3.07z" style="transform-origin:344.561px 281.234px" id="el6ks3x84b2gg" fill="#ffa8a7" class="animable" />
					<path d="M346.6 279.8a.12.12 0 00-.11-.2l-.78.15a.7.7 0 01.32.64v.07z" style="transform-origin:346.171px 280.029px" id="elp04fwdfnaml" fill="#263238" class="animable" />
					<path d="M329 291.41l.32-.19.4-.22 14.17-8.13a1.81 1.81 0 00-.11-1.33 1.86 1.86 0 00-1.29-1.16l-14.16 8.12-.76.44c.51-.26 1.93 2.21 1.43 2.47z" style="transform-origin:335.769px 285.895px" id="elzzi65gqgne" fill="#455a64" class="animable" />
					<path d="M330.24 290.7l.73-.42c.22-.11.09-.64-.16-1.19-.33-.73-1-1.43-1.27-1.28l-.54.31-.19.11c.29-.15.94.55 1.27 1.28.25.53.37 1 .19 1.18z" style="transform-origin:329.946px 289.245px" id="el6lrs171pg2u" fill="#ebebeb" class="animable" />
					<path d="M330.42 290.59c.51-.26-.93-2.73-1.43-2.46l-.73.41c.5-.26 1.93 2.21 1.43 2.47z" style="transform-origin:329.394px 289.56px" id="el13reorr0jcen" fill="#0092df" class="animable" />
					<path d="M329 291.41l.72-.41c.49-.26-.87-2.65-1.39-2.5l-.73.42c.48-.24 1.9 2.23 1.4 2.49z" style="transform-origin:328.712px 289.952px" id="el7fvjzhudvgn" fill="#ebebeb" class="animable" />
					<path d="M346.62 279.66l-.14-.06-2.89 1.58-15 8.6h-.07c.43.67.75 1.5.47 1.65l.32-.19.4-.22 14.17-8.13 2.71-3.07a.12.12 0 00.03-.16z" style="transform-origin:337.579px 285.515px" id="elc7sgqfh8qs" class="animable" opacity=".15" />
					<path d="M325.94 293.16l3.06-1.75c.21-.11.09-.64-.15-1.18-.34-.73-1-1.44-1.28-1.29l-3.07 1.76c-.61.35-.05 1.67.63 2.27a.73.73 0 00.81.19z" style="transform-origin:326.673px 291.065px" id="eldnudjlkiki6" fill="#f28f8f" class="animable" />
					<path d="M326.12 292.21a2.24 2.24 0 00-1.25-1.51.5.5 0 00-.46.06c-.46.43.08 1.65.72 2.21a.76.76 0 00.79.2c.23-.17.32-.49.2-.96z" style="transform-origin:325.206px 291.939px" id="el4m961cavf6i" class="animable" opacity=".1" />
				</g>
				<g id="freepik--pencil--inject-16" class="animable" style="transform-origin:346.676px 287.093px">
					<path d="M334.9 293.1c-.87.45 1.32 2 2.41 1.4l19-11.14 2.29-2.41a.15.15 0 00-.16-.25l-4.4 1.34z" style="transform-origin:346.676px 287.661px" id="freepik--shadow--inject-16" class="animable" opacity=".15" />
					<path d="M354.23 280.35l4.06-.8a.13.13 0 01.11.21l-2.74 3.11z" style="transform-origin:356.329px 281.21px" id="el70dedxvsata" fill="#ffa8a7" class="animable" />
					<path d="M358.4 279.76a.13.13 0 00-.11-.21l-.79.16a.69.69 0 01.32.64v.08z" style="transform-origin:357.964px 279.99px" id="elvn58pivuhua" fill="#263238" class="animable" />
					<path d="M340.54 291.54l.33-.19.4-.23 14.39-8.25a1.84 1.84 0 00-.12-1.34 1.89 1.89 0 00-1.31-1.18l-14.37 8.24-.76.44c.51-.26 1.95 2.25 1.44 2.51z" style="transform-origin:347.417px 285.945px" id="elbbr4q41s309" fill="#455a64" class="animable" />
					<path d="M341.81 290.82l.74-.43c.21-.11.09-.65-.17-1.2-.33-.74-1-1.46-1.29-1.3l-.55.31-.19.12c.29-.16 1 .56 1.3 1.29.24.54.36 1.05.18 1.2z" style="transform-origin:341.504px 289.344px" id="els2qawm5r2xj" fill="#ebebeb" class="animable" />
					<path d="M342 290.71c.51-.27-.95-2.77-1.46-2.5l-.74.42c.51-.27 2 2.24 1.46 2.51z" style="transform-origin:340.953px 289.665px" id="elw8whtao6nvj" fill="#0092df" class="animable" />
					<path d="M340.54 291.54l.73-.42c.5-.26-.88-2.69-1.41-2.53l-.73.43c.48-.25 1.92 2.26 1.41 2.52z" style="transform-origin:340.254px 290.061px" id="eldqcpv286n9f" fill="#ebebeb" class="animable" />
					<path d="M358.42 279.62l-.13-.07-2.94 1.61-15.21 8.73c0-.05-.05-.05-.07 0 .43.67.76 1.52.47 1.67l.33-.19.4-.23 14.39-8.25 2.74-3.11a.12.12 0 00.02-.16z" style="transform-origin:349.256px 285.555px" id="elmhc5niffj0n" class="animable" opacity=".15" />
					<path d="M337.43 293.32l3.11-1.78c.22-.11.1-.64-.15-1.2-.34-.74-1-1.46-1.29-1.31l-3.1 1.79c-.62.35-.05 1.7.64 2.3a.72.72 0 00.79.2z" style="transform-origin:338.195px 291.187px" id="elm18t6ogeqve" fill="#f28f8f" class="animable" />
					<path d="M337.62 292.35a2.25 2.25 0 00-1.27-1.53.5.5 0 00-.46.06c-.47.44.07 1.67.73 2.24a.74.74 0 00.8.2c.23-.13.32-.49.2-.97z" style="transform-origin:336.693px 292.077px" id="elx6xaucdkq7c" class="animable" opacity=".1" />
				</g>
				<g id="freepik--Apple--inject-16" class="animable" style="transform-origin:302.792px 304.975px">
					<path d="M296.41 314.18c2.54 2 7.43 2.42 10.9 1S311.53 311 309 309s-7.44-2.42-10.9-1-4.24 4.21-1.69 6.18z" style="transform-origin:302.702px 311.59px" id="el7gb4g4vntja" class="animable" opacity=".15" />
					<path d="M299.84 298.14a5.82 5.82 0 00-5.53 3.5c-1.79 3.68 0 8.24 2.74 10.17 3.44 2.42 8.83 2.57 12-.33 3.51-3.2 3.77-9.26 1.37-11.92s-6.08-1.9-7.05-1.49c-1.43.61-2.37.01-3.53.07z" style="transform-origin:302.792px 305.644px" id="elv3qp5uvr1x" fill="#0092df" class="animable" />
					<path d="M299.84 298.14a5.82 5.82 0 00-5.53 3.5c-1.79 3.68 0 8.24 2.74 10.17 3.44 2.42 8.83 2.57 12-.33 3.51-3.2 3.77-9.26 1.37-11.92s-6.08-1.9-7.05-1.49c-1.43.61-2.37.01-3.53.07z" style="transform-origin:302.792px 305.644px" id="ely92imtgngg" fill="#fff" class="animable" opacity=".6" />
					<path d="M307.07 310.74a11.6 11.6 0 01-12-1 7.69 7.69 0 001.94 2c3.44 2.42 8.83 2.57 12-.33a9.85 9.85 0 002.63-9.48c.2.91-.45 6.56-4.57 8.81z" style="transform-origin:303.511px 307.75px" id="eljf81sxi3ep" class="animable" opacity=".1" />
					<path d="M298.33 299.43a3.68 3.68 0 00-3 2 8.9 8.9 0 00-.72 5.42c.55 3.27 3.71 5 4 4.71s-2-2.42-.73-5.67 1.98-6.33.45-6.46z" style="transform-origin:296.832px 305.511px" id="elsssbn4dbffc" fill="#fff" class="animable" opacity=".2" />
					<path d="M297.61 300a4.85 4.85 0 00-2.33 2.91c-.29 1.08-.15 1.81 0 1.93s2.19-1.65 2.82-2.5c.9-1.24 1.05-2.9-.49-2.34z" style="transform-origin:296.943px 302.367px" id="elnaw1t2ea1aa" fill="#fff" class="animable" opacity=".2" />
					<path d="M301.34 300.94c-.51-.4-1-.61-1.24 0s1.1 1.56 2.6 1.13 2-1.42 2-1.91a2.75 2.75 0 01-1.68 1.19 2.49 2.49 0 01-1.68-.41z" style="transform-origin:302.386px 301.169px" id="elrl8o6m6pv4l" fill="#0092df" class="animable" />
					<path d="M301.34 300.94c-.51-.4-1-.61-1.24 0s1.1 1.56 2.6 1.13 2-1.42 2-1.91a2.75 2.75 0 01-1.68 1.19 2.49 2.49 0 01-1.68-.41z" style="transform-origin:302.386px 301.169px" id="elso0pgrbidk" class="animable" opacity=".1" />
					<path d="M302.7 301.68a14.07 14.07 0 00-.68-4.09 7.62 7.62 0 00-2.2-3.4 4 4 0 00-1.64-.25c-.76 0-1.68.53-1.43.82a15.74 15.74 0 012.7 1.77 8.86 8.86 0 012.63 5.15.58.58 0 00.62 0z" style="transform-origin:299.704px 297.852px" id="elun3r07o0eoa" fill="#37474f" class="animable" />
					<path d="M299.77 294.17a.13.13 0 00-.08 0 4.36 4.36 0 00-1.5-.19 2.09 2.09 0 00-1.41.56c0 .11.12.26.81.36a4.37 4.37 0 002-.19c.3-.15.41-.42.18-.54z" style="transform-origin:298.337px 294.458px" id="elzw1geazntxr" fill="#455a64" class="animable" />
					<path d="M301.7 299.27a7.89 7.89 0 00-3.7-3.81 7.92 7.92 0 011.45 1.07 8.86 8.86 0 012.63 5.15.58.58 0 00.62 0s0-.52-.08-1.28c-.04.71-.37.46-.92-1.13z" style="transform-origin:300.35px 298.615px" id="elrjjzrhmajc" class="animable" opacity=".1" />
					<path d="M302.33 298.67a3.6 3.6 0 003.35-1.31 3.65 3.65 0 00.37-3.2 3.38 3.38 0 00-2.95.93 4 4 0 00-.77 3.58z" style="transform-origin:304.227px 296.411px" id="el7guwt0omx5b" fill="#0092df" class="animable" />
					<path d="M302.33 298.67a3.6 3.6 0 003.35-1.31 3.65 3.65 0 00.37-3.2 3.38 3.38 0 00-2.95.93 4 4 0 00-.77 3.58z" style="transform-origin:304.227px 296.411px" id="elzta7l7fuey" class="animable" opacity=".1" />
					<path d="M306.05 294.16a3.38 3.38 0 00-2.95.93 4 4 0 00-.77 3.58 10 10 0 013.72-4.51z" style="transform-origin:304.121px 296.391px" id="el924n7yu8m2j" fill="#0092df" class="animable" />
				</g>
				<g id="freepik--Laptop--inject-16" class="animable" style="transform-origin:347.347px 236.938px">
					<path d="M386.36 241.25c-6.43-3.71-31.5-18.12-31.5-18.12l-50.58 29.18c-.74.43-.74 1.12 0 1.54l30.1 17.32a3 3 0 002.68 0l49.3-28.37c.73-.43.74-1.12 0-1.55z" style="transform-origin:345.318px 247.308px" id="elnytzn69deep" class="animable" opacity=".15" />
					<path d="M304.53 249.27v1a2.74 2.74 0 001.36 2.36l25.95 14.93a2.75 2.75 0 002.72 0l47.6-27.56a2.73 2.73 0 001.36-2.36V237l-50.32 29z" style="transform-origin:344.025px 252.46px" id="elzfxsajf4ald" fill="#ebebeb" class="animable" />
					<path d="M383.52 237l-28.22-16.27a1.62 1.62 0 00-1.62 0l-49 28.27a.36.36 0 000 .62l28.49 16.46z" style="transform-origin:344.012px 243.296px" id="elag9s11j4wv4" fill="#fafafa" class="animable" />
					<path style="transform-origin:347.625px 246.44px" id="elkbbb7nhwiw" fill="#e0e0e0" d="M332.94 263.68l-15.22-8.78 44.51-25.7 15.3 8.73-44.59 25.75z" class="animable" />
					<path style="transform-origin:336.105px 237.58px" id="elbt65lbhdzz5" fill="#e0e0e0" d="M325.46 239.25l.28.17 7.46 4.3 13.27-7.66.28-.15-7.75-4.47-13.54 7.81z" class="animable" />
					<path style="transform-origin:336.105px 237.74px" id="elz6t0rrzpxi" fill="#e6e6e6" d="M325.74 239.42l7.46 4.3 13.27-7.66-7.47-4.3-13.26 7.66z" class="animable" />
					<path d="M333.2 266.07v1.81a2.74 2.74 0 001.36-.36l47.6-27.52a2.73 2.73 0 001.36-2.36V237z" style="transform-origin:358.36px 252.44px" id="el76qcbe6ekne" fill="#ebebeb" class="animable" />
					<path d="M333.2 266.07v1.81a2.74 2.74 0 001.36-.36l47.6-27.52a2.73 2.73 0 001.36-2.36V237z" style="transform-origin:358.36px 252.44px" id="el0fs7paanas9" fill="#e0e0e0" class="animable" />
					<path d="M334 266.48a3.24 3.24 0 002.78-.22l47.39-27.36a3.23 3.23 0 001.56-2.25l5.19-30.94a3.27 3.27 0 00.05-.53 3.22 3.22 0 00-1-2.29l-49.25 28.43a2.41 2.41 0 00-1.15 1.67z" style="transform-origin:362.485px 234.792px" id="el3ds0qg0x0t4" fill="#0092df" class="animable" />
					<g style="transform-origin:362.485px 234.792px" id="el1qvb47b980a" class="animable" opacity=".7">
						<path d="M334 266.48a3.24 3.24 0 002.78-.22l47.39-27.36a3.23 3.23 0 001.56-2.25l5.19-30.94a3.27 3.27 0 00.05-.53 3.22 3.22 0 00-1-2.29l-49.25 28.43a2.41 2.41 0 00-1.15 1.67z" style="transform-origin:362.485px 234.792px" id="elcpo5g933rkj" fill="#fff" class="animable" />
					</g>
					<path d="M333.2 266.08l.33.18.44.22 5.61-33.48a2.41 2.41 0 011.15-1.67L390 202.89a3.21 3.21 0 00-.65-.5L340 230.88a2.35 2.35 0 00-1.16 1.66z" style="transform-origin:361.6px 234.435px" id="el77boc9p2p15" fill="#fafafa" class="animable" />
					<path d="M360.66 237.91c.35-2.07 2.49-4.82 4.78-6.14s3.86-.72 3.52 1.35-2.49 4.83-4.78 6.15-3.87.73-3.52-1.36z" style="transform-origin:364.809px 235.521px" id="el8qp4vdmxpyk" fill="#0092df" class="animable" />
				</g>
				<g id="freepik--Books--inject-16" class="animable" style="transform-origin:389.379px 259.349px">
					<path d="M382.17 283.42L358.84 270a.37.37 0 010-.7l36.54-21.1a1.36 1.36 0 011.21 0l23.33 13.47c.33.2.33.51 0 .7l-36.54 21.1a1.36 1.36 0 01-1.21-.05z" style="transform-origin:389.379px 265.823px" id="freepik--shadow--inject-16" class="animable" opacity=".15" />
					<g id="freepik--Book--inject-16" class="animable" style="transform-origin:389.839px 262.201px">
						<path id="eliiwu5m1qezk" class="animable" style="transform-origin:389.38px 265.425px" d="M362.56 269.25l20.22 11.53 33.42-19.17-20.23-11.54-33.41 19.18z" />
						<path d="M383 279.91l-19.51-11.2a8.14 8.14 0 00-.1-5.06l19.38 11.08a19.25 19.25 0 01.23 5.18z" style="transform-origin:373.235px 271.78px" id="eldz3jyuec9hp" fill="#f5f5f5" class="animable" />
						<path d="M381.79 273.15a4.12 4.12 0 011.87 3.22v3.77c0 1.19-.84 1.67-1.87 1.08l-19.23-11v-.93l19 10.82c.62.36 1.12.07 1.12-.65v-3.49a2.48 2.48 0 00-1.12-1.94l-18.95-10.82v-1.06z" style="transform-origin:373.11px 271.811px" id="ellgdj3im1ug8" fill="#263238" class="animable" />
						<path d="M362.56 262.11L396 242.93l19.23 11a4.1 4.1 0 011.88 3.23V261a1.29 1.29 0 01-.55 1.2l-33.42 19.18a1.29 1.29 0 00.55-1.2v-3.78a4.13 4.13 0 00-1.87-3.23z" style="transform-origin:389.839px 262.155px" id="elff97jtout4m" fill="#455a64" class="animable" />
						<path d="M383.11 274.54a3.76 3.76 0 01.55 1.83v3.78a1.29 1.29 0 01-.55 1.2l33.42-19.18a1.29 1.29 0 00.55-1.2v-3.77a3.77 3.77 0 00-.55-1.84z" style="transform-origin:400.099px 268.355px" id="elhqm9e89jfjj" fill="#37474f" class="animable" />
					</g>
					<g id="freepik--book--inject-16" class="animable" style="transform-origin:389.814px 252.982px">
						<path style="transform-origin:389.41px 255.965px" id="elg1hb72kff9q" fill="#0092df" d="M364.54 259.51l18.76 10.69 30.98-17.78-18.76-10.69-30.98 17.78z" class="animable" />
						<path style="transform-origin:389.41px 255.965px" id="els9vu0vky51o" d="M364.54 259.51l18.76 10.69 30.98-17.78-18.76-10.69-30.98 17.78z" class="animable" opacity=".35" />
						<path d="M383.51 269.39L365.42 259a7.48 7.48 0 00-.1-4.69l18 10.27a18 18 0 01.19 4.81z" style="transform-origin:374.455px 261.85px" id="elcov6sgh64x" fill="#fff" class="animable" />
						<path d="M382.37 263.12a3.81 3.81 0 011.74 3v3.5c0 1.1-.78 1.55-1.74 1l-17.83-10.23v-.87l17.59 10c.58.33 1.05.06 1-.6v-3.22a2.28 2.28 0 00-1.05-1.79l-17.57-10v-1z" style="transform-origin:374.31px 261.882px" id="elmk2igrco4x" fill="#0092df" class="animable" />
						<path d="M382.37 263.12a3.81 3.81 0 011.74 3v3.5c0 1.1-.78 1.55-1.74 1l-17.83-10.23v-.87l17.59 10c.58.33 1.05.06 1-.6v-3.22a2.28 2.28 0 00-1.05-1.79l-17.57-10v-1z" style="transform-origin:374.31px 261.882px" id="elpy3e1l9hwdn" class="animable" opacity=".2" />
						<path d="M364.54 252.89l31-17.78 17.82 10.23a3.81 3.81 0 011.74 3v3.5a1.2 1.2 0 01-.51 1.12l-31 17.78a1.2 1.2 0 00.51-1.12v-3.5a3.81 3.81 0 00-1.74-3z" style="transform-origin:389.824px 252.925px" id="elg1lnzat3b9" fill="#0092df" class="animable" />
						<path d="M364.54 252.89l31-17.78 17.82 10.23a3.81 3.81 0 011.74 3v3.5a1.2 1.2 0 01-.51 1.12l-31 17.78a1.2 1.2 0 00.51-1.12v-3.5a3.81 3.81 0 00-1.74-3z" style="transform-origin:389.824px 252.925px" id="eljt1h4kssydf" fill="#fff" class="animable" opacity=".3" />
						<path d="M383.6 264.41a3.45 3.45 0 01.51 1.7v3.5a1.2 1.2 0 01-.51 1.12l31-17.78a1.2 1.2 0 00.51-1.12v-3.5a3.45 3.45 0 00-.51-1.7z" style="transform-origin:399.359px 258.68px" id="el16c6votf8xg" fill="#0092df" class="animable" />
						<path d="M383.6 264.41a3.45 3.45 0 01.51 1.7v3.5a1.2 1.2 0 01-.51 1.12l31-17.78a1.2 1.2 0 00.51-1.12v-3.5a3.45 3.45 0 00-.51-1.7z" style="transform-origin:399.359px 258.68px" id="el0xdfompv3k19" class="animable" opacity=".1" />
					</g>
				</g>
				<g id="freepik--Coffee--inject-16" class="animable" style="transform-origin:260.005px 276.946px">
					<path d="M266.91 285c3.92 2.17 3.92 5.69 0 7.86a16.3 16.3 0 01-14.2 0c-3.92-2.17-3.92-5.69 0-7.86a16.23 16.23 0 0114.2 0z" style="transform-origin:259.81px 288.926px" id="freepik--shadow--inject-16" class="animable" opacity=".15" />
					<g id="freepik--coffee--inject-16" class="animable" style="transform-origin:260.06px 275.862px">
						<path d="M253.72 272.11a20.62 20.62 0 0112.49.32c3.36 1.38 3.31 3.48-.12 4.68a20.59 20.59 0 01-12.49-.32c-3.48-1.38-3.42-3.48.12-4.68z" style="transform-origin:259.862px 274.611px" id="elt9npqj8dt4" fill="#263238" class="animable" />
						<path d="M251 267.79l18 .48-1.91 21.17c-.1.77-.84 1.52-2.23 2.07a15.92 15.92 0 01-10.8-.28c-1.41-.63-2.13-1.41-2.2-2.18z" style="transform-origin:260px 280.055px" id="el3fm898t5hg4" fill="#fafafa" class="animable" />
						<path d="M269 268.27l-.39 4.3a7.68 7.68 0 01-1.52.77 21.92 21.92 0 01-14.34-.37l-.47-.23a9.07 9.07 0 01-1.11-.67l-.17-4.28z" style="transform-origin:260px 271.079px" id="elmn0q7x5jf" fill="#ebebeb" class="animable" />
						<path d="M249.88 268.38l.08-3.24 2.1.06a8.12 8.12 0 01.93-.4 21.81 21.81 0 0114.34.37c.32.14.6.29.87.44l2 .06-.09 3.24c0 1-1 2.09-3 2.84a21.86 21.86 0 01-14.34-.37c-1.94-.86-2.92-1.94-2.89-3z" style="transform-origin:260.04px 268.274px" id="elcqjt93ff6iu" fill="#37474f" class="animable" />
						<path d="M253.06 262.3a21.85 21.85 0 0114.33.37c3.86 1.71 3.79 4.33-.15 5.84a21.89 21.89 0 01-14.33-.37c-3.99-1.72-3.91-4.33.15-5.84z" style="transform-origin:260.103px 265.404px" id="elqhzdinqfhg" fill="#455a64" class="animable" />
						<path d="M251.85 264.41l.72-2.66 5.15.14a20.88 20.88 0 015.12.13l5 .13.59 2.69c.3 1-.5 2-2.4 2.67a18.77 18.77 0 01-11.82-.3c-1.95-.8-2.72-1.84-2.36-2.8z" style="transform-origin:260.128px 265.036px" id="elhqj52upqvy8" fill="#37474f" class="animable" />
						<path d="M254.84 260.1a18.19 18.19 0 0110.86.28c2.92 1.19 2.87 3-.1 4a18.15 18.15 0 01-10.86-.28c-3.02-1.17-2.97-2.97.1-4z" style="transform-origin:260.183px 262.241px" id="el9y7awcwn78" fill="#455a64" class="animable" />
						<path d="M253.56 262.08a.93.93 0 00.33.39 4.83 4.83 0 001.24.67 15.81 15.81 0 005.08.9 15.07 15.07 0 005-.64 4.62 4.62 0 001.23-.6c.25-.2.32-.34.32-.38s-.25-.55-1.49-1.06a15.13 15.13 0 00-5-.89 15.52 15.52 0 00-5.12.64c-1.25.42-1.58.89-1.59.97z" style="transform-origin:260.16px 262.254px" id="elhyak5so2ey" fill="#263238" class="animable" />
						<path d="M253.89 262.47a4.83 4.83 0 001.24.67 15.81 15.81 0 005.08.9 15.07 15.07 0 005-.64 4.62 4.62 0 001.23-.6 4.21 4.21 0 00-1.19-.67 15.11 15.11 0 00-5-.9 15.56 15.56 0 00-5.12.64 4.72 4.72 0 00-1.24.6z" style="transform-origin:260.165px 262.634px" id="eln96tnyv33yt" fill="#37474f" class="animable" />
						<g style="transform-origin:256.535px 262.84px" id="elzk531r0711" class="animable" opacity=".5">
							<path id="elal2f14mc884" d="M256.94 262.62a1.55 1.55 0 00-1.2-.26c-.22.12-.05.43.39.7a1.56 1.56 0 001.2.26c.22-.13.05-.44-.39-.7z" class="animable" style="transform-origin:256.535px 262.84px" />
						</g>
						<path d="M268 282.61c0 .79-.84 1.57-2.46 2.14a19.41 19.41 0 01-11.77-.31c-1.63-.65-2.44-1.46-2.42-2.26l-.31-7.8c0 .85.83 1.72 2.57 2.41a20.59 20.59 0 0012.49.32c1.72-.6 2.59-1.42 2.61-2.27z" style="transform-origin:259.875px 279.948px" id="elgkl601qc07l" fill="#455a64" class="animable" />
						<path d="M262.48 282.93a13 13 0 00.74-1.31 3.9 3.9 0 012.08-1.74.25.25 0 01.31.12 3.05 3.05 0 01-3.9 3.75s-.06-.13 0-.15a2.5 2.5 0 00.77-.67z" style="transform-origin:263.708px 281.887px" id="elvis445r1a29" fill="#0092df" class="animable" />
						<path d="M264.82 279.62a4.28 4.28 0 00-1.31.76 3.94 3.94 0 00-1 1.25 3.76 3.76 0 01-1.21 1.51.24.24 0 01-.35-.06 2.69 2.69 0 01.71-3.26 2.76 2.76 0 013.16-.64.24.24 0 010 .44z" style="transform-origin:262.821px 281.063px" id="el94t3e7im71j" fill="#0092df" class="animable" />
					</g>
				</g>
			</g>
		</g>
	</g>
	<g id="freepik--Character--inject-16" class="animable" style="transform-origin:186.95px 292.632px">
		<g id="freepik--character--inject-16" class="animable" style="transform-origin:186.95px 292.632px">
			<path d="M245.93 194.29l5-10.76a3.68 3.68 0 013.64 1.58l-4.75 10.65z" style="transform-origin:250.25px 189.622px" id="el1nhmhoo6i3o" fill="#e0e0e0" class="animable" />
			<path d="M214 224.32a33.51 33.51 0 00-3.88 10.19c-.85 4.93 1.81 9.9 5.19 8.94s7.25-5.53 10.12-10.15 13.68-23.21 13.68-23.21a9 9 0 005.67-1.8c2.32-2 6.24-12.94 6.24-12.94s-2.51.08-5.35.29c1.07-1.73.79-3.3.24-3.45-.73-.19-2.58 1.24-4 1.81-2.36.95-5.26 1-5.8 1.44-1.58 1.22-2.91 5.37-5 8.2C225.15 212 214 224.32 214 224.32z" style="transform-origin:230.49px 217.871px" id="el341p96z40ri" fill="#ffa8a7" class="animable" />
			<path d="M183.5 207.1c4.22 1.09 8 4.47 12.34 8.13S211.35 227 211.35 227l7.94-8.59 10.52 8.59s-5 9-9.6 14.07c-3.85 4.29-5 4.32-11.17.94-5.5-3-23.51-13-23.51-13z" style="transform-origin:206.655px 225.764px" id="el4ue6kdvmbtq" fill="#0092df" class="animable" />
			<path d="M183.5 207.1c4.22 1.09 8 4.47 12.34 8.13S211.35 227 211.35 227l7.94-8.59 10.52 8.59s-5 9-9.6 14.07c-3.85 4.29-5 4.32-11.17.94-5.5-3-23.51-13-23.51-13z" style="transform-origin:206.655px 225.764px" id="elcp7ztjayq76" fill="#fff" class="animable" opacity=".8" />
			<path d="M211.35 227a23.27 23.27 0 00-3.84 6.72A14.7 14.7 0 01210 226z" style="transform-origin:209.43px 229.86px" id="el85r21bjmckr" class="animable" opacity=".1" />
			<path d="M239.14 210.09a6.26 6.26 0 01-2.67-3 4.39 4.39 0 003.83-3.09c.8-2.89-.13-3.83 2-5.05a13 13 0 003.5-3.08l5-.23s-1.61 6.55-2.53 8.86-3.42 5.83-9.13 5.59z" style="transform-origin:243.635px 202.871px" id="eljfvotg3yk3m" fill="#f28f8f" class="animable" />
			<path d="M246.31 193.78s3.16-.65 4.92-.12c.76.22 1.25.68 1 2.19a2.83 2.83 0 01-1.57 1.84 2.34 2.34 0 011 1.95 2.91 2.91 0 01-2 2.5 1.76 1.76 0 01.29 1.78 3.11 3.11 0 01-2.13 1.65 2.76 2.76 0 01-.33 2c-.6.81-3 1.8-5 2.1a1.58 1.58 0 01-1.82-2.34 4.2 4.2 0 011.8-1.44 2.06 2.06 0 01-.62-1.75c.19-1 2.39-1.73 2.39-1.73s-1.47-.73-1.24-2 2.85-2 2.85-2a1.41 1.41 0 01-1.4-1.07c1.09-1.29 1.91-2.59 1.86-3.56z" style="transform-origin:246.364px 201.598px" id="elj4xagqaz5we" fill="#ffa8a7" class="animable" />
			<g id="freepik--Legs--inject-16" class="animable" style="transform-origin:169.911px 342.368px">
				<path d="M137 395.52s-2.35-23.87-.26-37.7c1.8-11.86 3.79-16.77 4.16-19.47 0 0 3.32-30.89 3.88-54.63.27-11.25.86-17.12 9.48-30l3.24-3.75c.51 4.38 4.7 4.25 10.64 5.2 5.73.91 13 .09 21.65-2.41 1.38 11.33 2.55 35.85 3.67 59.31.55 11.46-.09 21.06-.24 28.4-.21 10-2.94 48.93-2.94 48.93l-.06 1.65c0 1.82.35 3.1 1.49 6.05a35.49 35.49 0 006.09 10.4c.82.91 6.49 6 7.24 7.09 2.42 2.91-2.71 4.46-6.49 3.9-4-.59-10.2-2.19-11.93-4.65-1.15-1.64-2-7.35-3.14-9-4-5.61-5.64-8-5.65-9.79 0-3.21 1.11-4.46 1.53-6.27-.28-3.78-7-23.84-7-34.86 0-5.25 1.6-14.49 1.6-14.49L169 297.89c-2 10.68-6 37.75-7.35 45.41-1.91 10.55-8 28.26-11.95 42.2-1.49 5.24-2.22 7.58-2.68 11 0 0-.14 1.23-.14 1.24-.1 1.57-1 18.27-1.68 21.78-1.39 7.35-7.92 6.33-8.89.36-.82-5.08.51-20.75.56-22.67z" style="transform-origin:170.769px 337.334px" id="elry87saxhd8" fill="#ffa8a7" class="animable" />
				<path d="M136.75 395.41c-1.85 0-.73 7.17-1.27 11.76-.58 4.92-2.24 8.5-2.76 12.53a16.44 16.44 0 001.4 10.37c1.25 3 7.66 7.1 10.17 2.91s3.12-9 2.9-13.6c-.23-4.76-.47-8.24-.52-11.85 0-3.19 2.51-10.63.13-11.12l-.14 1.24c-.88 1.7-9.09 2.77-10-.54z" style="transform-origin:140.125px 415.088px" id="elz8d5cgx6xor" fill="#37474f" class="animable" />
				<path d="M177.14 398.81c-.59 2.29-.09 8.61-.09 8.61s1 2.19 4.5 3.69l1.71-8.76z" style="transform-origin:180.056px 404.96px" id="el9k1ulxwhn0g" fill="#263238" class="animable" />
				<path id="elljari2dmjoh" class="animable" style="transform-origin:186.47px 406.415px" d="M181.55 411.11l7.86-2.46 1.98-6.93-8.86 4.34-.98 5.05z" />
				<path d="M190 390.94l.06-1.64c1.05.53 3.28 9.13 6.37 15.05 2.81 5.4 8.5 8.47 10.33 10.83 2.45 3.16-2.44 7.12-10.18 5.35-3.85-.87-9.65-3.42-11.19-6s-2-7.4-3.29-9.33-4.31-4.17-4.93-6.35a11.9 11.9 0 01.1-6c.63-2 1.2-4.36 1.87-4.13v1.5c.5 1.07 2.36 2.33 6.28 2.59 1.86.08 3.67-.18 4.58-1.87z" style="transform-origin:192.115px 404.836px" id="el9e34pkcm7zn" fill="#37474f" class="animable" />
			</g>
			<path d="M191.14 254.34c1 6.46 1.4 15.44 2.35 32.56s1.56 35 1.29 44.21-.94 17.91-.94 17.91-9.42 7.38-27.72 7.39c-22.86 0-28.73-7.39-28.73-7.39l2.75-12.31s2.77-41.82 2.64-54.14 3.77-21.11 9.75-29.56z" style="transform-origin:166.117px 304.71px" id="el1a3djhnytkg" fill="#455a64" class="animable" />
			<path d="M163.19 206.23l-6.56.29c1.94 11.54-6.87 21.94-6.87 21.94l3.63 18.28c-.2.32.55 2.93-.83 6.24 6.33 8.46 31.56 9.49 38.61 1.33a55.3 55.3 0 00-1.64-7.71l1.36-9c9.71-10.13-.13-23.77-7.49-30.51l-7.31-1.74z" style="transform-origin:172.353px 232.629px" id="el22nv6vsqudv" fill="#0092df" class="animable" />
			<path d="M163.19 206.23l-6.56.29c1.94 11.54-6.87 21.94-6.87 21.94l3.63 18.28c-.2.32.55 2.93-.83 6.24 6.33 8.46 31.56 9.49 38.61 1.33a55.3 55.3 0 00-1.64-7.71l1.36-9c9.71-10.13-.13-23.77-7.49-30.51l-7.31-1.74z" style="transform-origin:172.353px 232.629px" id="el32nsrr3bvd6" fill="#fff" class="animable" opacity=".8" />
			<path d="M180.55 222.49c-9.34-2.91-17.65-12-18.23-17.6l-8.9 2.47-4.83 23.86s2.81 10.68 3.79 14.5a10.57 10.57 0 01-1.31 8.62 84.2 84.2 0 00-5.89 11.15s3.72 3.16 13.68 5.3a56.85 56.85 0 0017.1.65l3.14-12.1 1.8 11.21s7.29-.58 12.65-4.5l-3.18-19.43.77-8.79a16.16 16.16 0 004.3-9.35c.39-5.49-1.72-9.89-5.6-15s-6.34-6.39-6.34-6.39l-4.85-2.21a25 25 0 011.9 17.61z" style="transform-origin:170.333px 238.342px" id="elb2lj3xilcb6" fill="#0092df" class="animable" />
			<path d="M180.55 222.49c-9.34-2.91-17.65-12-18.23-17.6l-8.9 2.47-4.83 23.86s2.81 10.68 3.79 14.5a10.57 10.57 0 01-1.31 8.62 84.2 84.2 0 00-5.89 11.15s3.72 3.16 13.68 5.3a56.85 56.85 0 0017.1.65l3.14-12.1 1.8 11.21s7.29-.58 12.65-4.5l-3.18-19.43.77-8.79a16.16 16.16 0 004.3-9.35c.39-5.49-1.72-9.89-5.6-15s-6.34-6.39-6.34-6.39l-4.85-2.21a25 25 0 011.9 17.61z" style="transform-origin:170.333px 238.342px" id="elu8867azkfh" class="animable" opacity=".2" />
			<path d="M176 213.26s-8.79-1.94-12.54-7.26v-4.41c-2.2.37-2.7 3.79-2.7 3.79s-.57 4.73 2 7.62 7.5 1.52 7.5 1.52 2 2.32 3 2.59 2.74-3.85 2.74-3.85z" style="transform-origin:168.353px 209.356px" id="el1h5dlr1eoey" fill="#0092df" class="animable" />
			<path d="M176 213.26s-8.79-1.94-12.54-7.26v-4.41c-2.2.37-2.7 3.79-2.7 3.79s-.57 4.73 2 7.62 7.5 1.52 7.5 1.52 2 2.32 3 2.59 2.74-3.85 2.74-3.85z" style="transform-origin:168.353px 209.356px" id="elulvqnlw6nxt" fill="#fff" class="animable" opacity=".65" />
			<path d="M176 213.26c1.27-1.17 2-4.75 1.22-7.84v-2.6a1.71 1.71 0 011.41.58l2.54 2.37a7.66 7.66 0 011.1 4.36 3.58 3.58 0 01-1.91 3 7.8 7.8 0 01-.11 2.74c-.38.7-4.25-2.61-4.25-2.61z" style="transform-origin:179.14px 209.391px" id="elufz486y50z" fill="#0092df" class="animable" />
			<path d="M176 213.26c1.27-1.17 2-4.75 1.22-7.84v-2.6a1.71 1.71 0 011.41.58l2.54 2.37a7.66 7.66 0 011.1 4.36 3.58 3.58 0 01-1.91 3 7.8 7.8 0 01-.11 2.74c-.38.7-4.25-2.61-4.25-2.61z" style="transform-origin:179.14px 209.391px" id="el0tqxvxzs0hb" fill="#fff" class="animable" opacity=".65" />
			<path d="M183.52 188.55c2.11-2.22 3.51-5 5.15-7.53a15.17 15.17 0 012.33-3.22c.88-.78 2-1.29 2.83-2.13a6.86 6.86 0 002.14-4.25 4.19 4.19 0 00-2.17-4 6.17 6.17 0 001.31-4.86 5.81 5.81 0 00-7-4.78c1-2.2-.21-5-2.25-6.22a8.57 8.57 0 00-7-.57 25.78 25.78 0 00-6.26 3.27l-.11.07c-5.05 3.24-10.81 4.24-15.34 8.47a18.47 18.47 0 00-6 15c.52 11.9 10.13 18 13.37 21.51.16.16 1.26 0 1.47.06l3.29.15c.79 0 1.8.47 2.56.22 1-.31 1.75-1.64 2.35-2.43 2.58-3.57 6.37-5.67 9.33-8.76z" style="transform-origin:173.542px 175.155px" id="elq65ogjotej" fill="#263238" class="animable" />
			<path d="M157.54 156c4.07 2.81 2.64 6.93-.31 11.2s-6.31 7.06-10.38 4.25A9.4 9.4 0 01157.54 156z" style="transform-origin:151.566px 163.551px" id="elr9eyv0zxyyj" fill="#263238" class="animable" />
			<path d="M191.36 184.6c-.25 11-3.81 13.7-5.6 14.48s-5.23.3-8.58-.25v6.59s1.92 4.83-1.22 7.84c-7.22-1.29-11-5-12-6.16a2.33 2.33 0 01-.56-1.51v-15.51s-1.83 1.94-5.08-.28a6 6 0 01-1.53-8.69c1.41-1.67 5-1.78 6.72.8 1 1.89 1.1 3.8 2.19 3 2.89-2.08 1.34-6.82 4.83-9.16a23.49 23.49 0 013.55-1.56c6.24-2.15 11.63-4 12.94-8.22 2.45 1.47 4.65 5.67 4.34 18.63z" style="transform-origin:173.475px 189.615px" id="elcd9ri05b3o6" fill="#ffa8a7" class="animable" />
			<path d="M179.53 182a1.48 1.48 0 11-1.55-1.47 1.52 1.52 0 011.55 1.47z" style="transform-origin:178.05px 182.009px" id="el7b8tisuhpmf" fill="#263238" class="animable" />
			<path d="M189.93 181.52a1.41 1.41 0 01-1.32 1.51 1.34 1.34 0 01-1.47-1.38 1.4 1.4 0 112.79-.13z" style="transform-origin:188.532px 181.561px" id="elxjdhync23s" fill="#263238" class="animable" />
			<path d="M177.18 198.83c-3.53-.47-10.8-2.55-11.93-5.43a7.38 7.38 0 002.54 3.67c2.18 1.86 9.39 4 9.39 4z" style="transform-origin:171.215px 197.235px" id="elszveh16yowp" fill="#f28f8f" class="animable" />
			<path d="M178.05 176.11l-3.59 1.15a2 2 0 011.26-2.43 1.83 1.83 0 012.33 1.28z" style="transform-origin:176.217px 176.001px" id="elu7g6y5pac7" fill="#263238" class="animable" />
			<path d="M176.48 190.24l5.43 1.89a2.81 2.81 0 01-3.6 1.84 2.87 2.87 0 01-1.83-3.73z" style="transform-origin:179.106px 192.181px" id="el4897k8h37ed" fill="#b16668" class="animable" />
			<path d="M190.57 176.43l-3.68-1a1.83 1.83 0 012.26-1.38 2 2 0 011.42 2.38z" style="transform-origin:188.756px 175.209px" id="elplpnsjim2wd" fill="#263238" class="animable" />
			<path d="M183.19 180.56v8.87l4.86-1.51-4.51-7.41a.87.87 0 00-.35.05z" style="transform-origin:185.62px 184.969px" id="el21mahoru5iyg" fill="#f28f8f" class="animable" />
			<path d="M177 191.53a2.66 2.66 0 00-.63.09 2.84 2.84 0 002 2.35 3.11 3.11 0 001 .13 1.36 1.36 0 000-.2 2.37 2.37 0 00-2.37-2.37z" style="transform-origin:177.872px 192.816px" id="elbqsgezhgd84" fill="#f28f8f" class="animable" />
			<g id="freepik--Arm--inject-16" class="animable" style="transform-origin:139.377px 244.985px">
				<path d="M139.78 258.72a36 36 0 002.49 3.59 5 5 0 003 2 38.11 38.11 0 017.34 1.73c2.09.66 3.41.49 3.48 1s-.28 1.48-2.17 1.88a17.54 17.54 0 01-4.19 0 27.5 27.5 0 005.74 5.11c4.24 2.79 5.67 4.9 1.27 7.58-3.23 2-8.84 1.44-16.59-5.8A83.86 83.86 0 01130.06 264z" style="transform-origin:144.741px 270.665px" id="elvzpznizmor" fill="#ffa8a7" class="animable" />
				<path d="M130.46 265.12c-12.47-15.55-12.8-18.27-9-23.63 20-28.24 21.07-31.53 32-34.13 4.75 8.16 1.71 17.58-2.26 22l-16.88 18c2.08 4.43 6.16 12.42 6.16 12.42a23.7 23.7 0 01-10.02 5.34z" style="transform-origin:137.606px 236.24px" id="elc3g5ac5s1uc" fill="#0092df" class="animable" />
				<path d="M130.46 265.12c-12.47-15.55-12.8-18.27-9-23.63 20-28.24 21.07-31.53 32-34.13 4.75 8.16 1.71 17.58-2.26 22l-16.88 18c2.08 4.43 6.16 12.42 6.16 12.42a23.7 23.7 0 01-10.02 5.34z" style="transform-origin:137.606px 236.24px" id="eli60ju0r4d9o" fill="#fff" class="animable" opacity=".8" />
				<path d="M134.28 247.37a13.12 13.12 0 00-5.69-4.89 7.87 7.87 0 016.81 3.69z" style="transform-origin:131.995px 244.924px" id="elwsc6kz599lc" class="animable" opacity=".1" />
			</g>
			<path d="M177.46 238.53c-5.76 3-15.45 1.65-17.83-5.23 0 0-.87 6 6.48 8.1 7.8 2.23 11.35-2.87 11.35-2.87z" style="transform-origin:168.529px 237.632px" id="el3kzxukhumiv" class="animable" opacity=".2" />
		</g>
	</g>
	<g id="freepik--speech-bubble--inject-16" class="animable animator-active" style="transform-origin:361.59px 185.249px">
		<g id="freepik--speech-bubble--inject-16" class="animable" style="transform-origin:361.59px 185.249px">
			<g id="freepik--speech-bubble--inject-16" class="animable" style="transform-origin:361.59px 185.249px">
				<path d="M364.6 208.55l-2.73-7.07 2.2-6.33v-3.88l-6.72 3.88V199l2.89 6.94a.44.44 0 00.19.17z" style="transform-origin:360.975px 199.91px" id="elw7eqcw1vlo" fill="#0092df" class="animable" />
				<path d="M364.6 208.55l-2.73-7.07 2.2-6.33v-3.88l-6.72 3.88V199l2.89 6.94a.44.44 0 00.19.17z" style="transform-origin:360.975px 199.91px" id="el61gamh426es" class="animable" opacity=".2" />
				<path d="M376.65 166.79a4.46 4.46 0 00-2-3.49l-1.64-.94a4.41 4.41 0 00-4 0l-20.42 11.76a4.49 4.49 0 00-2 3.49v23.66a4.47 4.47 0 002 3.49l1.64.94a4.39 4.39 0 004 0l7.36-4.23 2.88 6.93a.43.43 0 00.78-.07l3-10.73 6.37-3.66a4.48 4.48 0 002-3.49z" style="transform-origin:361.62px 185.249px" id="elcrh2qr8yhh8" fill="#0092df" class="animable" />
				<path d="M346.54 201.27a4.46 4.46 0 002 3.49l1.64.94a4.53 4.53 0 003.68.17c-.95.35-1.67-.18-1.67-1.33v-23.66a4.15 4.15 0 01.59-2l-5.67-3.27a4.13 4.13 0 00-.58 2z" style="transform-origin:350.195px 190.895px" id="el1detis53yfw" class="animable" opacity=".2" />
				<path d="M376.58 166.22c-.23-.86-1-1.13-1.94-.59l-20.43 11.77a4 4 0 00-1.42 1.5l-5.66-3.27a4.11 4.11 0 011.42-1.5L369 162.36a4.47 4.47 0 014 0l1.64.95a4.38 4.38 0 011.94 2.91z" style="transform-origin:361.855px 170.394px" id="elvh25qhswmp" fill="#fff" class="animable" opacity=".5" />
			</g>
			<path d="M360.7 196.32a3.66 3.66 0 01-1.1-.16 3 3 0 01-2-3.15v-2.68a.36.36 0 01.4-.33.37.37 0 01.38.37V193a2.3 2.3 0 001.49 2.42c2.19.68 5.8-1.44 8.05-4.74a8.5 8.5 0 001.69-4.56v-2.72a.38.38 0 01.75 0v2.73a9.26 9.26 0 01-1.82 5c-2.17 3.11-5.38 5.19-7.84 5.19z" style="transform-origin:363.972px 189.701px" id="elsr5axamp5g" fill="#fafafa" class="animable" />
			<path d="M364 192.56a.23.23 0 01-.11 0l-9-2.8a.36.36 0 01-.25-.23.38.38 0 01.05-.34l9-13.17a.38.38 0 01.42-.15l9 2.8a.38.38 0 01.24.24.35.35 0 010 .33l-9 13.18a.38.38 0 01-.35.14zm-8.39-3.38l8.24 2.57 8.54-12.53-8.23-2.57z" style="transform-origin:364.006px 184.211px" id="eld6uircnwi4" fill="#fafafa" class="animable" />
			<path d="M372.51 189.39a.7.7 0 01-.53-.22.82.82 0 01-.2-.57l.53-2.55a.41.41 0 01.2-.26.37.37 0 01.25 0 .47.47 0 00.23-.19.39.39 0 01.38-.18.38.38 0 01.31.27l.5 1.88a.34.34 0 010 .1 2 2 0 01-1.67 1.72zm.48-2.91l-.47 2.19a2.58 2.58 0 00.46-.26 1.22 1.22 0 00.46-.73l-.33-1.25z" style="transform-origin:372.982px 187.404px" id="elo4tw1ez305" fill="#fafafa" class="animable" />
			<path d="M372.83 185.58a.61.61 0 01-.3-.08.86.86 0 01-.37-.77 1.54 1.54 0 01.64-1.28.61.61 0 01.64 0 .82.82 0 01.37.77 1.52 1.52 0 01-.64 1.27.63.63 0 01-.34.09zm.11-.7zm.12-.65a1 1 0 00-.15.48 1 1 0 00.15-.48z" style="transform-origin:372.986px 184.47px" id="eli7x82osii8m" fill="#fafafa" class="animable" />
			<path d="M363.9 184.13a.38.38 0 01-.17-.71l9.08-4.74a.37.37 0 01.54.33v4.6a.37.37 0 01-.37.38.38.38 0 01-.38-.38v-4l-8.52 4.46a.58.58 0 01-.18.06z" style="transform-origin:368.444px 181.384px" id="elmxm9jc1u90b" fill="#fafafa" class="animable" />
		</g>
	</g>
	<defs>
		<filter id="active" height="200%">
			<feMorphology in="SourceAlpha" operator="dilate" radius="2" result="DILATED" />
			<feFlood flood-color="#32DFEC" flood-opacity="1" result="PINK" />
			<feComposite in="PINK" in2="DILATED" operator="in" result="OUTLINE" />
			<feMerge>
				<feMergeNode in="OUTLINE" />
				<feMergeNode in="SourceGraphic" />
			</feMerge>
		</filter>
		<filter id="hover" height="200%">
			<feMorphology in="SourceAlpha" operator="dilate" radius="2" result="DILATED" />
			<feFlood flood-color="red" flood-opacity=".5" result="PINK" />
			<feComposite in="PINK" in2="DILATED" operator="in" result="OUTLINE" />
			<feMerge>
				<feMergeNode in="OUTLINE" />
				<feMergeNode in="SourceGraphic" />
			</feMerge>
			<feColorMatrix values="0 0 0 0 0 0 1 0 0 0 0 0 0 0 0 0 0 0 1 0" />
		</filter>
	</defs>
</svg>
