<svg width="400" height="400" xmlns="http://www.w3.org/2000/svg" id="freepik_stories-team" class="animated" version="1.1" viewBox="0 0 500 500">
	<style>
		@keyframes floating{0%,to{opacity:1;transform:translateY(0)}50%{transform:translateY(-10px)}}svg#freepik_stories-team:not(.animated) .animable{opacity:0}
	</style>
	<g id="freepik--Floor--inject-1--inject-119" class="animable" style="transform-origin:250.59px 333.76px">
		<ellipse id="freepik--floor--inject-1--inject-119" cx="250.59" cy="333.76" fill="#f5f5f5" rx="232.98" ry="134.51" style="transform-origin:250.59px 333.76px" class="animable" />
	</g>
	<g id="freepik--Shadows--inject-1--inject-119" class="animable" style="transform-origin:246.76px 357.705px">
		<ellipse id="freepik--Shadow--inject-1--inject-119" cx="417.65" cy="351.31" fill="#e6e6e6" rx="46.07" ry="26.6" style="transform-origin:417.65px 351.31px" class="animable" />
		<ellipse id="freepik--shadow--inject-1--inject-119" cx="77.9" cy="347.57" fill="#e6e6e6" rx="48.1" ry="27.77" style="transform-origin:77.9px 347.57px" class="animable" />
		<path id="freepik--shadow--inject-1--inject-119" d="M334.57 337.53a4.23 4.23 0 01-2.07-.51l-42.62-24.61a2 2 0 01.16-3.68l38.26-17.67a5 5 0 012-.41 5.11 5.11 0 012.54.62L367.08 311a2.23 2.23 0 01.2 3.92l-30.22 21.83a4.24 4.24 0 01-2.49.75z" style="transform-origin:328.546px 314.09px" fill="#e6e6e6" class="animable" />
		<path id="freepik--shadow--inject-1--inject-119" d="M160.21 331.69a4.09 4.09 0 002.06-.52l42.63-24.61a2 2 0 00-.17-3.68l-38.25-17.66a4.9 4.9 0 00-2-.41 5.14 5.14 0 00-2.54.62l-34.2 19.75a2.38 2.38 0 00-1.27 1.91 2.35 2.35 0 001.08 2l30.22 21.83a4.27 4.27 0 002.49.75z" style="transform-origin:166.253px 308.25px" fill="#e6e6e6" class="animable" />
		<path id="freepik--shadow--inject-1--inject-119" d="M102.06 360l137.24 79.2a4.6 4.6 0 004.15 0l140.85-81.39a1.27 1.27 0 000-2.4l-137.23-79.2a4.62 4.62 0 00-4.16 0l-140.85 81.36a1.26 1.26 0 000 2.43z" style="transform-origin:243.144px 357.705px" fill="#e6e6e6" class="animable" />
	</g>
	<g id="freepik--character-4--inject-1--inject-119" class="animable" style="transform-origin:313.747px 243.623px">
		<g id="freepik--Girl--inject-1--inject-119" class="animable" style="transform-origin:324.395px 264.982px">
			<path d="M358.29 260.11v53a1.5 1.5 0 00.67 1.17l1.81 1a1.5 1.5 0 001.34 0l1.81-1a1.5 1.5 0 00.67-1.17v-53a.76.76 0 00-.77-.77h-4.75a.77.77 0 00-.78.77z" style="transform-origin:361.44px 287.389px" id="elhr4z0clvgmc" fill="#263238" class="animable" />
			<path d="M363.82 259.34h-1.6a.77.77 0 00-.78.77V315c0 .43.3.6.67.39l1.81-1a1.5 1.5 0 00.67-1.17v-53a.76.76 0 00-.77-.88z" style="transform-origin:363.02px 287.41px" id="elp6f0ii65ty" fill="#37474f" class="animable" />
			<path d="M327.87 277.61v53a1.47 1.47 0 00.67 1.16l1.81 1a1.5 1.5 0 001.34 0l1.81-1a1.47 1.47 0 00.67-1.16v-53a.78.78 0 00-.78-.78h-4.75a.78.78 0 00-.77.78z" style="transform-origin:331.02px 304.879px" id="el9ifhunsx4ta" fill="#263238" class="animable" />
			<path d="M333.39 276.83h-1.6a.78.78 0 00-.77.78v54.84c0 .43.3.6.67.39l1.81-1a1.47 1.47 0 00.67-1.16v-53a.78.78 0 00-.78-.85z" style="transform-origin:332.597px 304.88px" id="elhbwjabtz1x" fill="#37474f" class="animable" />
			<path d="M329.89 238.69a2.86 2.86 0 01-2.47 3.18h-.36a2.86 2.86 0 01-2.82-2.5c-1.63-13.09.7-42.36 6.3-58.86.57-1.69 2.21-2.06 3.76-1.17 1.18.68 2 1.72 1.59 3-5.37 15.52-7.58 43.74-6 56.35z" style="transform-origin:329.864px 210.371px" id="elchf5lu9zkd" fill="#455a64" class="animable" />
			<path d="M362.86 246.22a1.88 1.88 0 00.57-.09 1.8 1.8 0 001.15-2.28c-4.19-12.75-24.81-24.1-38.12-24.1a1.81 1.81 0 000 3.62c12 0 31 10.48 34.69 21.61a1.8 1.8 0 001.71 1.24z" style="transform-origin:344.661px 232.985px" id="elca4qd7yy5y" fill="#37474f" class="animable" />
			<path d="M364.81 229.69a1.77 1.77 0 00.56-.09 1.81 1.81 0 001.16-2.28c-4.36-13.25-25.6-24-38.85-22.61a1.81 1.81 0 00.37 3.6c11.74-1.19 31.22 8.53 35 20.14a1.81 1.81 0 001.76 1.24z" style="transform-origin:346.358px 217.14px" id="elw9iytj7wyhr" fill="#37474f" class="animable" />
			<path d="M368.83 216.59a1.87 1.87 0 00.73-.15 1.81 1.81 0 00.93-2.39c-6.24-14.2-28.42-25.86-40.42-24.2a1.81 1.81 0 10.49 3.59c10.61-1.47 31 9.38 36.62 22.07a1.79 1.79 0 001.65 1.08z" style="transform-origin:349.574px 203.141px" id="el9yzzy9f0s8r" fill="#37474f" class="animable" />
			<path d="M373.44 201.39a2.84 2.84 0 011.17 3.59c-6.54 15.28-10 33.94-10 54.37v2.74l-.22.23a1.14 1.14 0 01-.86.35 3.36 3.36 0 01-1.19-.29 5.05 5.05 0 00-.58-.18 2.85 2.85 0 01-2.84-2.85c0-21.19 3.6-40.62 10.46-56.62a2.84 2.84 0 014-1.35z" style="transform-origin:366.884px 231.843px" id="ellionmhhy00l" fill="#455a64" class="animable" />
			<path d="M364.59 261.43v.69a4.56 4.56 0 01-1.67 3.28l-30.22 21.85a3.47 3.47 0 01-3.47.18l-42.63-24.61a4 4 0 01-1.79-3.11V259a3.53 3.53 0 011.88-2.94l38.25-17.66a4.48 4.48 0 013.67.16l34.19 19.76a4 4 0 011.79 3.11z" style="transform-origin:324.7px 262.946px" id="elfpnyl4zvih7" fill="#37474f" class="animable" />
			<path d="M362.8 258.32l-34.19-19.76a4.48 4.48 0 00-3.67-.16l-38.25 17.66c-1 .48-1.08 1.33-.09 1.91l42.63 24.61a3.47 3.47 0 003.47-.18l30.22-21.83a1.24 1.24 0 00-.12-2.25z" style="transform-origin:324.74px 260.521px" id="elpuqfqckvbfd" fill="#0092df" class="animable" />
			<path d="M311 300.66c.76.53 1.64 1.14 1.73 2a8.5 8.5 0 01-1.25 5.16c-1.34 2.24-1.73 6.05-1.55 8.55s1.26 8.73-1.31 11.81-9.78 5.87-10.73 1.35 4.34-23.75 4.34-23.75z" style="transform-origin:305.266px 316.281px" id="elywdahujgqwi" fill="#263238" class="animable" />
			<path d="M307.45 304.43a69.33 69.33 0 00-1 10.34c0 3.78-.54 6.56-2.19 7.92s-4.44 1.76-3.92-.92 1.86-16 1.86-16z" style="transform-origin:303.863px 314.091px" id="elm2n6bgeo7" fill="#9a4a4d" class="animable" />
			<path d="M314 234.48s-15.89 9.81-22.23 15.14-8.5 7.51-9.27 10.9c-.82 3.58 1.44 9.39 5.26 19.35 1 2.69 7.84 18.58 7.84 18.58l9.23-29.93 18.84-17.44z" style="transform-origin:303.001px 266.465px" id="elpxmxanenxum" fill="#455a64" class="animable" />
			<path d="M299.14 329.61c.69.27.92 1.78 1.09 2.89s1.26 2.38 0 4.4-3.89 2.74-5.58 5.5-2.56 6.53-8.46 8.09-10.55-.2-11.75-1.92-.29-3.46 3.42-5.82c3.95-2.52 5.06-3.25 5.06-3.25z" style="transform-origin:287.386px 340.352px" id="eld2lk6spmsla" fill="#263238" class="animable" />
			<path d="M292.13 317.65s-2.51 8.11-4.08 11.86-2.6 6.16-5.52 9.54c-.63.74-2.08 2.11-2.6 2.71a1.15 1.15 0 00.12 1.77c1.31 1.24 6.82 1.52 9.9-.8s4.53-5.54 6.37-7.41c.92-.93 1.78-1.82 2.42-2.48a2.5 2.5 0 00.61-2.38l-.21-.85c-.43-1.78 1.9-9.09 1.9-9.09z" style="transform-origin:290.305px 331.061px" id="elgf5fere4dg" fill="#b16668" class="animable" />
			<path d="M352.46 234.69c3.07 6.64 1.79 13.93-.21 20s-10 12.81-16.91 16.91-17.55 9.09-19.62 10-2.29 2.18-2 6.15-1.05 10.44-5.43 18.57c-4.63 8.58-7.26 14.16-7.26 14.16a9.18 9.18 0 01-9.29-2.24s7.39-39.23 9.14-44.41 21.19-22 21.19-22-6.55-11.46-8.1-17.42z" style="transform-origin:323.018px 277.665px" id="el1d66whd9n87h" fill="#455a64" class="animable" />
			<path d="M298.18 276.37c1.07-5.23 4.9-9.36 8.57-12.85 3-2.86 10.72-9.79 13.4-12.2a32.17 32.17 0 01-1.93-5.66s1.53 2.75 2.88 4.82l.85 1.24.13.18-.08.1c-1.15 1-19.44 16.9-21.14 21.91-1 2.88-3.68 16.25-5.9 27.57.2-1.73 2.22-20.12 3.22-25.11z" style="transform-origin:308.52px 273.57px" id="elm6scsaunos" class="animable" opacity=".6" />
		</g>
		<path d="M328.81 180.47l-40.19-4.41s-24.5-14-26.78-18.31c-2.53-4.76-3.32-12.13-4.76-16.6s-6.57 5-3.44 20.23c.45 2.15 3.32 3.26 5.43 5.68 5.77 6.62 15.51 14.18 21.29 18.43a21.84 21.84 0 0010.15 4.09l36.34 4.74z" style="transform-origin:290.728px 167.179px" id="el0ulk8pc9qx3o" fill="#b16668" class="animable" />
		<path d="M315.35 209.33c-.55 5.06-2.45 26.11-2.45 26.11 10.89 8.78 35.19 6.85 39.61-.22A88.19 88.19 0 01347.7 220l3.58-14.59s-6.62-9-.95-21.69l-9.15-1.63-12.71-1.86-5.51-.37s-7.49 8.09-9.53 13.3c-1.31 3.36-3.91 9.32 1.92 16.17z" style="transform-origin:332.108px 210.58px" id="elr2ss5vuatu" fill="#0092df" class="animable" />
		<path d="M349.2 225.88l-.32-1.11c-.79-2.86-1.18-4.77-1.18-4.77l3.58-14.59c-.06-.06-.3-.58-.45-.75-1-1.18-3.49-4.79-2.69-11.16s-2.66 8.84.23 13.08l-2.73 12.26-3.95 5.75 4.79-1.88a84.64 84.64 0 011.89 9c.11 1.72-4 7.43-12.67 9.62 7.79-.35 14.71-2.57 16.88-6a81.14 81.14 0 01-3.38-9.45z" style="transform-origin:344.14px 217.415px" id="el3sz8lk8xbfc" class="animable" opacity=".1" />
		<path d="M373.08 223.17c-1.91-7.45-9.5-24-11.8-30-2.63-6.84-6.35-9.41-11.24-9.48-1.8 2.32-5 15.47 1.19 21.94 2.36 5 10 19.87 10 19.87-.18 1.34-5.93 18.37-8 22.92a3.63 3.63 0 01-1.86 1.78c-2.18.95-3.18 2.12-4.92 3.47-1.36 1-2.41 1.21-2.31 1.63a2 2 0 002.35 1.25 13.72 13.72 0 003.06-1.12 18.18 18.18 0 01-3.65 4.56c-3.31 3-3.14 5.53 2.51 6.43 3.54.56 6.69-1.2 10.53-8.61 1.1-2.14 2.52-5.26 3.63-8.09 2.63-6.71 5.45-10.69 7.28-15.13 2.86-7.01 3.97-8.59 3.23-11.42z" style="transform-origin:358.511px 225.103px" id="el691qcpeqdq" fill="#b16668" class="animable" />
		<path d="M329.91 173.32l6.72.18A16.93 16.93 0 00354 157a20.29 20.29 0 00-19.74-20.84 20.29 20.29 0 00-20.84 19.74 16.93 16.93 0 0016.49 17.42z" style="transform-origin:333.71px 154.829px" id="ely3n3mrwn03r" fill="#263238" class="animable" />
		<path d="M350.72 147.17l5-1.77a2.59 2.59 0 00-3.34-1.72 2.81 2.81 0 00-1.66 3.49z" style="transform-origin:353.151px 145.353px" id="elfuy7pleu2ts" fill="#263238" class="animable" />
		<path d="M350.77 145.87l1.56-5.11a2.59 2.59 0 00-3.36 1.68 2.81 2.81 0 001.8 3.43z" style="transform-origin:350.596px 143.238px" id="elor1gwdhktr" fill="#263238" class="animable" />
		<path d="M321.53 144.94c-2.18 1.2-5 6.52-5 17.83 0 9.58 3 12 4.54 12.76s4.56.39 7.5 0l-.08 4.72s-5.25 5-5.06 7.66 6.74 4 10.59 1.54 7.18-7.34 7.18-7.34l.28-13.28s1.68 1.72 4.66-.75c2.47-2 3.38-5.57 1.55-7.53a4.2 4.2 0 00-6.71 1.15s-4.06-.65-9.93-4.5a22 22 0 01-9.52-12.26z" style="transform-origin:332.593px 167.843px" id="el9dyji8ie8g" fill="#b16668" class="animable" />
		<path d="M340 164.83l1.55-5.11a2.61 2.61 0 00-3.36 1.68 2.8 2.8 0 001.81 3.43z" style="transform-origin:339.816px 162.2px" id="elamh3f37agm8" fill="#263238" class="animable" />
		<path d="M328 159.69a1.23 1.23 0 001.11 1.33 1.25 1.25 0 10-1.11-1.33z" style="transform-origin:329.246px 159.778px" id="elj987m1razoe" fill="#263238" class="animable" />
		<path d="M326.73 168.77l-2.83.81a1.45 1.45 0 001.8 1 1.53 1.53 0 001.03-1.81z" style="transform-origin:325.335px 169.704px" id="elcbrzljhmfcm" fill="#9a4a4d" class="animable" />
		<path d="M317.78 156.87l2.48-1.63a1.42 1.42 0 00-2-.47 1.56 1.56 0 00-.48 2.1z" style="transform-origin:318.91px 155.705px" id="elcfhq7uj18ht" fill="#263238" class="animable" />
		<path d="M318.19 159.48a1.2 1.2 0 101.3-1.15 1.22 1.22 0 00-1.3 1.15z" style="transform-origin:319.389px 159.527px" id="el4ytmfb78w6k" fill="#263238" class="animable" />
		<path style="transform-origin:322.825px 162.9px" id="el510lv7n6too" fill="#9a4a4d" d="M324.79 158.97l-.15 7.86-3.78-1.29 3.93-6.57z" class="animable" />
		<path d="M328.55 175.51c3.09-.32 9.47-2 10.53-4.44a6.47 6.47 0 01-2.31 3.13c-1.94 1.57-8.28 3.23-8.28 3.23z" style="transform-origin:333.785px 174.25px" id="elubmou2a03vh" fill="#9a4a4d" class="animable" />
		<path d="M364.11 180.55A12.58 12.58 0 01351.52 168v-21.21a12.59 12.59 0 0112.59 12.59z" style="transform-origin:357.815px 163.67px" id="elqhz4b51h0m" fill="#263238" class="animable" />
	</g>
	<g id="freepik--character-3--inject-1--inject-119" class="animable" style="transform-origin:186.074px 238.264px">
		<g id="freepik--Boy--inject-1--inject-119" class="animable" style="transform-origin:181.207px 262.881px">
			<path d="M135.82 253.26v53.06a1.5 1.5 0 01-.67 1.17l-1.81 1a1.53 1.53 0 01-1.35 0l-1.81-1a1.5 1.5 0 01-.67-1.17v-53.06a.77.77 0 01.78-.77H135a.77.77 0 01.82.77z" style="transform-origin:132.665px 280.568px" id="elt547939mel" fill="#263238" class="animable" />
			<path d="M130.29 252.49h1.6a.77.77 0 01.78.77v54.88c0 .43-.3.6-.67.39l-1.81-1a1.5 1.5 0 01-.67-1.17v-53.1a.77.77 0 01.77-.77z" style="transform-origin:131.095px 280.555px" id="elo3hw0hqkjjb" fill="#37474f" class="animable" />
			<path d="M166.27 270.77v53.06a1.51 1.51 0 01-.68 1.17l-1.81 1a1.5 1.5 0 01-1.34 0l-1.81-1a1.5 1.5 0 01-.67-1.17v-53.06a.77.77 0 01.77-.77h4.76a.77.77 0 01.78.77z" style="transform-origin:163.115px 298.079px" id="eln0dw14d10v" fill="#263238" class="animable" />
			<path d="M160.73 270h1.61a.77.77 0 01.77.77v54.88c0 .43-.3.6-.67.39l-1.81-1a1.5 1.5 0 01-.67-1.17v-53.1a.77.77 0 01.77-.77z" style="transform-origin:161.535px 298.065px" id="eljebpgnil21" fill="#37474f" class="animable" />
			<path d="M164.24 231.82a2.88 2.88 0 00.58 2.1 2.82 2.82 0 001.9 1.08h.35a2.83 2.83 0 002.82-2.49c1.64-13.1-.69-42.4-6.29-58.91-.58-1.7-2.22-2.06-3.77-1.17-1.18.68-2 1.72-1.59 3 5.37 15.57 7.58 43.78 6 56.39z" style="transform-origin:164.269px 203.479px" id="elfxzuhwabcv7" fill="#455a64" class="animable" />
			<path d="M131.24 239.36a1.81 1.81 0 01-1.72-2.38c4.2-12.76 24.83-24.11 38.15-24.11a1.81 1.81 0 110 3.62c-12 0-31 10.49-34.71 21.63a1.81 1.81 0 01-1.72 1.24z" style="transform-origin:149.454px 226.115px" id="el3xtv3exr7i5" fill="#37474f" class="animable" />
			<path d="M129.3 222.82a1.88 1.88 0 01-.57-.09 1.81 1.81 0 01-1.15-2.29c4.36-13.26 25.61-24 38.87-22.62a1.81 1.81 0 11-.37 3.6c-11.75-1.19-31.24 8.54-35.06 20.15a1.81 1.81 0 01-1.72 1.25z" style="transform-origin:147.803px 210.26px" id="el2250ulcqeyv" fill="#37474f" class="animable" />
			<path d="M125.27 209.71a1.72 1.72 0 01-.73-.16 1.8 1.8 0 01-.93-2.38c6.24-14.21 28.45-25.89 40.45-24.22a1.81 1.81 0 11-.49 3.59c-10.62-1.48-31.06 9.39-36.64 22.08a1.83 1.83 0 01-1.66 1.09z" style="transform-origin:144.543px 196.25px" id="elbr2994rwim8" fill="#37474f" class="animable" />
			<path d="M120.66 194.49a2.85 2.85 0 00-1.17 3.6c6.54 15.29 10 34 10 54.41v2.74l.22.23a1.14 1.14 0 00.86.35 3.41 3.41 0 001.19-.29 4.08 4.08 0 01.58-.18 2.84 2.84 0 002.84-2.85c0-21.21-3.6-40.65-10.46-56.66a2.84 2.84 0 00-4-1.35z" style="transform-origin:127.216px 224.973px" id="elzj2o6o86suk" fill="#455a64" class="animable" />
			<path d="M129.51 254.58v.69a4.54 4.54 0 001.68 3.29l30.24 21.86a3.47 3.47 0 003.47.18l42.66-24.6a4 4 0 001.8-3.11v-.71a3.55 3.55 0 00-1.88-2.94l-38.29-17.68a4.48 4.48 0 00-3.67.17l-34.22 19.74a4 4 0 00-1.79 3.11z" style="transform-origin:169.435px 256.113px" id="elzn0avguzeo" fill="#37474f" class="animable" />
			<path d="M131.3 251.47l34.22-19.77a4.48 4.48 0 013.67-.17l38.29 17.68c1 .48 1.07 1.33.08 1.9l-42.66 24.63a3.47 3.47 0 01-3.47-.17l-30.24-21.85a1.24 1.24 0 01.11-2.25z" style="transform-origin:169.395px 253.671px" id="elz4ol0ln9e2o" fill="#0092df" class="animable" />
			<path style="transform-origin:180.88px 325.185px" id="eljqt7ipzlfpo" fill="#ffa8a7" d="M176.69 317.89h8.38v14.59h-8.38z" class="animable" transform="rotate(180)" />
			<path style="transform-origin:214.24px 310.605px" id="el1idqzo5h1uz" fill="#ffa8a7" d="M210.81 318.09l8.74.46-.21-1.76-.08-1.31-.8-12.82-9.53.34 1.36 12.79.09.98.43 1.32z" class="animable" />
			<path d="M185.05 330.17v-.72c1.08 0 4.92 8.12 8.59 11.47 2.92 2.66 8.06 6.31 7.93 8.84-.16 3.26-4.81 4.7-8.82 3.76-3.13-.73-7.61-2.63-9.76-4.95s-2.84-5.37-4-6.88-3.71-3.21-4.32-5c-.33-1 .07-3.08.53-4.86s.9-3.44 1.46-3.29v1a7.28 7.28 0 004.63 1.57c1.39.09 3.77.09 3.76-.94z" style="transform-origin:188.061px 341.167px" id="ely0k9gyznqr9" fill="#263238" class="animable" />
			<path d="M219.27 315.48c.44 0 .85.56 1.92 1.52 1.29 1.17 4 2.26 6 3 3.32 1.3 11.84 2.68 14.75 3.68 1.82.63 1.63 3.38-.71 5.13-1.74 1.3-7.52 2.94-12.86 2.25-2.91-.38-7.43-2-9.58-2.1-2.36-.15-6.68-.21-8.52-1.24s-1.39-3.66-1.1-5.89c.32-2.45.29-6.16 1.1-6.07l.09 1c1.16 1.45 6.82 1.36 9 0z" style="transform-origin:226.032px 323.352px" id="el71l110rs0id" fill="#263238" class="animable" />
			<path d="M143.52 235.57c-1.87 13.17.65 15.7 13.16 28.31 6.73 6.78 21.32 18.41 21.32 18.41s-2.42 5.25-2.5 14.68c-.08 8.31.84 28.22.84 28.22s5.06 2.82 8.95.36c0 0 10.12-47.67 9.4-50.73-.52-2.16-16.49-22.74-16.49-22.74l-4.48-2.85 29 17.85s-.88 8-.29 13.09c1.23 10.6 4.08 17.41 7 30.78 0 0 6.92 1.13 10-1.26 0 0 .19-45.78.19-49.82 0-6.14-26.67-24.48-31.72-28.74-2.88-2.44-6.1-5-6.1-5z" style="transform-origin:181.294px 276.344px" id="eli502ypswn2" fill="#0092df" class="animable" />
			<path d="M143.52 235.57c-1.87 13.17.65 15.7 13.16 28.31 6.73 6.78 21.32 18.41 21.32 18.41s-2.42 5.25-2.5 14.68c-.08 8.31.84 28.22.84 28.22s5.06 2.82 8.95.36c0 0 10.12-47.67 9.4-50.73-.52-2.16-16.49-22.74-16.49-22.74l-4.48-2.85 29 17.85s-.88 8-.29 13.09c1.23 10.6 4.08 17.41 7 30.78 0 0 6.92 1.13 10-1.26 0 0 .19-45.78.19-49.82 0-6.14-26.67-24.48-31.72-28.74-2.88-2.44-6.1-5-6.1-5z" style="transform-origin:181.294px 276.344px" id="elzafc2nzdi4a" class="animable" opacity=".3" />
			<path d="M173.72 249.23s4.08-2 7.71-9.72a19.57 19.57 0 01-2.5 7.89c-1.63 2.55 23.76 19.68 23.76 19.68z" style="transform-origin:188.205px 253.295px" id="el3kdixeqe7b8" class="animable" opacity=".35" />
		</g>
		<g id="freepik--Character--inject-1--inject-119" class="animable" style="transform-origin:190.547px 190.497px">
			<path d="M172.35 170.66l41.88-.3S242 162 244.3 157.75c2.53-4.76 3.32-12.13 4.76-16.6 1.08-3.33 4.07-1.64 3.68 9.48-.1 3 .55 6.92-.24 10.75-.45 2.15-2.76 3.9-5.43 5.68a203.6 203.6 0 01-25 13.64c-3.32 1.42-5.34 2.08-11.32 2.46-8.52.56-29 1.75-29 1.75z" style="transform-origin:212.624px 162.268px" id="el7ws8ndj0a5" fill="#ffa8a7" class="animable" />
			<path d="M169.61 170.25l25.53-.45s6.1 6.88 1.1 15.11c-.69.36-18.91 1.62-18.91 1.62z" style="transform-origin:183.909px 178.165px" id="elc5sp17opoj5" fill="#0092df" class="animable" />
			<path d="M169.61 170.25l25.53-.45s6.1 6.88 1.1 15.11c-.69.36-18.91 1.62-18.91 1.62z" style="transform-origin:183.909px 178.165px" id="el9u2z7g8zxb" class="animable" opacity=".1" />
			<path d="M155.67 170.54c-1 .24-9.31 2.19-13 3.43V202l.17 35.88c6 6.57 36.41 3.58 40.13-10.39v-42c0-6.71-3.73-14.77-14-15.37z" style="transform-origin:162.82px 205.665px" id="el40byzit88on" fill="#f5f5f5" class="animable" />
			<path style="transform-origin:145.74px 209.525px" id="elyivf2sft3c9" d="M142.7 207.81l6.08-17.22-5.96 37.87-.12-20.65z" class="animable" opacity=".1" />
			<path d="M152.77 136.19a4.61 4.61 0 00-3.8 1.34c-1.63 1.67-1.29 4.76 0 11.85l5.03.62z" style="transform-origin:150.936px 143.08px" id="ele63dxgyhdoi" fill="#263238" class="animable" />
			<path d="M182.17 134.14a8 8 0 003.16-.64c1.54-.89 1.95.87 1.1 2.4a7.21 7.21 0 01-5.85 3.9c-.05-.22-1.45-3.94-1.45-3.94z" style="transform-origin:182.998px 136.53px" id="el5avvkb22pna" fill="#263238" class="animable" />
			<path d="M155.13 150c-.74.44-1.81-1-2.74-2s-3.93-2.29-5.44.88 1.33 7.5 3.7 8.24c4.09 1.28 4.71-1.34 4.71-1.34l.31 14.75s2.68 6.55 9.93 7.53 5.75-5 3.37-7.92v-4.49a25.82 25.82 0 005.51.28c3-.46 4.9-2.83 5.82-6.09 1.46-5.23 2.51-9.25 1.26-19.53-1.36-11.27-15-11.59-22-7.13S155.13 150 155.13 150z" style="transform-origin:164.321px 154.336px" id="el951wdxiow7" fill="#ffa8a7" class="animable" />
			<path d="M155.13 151.23c-.37 0-1.8-2.37-2.74-3.22-1.29-1.18.38-11.82.38-11.82s-1.31-4 1.25-6.71 7.49-2.22 11.11-2.35a32.47 32.47 0 0012.93-2.6c5.13-2.23 5.52-2.49 6.15-.24s.88 7.43-2.18 10.89l-2.55.93s-1.38 1.23-6.17 1.81a71.06 71.06 0 01-13.27-.25c-1.39-.19-1.69 1.15-2.44 4.83-.6 3.23-1.2 8.7-2.47 8.73z" style="transform-origin:168.254px 136.977px" id="elx3nfdpj0nhs" fill="#263238" class="animable" />
			<path d="M152.78 137l-4.53-2.43a2.5 2.5 0 013.43-1.13 2.7 2.7 0 011.1 3.56z" style="transform-origin:150.656px 135.074px" id="elu2jkheffgc7" fill="#263238" class="animable" />
			<path d="M169 165.66s-6.71-1.35-9.06-2.6a7.68 7.68 0 01-3.24-3.21 10.65 10.65 0 001.84 3.79c1.72 2.19 10.46 3.81 10.46 3.81z" style="transform-origin:162.85px 163.65px" id="eli06t0ww3f7g" fill="#f28f8f" class="animable" />
			<path d="M169.85 148.62a1.35 1.35 0 11-1.35-1.41 1.39 1.39 0 011.35 1.41z" style="transform-origin:168.501px 148.56px" id="el25hlql98ruq" fill="#263238" class="animable" />
			<path d="M168.57 143.06l-3.19.79a1.72 1.72 0 011.24-2 1.6 1.6 0 011.95 1.21z" style="transform-origin:166.958px 142.826px" id="elzs67nabsct" fill="#263238" class="animable" />
			<path d="M170.16 157.52l3.07 1.15a1.61 1.61 0 01-2.08 1 1.72 1.72 0 01-.99-2.15z" style="transform-origin:171.649px 158.644px" id="ele4hqztzxgj" fill="#f28f8f" class="animable" />
			<path d="M181.21 143.87l-3.12-1.13a1.59 1.59 0 012.07-1 1.75 1.75 0 011.05 2.13z" style="transform-origin:179.686px 142.755px" id="elwhdaebf9z59" fill="#263238" class="animable" />
			<path d="M180.14 148.36a1.35 1.35 0 11-1.35-1.41 1.38 1.38 0 011.35 1.41z" style="transform-origin:178.791px 148.3px" id="el03zvcd3o3t1g" fill="#263238" class="animable" />
			<path style="transform-origin:175.245px 151.655px" id="elvz2ajoj99js" fill="#f28f8f" d="M172.91 147.61l.45 8.09 4.22-1.44-4.67-6.65z" class="animable" />
			<path d="M128.23 220.18c-.5-2.4 4.86-26.14 7-33.65l10.43 10.93-6.21 23c.09 1.59 1.4 11.08 3.44 16.63a4.26 4.26 0 002 2.27c2.48 1.33 3.54 2.79 5.46 4.54 1.49 1.37 2.71 1.65 2.56 2.13a2.3 2.3 0 01-2.88 1.25 16.68 16.68 0 01-3.5-1.6 21.49 21.49 0 003.85 5.7c3.61 3.85 3.93 6.35-2.79 6.86-4.21.33-7.75-2-11.55-11.11-1.09-2.62-2.47-6.42-3.5-9.85a160 160 0 01-4.31-17.1z" style="transform-origin:140.56px 222.4px" id="elncy1hkxl4ss" fill="#ffa8a7" class="animable" />
			<path d="M148.78 190.6c2.09-7.43.46-14.81-2.57-17.67-7.74 1.32-9.69 5-11.81 12.16-3.27 11.07-4.93 18.26-4.93 18.26 1.93 2.58 10.71 5.79 14.33 4.69z" style="transform-origin:139.595px 190.596px" id="eljxk189r27x" fill="#0092df" class="animable" />
			<path d="M148.78 190.6c2.09-7.43.46-14.81-2.57-17.67-7.74 1.32-9.69 5-11.81 12.16-3.27 11.07-4.93 18.26-4.93 18.26 1.93 2.58 10.71 5.79 14.33 4.69z" style="transform-origin:139.595px 190.596px" id="elpx2behaiubo" class="animable" opacity=".1" />
			<path d="M166.94 145.29a3.51 3.51 0 000 7h.64a3.51 3.51 0 000-7zm-4.13 3.51a4.18 4.18 0 014.13-4.22h.64a4.22 4.22 0 010 8.43h-.64a4.17 4.17 0 01-4.13-4.21z" style="transform-origin:167.202px 148.795px" id="elqw5ghe5dt2f" fill="#263238" class="animable" />
			<path d="M179.55 145.29a3.51 3.51 0 000 7h.64a3.51 3.51 0 000-7zm-4.13 3.51a4.18 4.18 0 014.13-4.22h.64a4.22 4.22 0 010 8.43h-.64a4.17 4.17 0 01-4.13-4.21z" style="transform-origin:179.812px 148.795px" id="elb4o44km0wnn" fill="#263238" class="animable" />
			<path d="M171.66 148a2.75 2.75 0 012.19-1.14 2.23 2.23 0 011.91.73l.55-.42a2.85 2.85 0 00-2.5-1 3.37 3.37 0 00-2.74 1.48z" style="transform-origin:173.69px 147.076px" id="elsg1g442va69" fill="#263238" class="animable" />
			<path d="M152.77 148.4h10.4v-.67H152.1a2.38 2.38 0 01.67.67z" style="transform-origin:157.635px 148.065px" id="el4oo3h69pv4" fill="#263238" class="animable" />
		</g>
	</g>
	<g id="freepik--character-2--inject-1--inject-119" class="animable" style="transform-origin:403.021px 219.2px">
		<path d="M414.4 139.59c-9.29-.87-14.74 5.4-17.69 11.72-3.55 7.65-10 24.13-10 24.13s-27.45 4.65-31.12 5.4l2.72 7.75s25.58-.56 29.57-.78c3.53-.19 6.42.36 8.52-3.2s9.86-24.46 9.86-24.46z" style="transform-origin:384.995px 164.049px" id="el8chcl32q0vi" fill="#ffc4c3" class="animable" />
		<path d="M414.4 139.59s-6.89-1.4-10.72 1.29c-5.07 3.56-6.55 8.11-9.15 13.66s-4.38 10.29-4.38 10.29 7.2 7.77 13.53 6.85 10.72-32.09 10.72-32.09z" style="transform-origin:402.275px 155.491px" id="elbri2pajm70n" fill="#37474f" class="animable" />
		<path d="M355.55 180.84c-9.57 1.61-12.6 6.31-14.48 8.81s-2.26 5.7-.08 8.29 3.34 2.15 7.71-2.65c2.32-2.55 4.78-4.34 5.37-4.34s-2 2.81-.6 4.75 2.47-1.56 3.38-2.67a11.75 11.75 0 002.87-7" style="transform-origin:349.611px 190.174px" id="el5uo8erzbkml" fill="#ffc4c3" class="animable" />
		<path style="transform-origin:440.13px 338.3px" id="el40ha501im93" fill="#ffc4c3" d="M435.39 330.18h9.48v16.24h-9.48z" class="animable" transform="rotate(-1.64)" />
		<path d="M435.49 341.86v-1.35c-.89.42-2.77 8.52-6.44 12.06-2.91 2.81-6.9 6.08-7.85 9.15s5.82 4.75 8.6 4.17c3.23-.66 8.79-3.11 10.15-5.27s1.92-5.3 3-6.89 3.7-3.4 4.27-5.21c.31-1-.15-3.15-.68-5s-1-3.5-1.59-3.32v1a7.53 7.53 0 01-4.69 1.74c-1.38.16-4.75-.02-4.77-1.08z" style="transform-origin:434.215px 353.095px" id="ellms83szkx7s" fill="#263238" class="animable" />
		<path style="transform-origin:413.305px 326.59px" id="elu46afmp02rc" fill="#ffc4c3" d="M418.52 334.88l-9.46.6-.97-17.17 9.94-.61.49 17.18z" class="animable" />
		<path d="M408.87 332.56c-.49 0-.87.73-1.92 1.94a20.81 20.81 0 01-5.47 4.17c-3.5 1.88-10.32 4.81-13.4 6.31-1.93.93-1.77 3.29.29 4.57s6.95 2.11 12.76.64c3.17-.8 7.23-3.87 9.86-3.78s7.54-.1 9.44-1.49 1-4.22.42-6.65c-.67-2.66-1.54-6.81-2.42-6.6v.92c-1.09 1.76-7 2.63-9.5 1.43z" style="transform-origin:404.151px 341.317px" id="elthv52y4v2qs" fill="#263238" class="animable" />
		<path d="M445.21 208.73c.26 9.06.17 61.76.17 61.76.29 2.6 2.93 7.16 3.4 16.54.67 13.6-3.5 51.12-3.5 51.12a12.49 12.49 0 01-10.55.51s-5.75-50.53-7.84-64c-1.82-11.71-5.25-43.58-5.25-43.58l-3.36 38.51a53.92 53.92 0 011.61 15c-.27 6.24-.92 44.87-.92 44.87a12.93 12.93 0 01-10.92 1.15s-8.26-54.8-8.54-60.52c-.31-6.51.39-73.11.39-73.11z" style="transform-origin:424.142px 268.285px" id="ele6t3xvatnw" fill="#0092df" class="animable" />
		<path d="M445.21 208.73c.26 9.06.17 61.76.17 61.76.29 2.6 2.93 7.16 3.4 16.54.67 13.6-3.5 51.12-3.5 51.12a12.49 12.49 0 01-10.55.51s-5.75-50.53-7.84-64c-1.82-11.71-5.25-43.58-5.25-43.58l-3.36 38.51a53.92 53.92 0 011.61 15c-.27 6.24-.92 44.87-.92 44.87a12.93 12.93 0 01-10.92 1.15s-8.26-54.8-8.54-60.52c-.31-6.51.39-73.11.39-73.11z" style="transform-origin:424.142px 268.285px" id="eljcc3p9i4amb" class="animable" opacity=".3" />
		<path d="M421.64 231.13a35.17 35.17 0 01-13.41-7.19s2.68 4.7 10.38 8.92l-.05 33.54z" style="transform-origin:414.935px 245.17px" id="el3pt26kxwxf6" class="animable" opacity=".35" />
		<path d="M439.51 143.54c2.08.93 3.26 3.93 4.1 6.06.74 1.89 3 5 3 8.58l-1.6 18.2.7 32.57a43.91 43.91 0 01-46.27-3.6s1.2-42 1.2-49.39v-1a16.64 16.64 0 0113.11-15.29c2.56-.58 16.64 2.34 16.64 2.34l9.1 1.54z" style="transform-origin:423.025px 176.744px" id="ela0genkgcgcs" fill="#455a64" class="animable" />
		<path d="M427.72 108.79a13 13 0 11-13-13 13 13 0 0113 13z" style="transform-origin:414.72px 108.79px" id="elvk2h66pwge" fill="#263238" class="animable" />
		<path d="M437.21 118.06s-2.11 9.92-2.95 11.55a4.53 4.53 0 01-2.6 2.1l.15-7z" style="transform-origin:434.435px 124.885px" id="el7rs6ogb708d" fill="#263238" class="animable" />
		<path d="M434.56 103.84a4.89 4.89 0 014.05 1.42c1.74 1.78.77 7.35-1.4 12.8l-4 .45z" style="transform-origin:436.358px 111.158px" id="elequ0a8ner55" fill="#263238" class="animable" />
		<path d="M432 118.52c.8.47 1.94-1.06 2.92-2.09s4.2-2.43 5.8.94-1.41 8-3.94 8.78c-4.36 1.37-5-1.43-5-1.43l-.33 17.63c-5.41 7-20.45 6.42-14.19-.84v-6.27a27.87 27.87 0 01-5.88.31c-3.2-.5-5.22-3-6.19-6.5-1.56-5.57-2.16-10.07-.83-21 1.45-12 15.42-12.13 23-7.38s4.64 17.85 4.64 17.85z" style="transform-origin:422.397px 122.522px" id="eljy5spxznhc" fill="#ffc4c3" class="animable" />
		<path d="M432 119.86c.4 0 1.93-2.52 2.92-3.43 1.38-1.25-.4-12.59-.4-12.59a5.37 5.37 0 00-1.32-5.74c-1.89-2.07-3.94-3.38-9.38-3.67a110.51 110.51 0 00-11.13.52c-5.37.37-7.35-1-10.43-1.82-2.36-.66-2.63 7.85 3.33 10.67 0 0 1.94 1.26 7 1.88a75.49 75.49 0 0014.15-.27c1.48-.2 1.79 1.23 2.59 5.15.78 3.44 1.36 9.27 2.67 9.3z" style="transform-origin:418.07px 106.477px" id="elrbizhatu3i" fill="#263238" class="animable" />
		<path d="M434.56 104.72l4.82-2.59a2.66 2.66 0 00-3.65-1.21 2.88 2.88 0 00-1.17 3.8z" style="transform-origin:436.818px 102.665px" id="elfe7sc9wtk9o" fill="#263238" class="animable" />
		<path d="M417.31 135.24s7.15-1.44 9.65-2.77a8.24 8.24 0 003.46-3.42 11.32 11.32 0 01-2 4c-1.82 2.34-11.14 4.06-11.14 4.06z" style="transform-origin:423.85px 133.08px" id="elb65dlwitrcn" fill="#ffa8a7" class="animable" />
		<path d="M417.66 116.73a1.45 1.45 0 001.43 1.48 1.49 1.49 0 000-3 1.48 1.48 0 00-1.43 1.52z" style="transform-origin:419.125px 116.71px" id="elax2ygspydm" fill="#263238" class="animable" />
		<path d="M419.18 111.32l3.06 1.69a1.82 1.82 0 00-.71-2.44 1.7 1.7 0 00-2.35.75z" style="transform-origin:420.817px 111.685px" id="eldibky3yctai" fill="#263238" class="animable" />
		<path d="M418 126.63l-3.27 1.23a1.72 1.72 0 002.23 1.08 1.82 1.82 0 001.04-2.31z" style="transform-origin:416.419px 127.838px" id="elfrsx8wt1yzb" fill="#ffa8a7" class="animable" />
		<path d="M405.29 112.51l2.79-2.15a1.69 1.69 0 00-2.43-.38 1.86 1.86 0 00-.36 2.53z" style="transform-origin:406.514px 111.068px" id="elm3svcu2926c" fill="#263238" class="animable" />
		<path d="M406.15 116.32a1.46 1.46 0 001.43 1.49 1.49 1.49 0 001.44-1.5 1.44 1.44 0 10-2.87 0z" style="transform-origin:407.585px 116.28px" id="el3u4swm5bmkm" fill="#263238" class="animable" />
		<path style="transform-origin:410.965px 119.27px" id="elrx7r0370b7r" fill="#ffa8a7" d="M413.45 114.96l-.47 8.62-4.5-1.53 4.97-7.09z" class="animable" />
		<path d="M449.6 130.28c.79-.49 4.76 1.09 7.34 4.19s3.13 7.66 2.46 8.67-10.32-2.48-10.32-2.48z" style="transform-origin:454.371px 136.758px" id="el6nmyvi9v7v2" fill="#37474f" class="animable" />
		<path d="M465.13 131.56c-1.31 3.25-17.28 26.23-21.11 31.73-10.65-4.7-3.36-17.19-3.36-17.19S452.13 128 454 125a6.78 6.78 0 00.83-2.52c.25-1.63 1.29-21.53.4-27.55a4.41 4.41 0 00-1.57-2.72c-2.22-1.86-3-3.56-4.55-5.73-1.23-1.7-2.4-2.24-2.15-2.69a2.39 2.39 0 013.18-.66 16.72 16.72 0 013.19 2.35 22.21 22.21 0 00-2.7-6.56c-2.83-4.65-2.63-7.24 4.27-6.35 4.32.55 8.49 4 10.43 13.92a86.11 86.11 0 01.8 10.88c.38 8.43.53 21.74.3 27.57-.13 2.95.01 3.36-1.3 6.62z" style="transform-origin:452.382px 117.843px" id="el8g1msr92hnf" fill="#ffc4c3" class="animable" />
		<path d="M437.21 143.54l12.39-13.26s-.3 10.62 9.8 12.86l-13.15 19.8c-1.46 3-7 .2-8.55-6.08-2.18-8.77-.49-13.32-.49-13.32z" style="transform-origin:447.993px 147.214px" id="elndyigffu75a" fill="#37474f" class="animable" />
	</g>
	<g id="freepik--character-1--inject-1--inject-119" class="animable" style="transform-origin:95.8128px 227.566px">
		<path d="M80.73 138.85c7.58-.65 10.93 1.56 15 7.27 4.85 6.89 14.58 24.12 14.58 24.12s27.84-.27 31.58-.18l-1.3 8.1s-25.29 4-29.25 4.47c-3.5.43-6.26 1.49-9-1.65s-14-22.33-14-22.33z" style="transform-origin:111.31px 160.947px" id="ell68rei0686e" fill="#ffbda7" class="animable" />
		<path d="M141.84 170.06c9.7-.11 13.52 4 15.81 6.11s3.23 5.21 1.55 8.15-2.92 2.7-8.06-1.25c-2.74-2.1-5.48-3.42-6-3.32s2.44 2.42 1.43 4.57-2.71-1.11-3.8-2a11.71 11.71 0 01-4.07-6.42" style="transform-origin:149.378px 178.183px" id="el2s2cp1nr4bi" fill="#ffbda7" class="animable" />
		<g id="freepik--character--inject-1--inject-119" class="animable" style="transform-origin:80.5434px 227.566px">
			<path d="M48.53 333.43a49.81 49.81 0 00-.76 8c-.09 4.84-1 6.55-1.09 10.52-.14 4.53.65 6.23 2.49 8.78s6.66 4.86 8.7.55 1.78-7.13 1.13-11.58-.76-7.13-1.15-10.64c-.35-3.09-.76-5.44-.76-5.44z" style="transform-origin:53.0677px 348.556px" id="el38s27pjwuv4" fill="#263238" class="animable" />
			<path d="M62.26 295.41l-15.93-.29c.24 10.63 1.93 28.33 2.2 38.31 0 1.87 0 14.59.66 18.45 1.07 5.81 8 5 8.32 1.55s-.44-18.32-.42-19.85C57 327.18 60 310.49 61.6 299c.08-.56.58-3 .66-3.59z" style="transform-origin:54.295px 325.627px" id="elve8dnxoboqa" fill="#ffbda7" class="animable" />
			<path d="M85.67 325.15s-.83.05-1 .72-.19 2.06-.52 3.37a19.28 19.28 0 00-.57 6.31c.28 1.48 3.67 3.69 6 4.08s5.58 2.68 7.4 4.39a17.85 17.85 0 0010.3 4.05c3.87 0 6.56-1.29 7.84-3.36s-1.16-2.32-5.59-5.19l-3.43-2.23c-7-4.58-9.57-7-11.55-11.61z" style="transform-origin:99.4928px 336.61px" id="eladebb210a5g" fill="#263238" class="animable" />
			<path d="M94.64 322.66c-.12-3.29 1.56-27.54 1.56-27.54l-13.7 1.54c3.24 19.34 3.5 25.92 3.14 28.73a2.74 2.74 0 00-.09.81c0 3.76 4.25 5.79 7.56 8.29 1.31 1 4.66 4 8.6 5.38 2.54.86 7.25 1.19 7.85-.35-4-3.08-9.5-7.09-12.7-10.6-1.53-1.68-2.11-2.92-2.22-6.26z" style="transform-origin:96.03px 317.858px" id="elsxc0f20lfvi" fill="#ffbda7" class="animable" />
			<path d="M53.38 192.75c-7.22 16.43-3.09 65.87-3.09 65.87-.22 2.65-3.25 7.86-4.38 19.52-1.33 13.78 2.46 50.65 2.46 50.65s3.64 2.72 8.92.19c0 0 9.64-54.18 11.37-67.88 1.51-12 5.73-36.78 5.73-36.78l6.9 36.68a71.38 71.38 0 00-2.61 11.79c-.78 8.06 7.07 48.49 7.07 48.49s3.67 1.94 8.88-.17c0 0 3.48-52.24 4.21-61.94 1.22-16.3-3.11-67.15-6.1-76.8z" style="transform-origin:72.3392px 256.214px" id="el4ikr65ujkvi" fill="#455a64" class="animable" />
			<path d="M74.39 224.32l1.77-12.17s10.27-1.37 14.93-5.75A16.86 16.86 0 0179 214.05l-1.82 11L80.31 257z" style="transform-origin:82.74px 231.7px" id="elyvsrur8gi6p" class="animable" opacity=".6" />
			<path d="M94.08 136.7H66.35a14.5 14.5 0 01-14.5-14.5v-9.94a20 20 0 0119.95-20h2.33a20 20 0 0120 20z" style="transform-origin:72.99px 114.48px" id="el8b7cqdmyddd" fill="#37474f" class="animable" />
			<path d="M65.29 139.16c-3.07.21-5.5.64-7.05 1.51a8.8 8.8 0 00-4.86 8.25c-.05 4.2 1 6.89 2.25 13.8l2.5 13.28s-2.3 9.2-5.81 19c12.3 6.87 26.9 5.92 35.57 2.2a16.91 16.91 0 006.74-4.76c.21-1.42-1.55-15.05-1.55-22.67 2.9-7.29 3.11-8.88 1.89-13.69-2.28-8.95-11.11-17.66-15-17.34z" style="transform-origin:73.9966px 169.408px" id="el0h8tcvl4irj" fill="#f5f5f5" class="animable" />
			<path d="M86.37 197.79c-26.32 1.86-27.65-15.3-26.15-17.93s4.5 0 4.5 0S59 168.85 60 165.27c2-6.62 2.35-17.3 2.35-17.3l-6.71-5.33a9 9 0 00-2.3 6.28c-.05 4.2 1 6.89 2.24 13.8L58.13 176s-2.3 9.2-5.81 19a42.85 42.85 0 0034.05 2.79z" style="transform-origin:69.345px 171.359px" id="elrzu6zhvd1k" fill="#ebebeb" class="animable" />
			<path d="M59.11 91.45l1.37 5.23a2.63 2.63 0 01-3.33-1.83 2.84 2.84 0 011.96-3.4z" style="transform-origin:58.7744px 94.1256px" id="elf2w3aoknhzo" fill="#37474f" class="animable" />
			<path d="M55 93.79l4.51 3a2.62 2.62 0 01-3.69.87 2.84 2.84 0 01-.82-3.87z" style="transform-origin:57.0368px 95.9373px" id="elee8xhuxkwg8" fill="#37474f" class="animable" />
			<path d="M86.71 101.28c2.23 1.32 5 6.93 4.71 18.69-.23 10-3.46 12.43-5.08 13.14s-4.75.27-7.79-.23v6s4.2 4.88 3.94 7.62-6.07 3.39-10 .71a25.44 25.44 0 01-6.49-6.77v-15.5s-2 2.23-5.34 0a5.75 5.75 0 01-1.11-8.59 4 4 0 016.45 1.79s4.85.18 11.31-3.37a18.15 18.15 0 009.4-13.49z" style="transform-origin:74.7737px 125.1px" id="el31r01l6o2pj" fill="#ffbda7" class="animable" />
			<path d="M79.18 117.47a1.25 1.25 0 11-2.5.11 1.25 1.25 0 112.5-.11z" style="transform-origin:77.93px 117.525px" id="elm8mpw2qo9ek" fill="#263238" class="animable" />
			<path d="M80.63 125.91l2.91.93a1.51 1.51 0 01-1.89 1 1.61 1.61 0 01-1.02-1.93z" style="transform-origin:82.0582px 126.909px" id="elub2ab6bqwxc" fill="#f0997a" class="animable" />
			<path d="M89.46 113.62l-2.54-1.76a1.48 1.48 0 012.11-.43 1.62 1.62 0 01.43 2.19z" style="transform-origin:88.3163px 112.39px" id="eldfaeusnfyt5" fill="#263238" class="animable" />
			<path d="M88.87 116.56a1.26 1.26 0 01-1.18 1.36 1.28 1.28 0 01-1.32-1.24 1.25 1.25 0 112.5-.12z" style="transform-origin:87.6214px 116.645px" id="elthrmhgvas9n" fill="#263238" class="animable" />
			<path style="transform-origin:84.835px 119.615px" id="elnim1jsubu8a" fill="#f0997a" d="M82.75 115.84l.2 7.55 3.97-1.23-4.17-6.32z" class="animable" />
			<path d="M78.55 132.88c-3.2-.42-9.8-2.32-10.82-4.92a6.74 6.74 0 002.27 3.32c2 1.69 8.51 3.59 8.51 3.59z" style="transform-origin:73.14px 131.415px" id="elsi0ip923fcb" fill="#f0997a" class="animable" />
		</g>
		<path d="M69.45 224.22a.5.5 0 01-.2.45l-.54.31-29.55-17.45a1.54 1.54 0 01-.69-1.2v-31l31 17.91z" style="transform-origin:53.97px 200.155px" id="el9m0f7hc5w3w" fill="#0092df" class="animable" />
		<path d="M69.45 224.22a.5.5 0 01-.2.45l-.54.31-29.55-17.45a1.54 1.54 0 01-.69-1.2v-31l31 17.91z" style="transform-origin:53.97px 200.155px" id="el1evrohlxj8a" class="animable" opacity=".6" />
		<path d="M68.93 224.52c0 .45-.31.62-.69.4l-29.6-17.09a1.55 1.55 0 01-.7-1.2v-31l31 17.91z" style="transform-origin:53.44px 200.323px" id="el44caweqk4x5" fill="#0092df" class="animable" />
		<path d="M68.93 224.52c0 .45-.31.62-.69.4l-29.6-17.09a1.55 1.55 0 01-.7-1.2v-31l31 17.91z" style="transform-origin:53.44px 200.323px" id="eli1u4lplgpk" class="animable" opacity=".5" />
		<path d="M37.53 183v23a1.52 1.52 0 00.7 1.21l27.29 15.76v3l2.65-1.53c.2 0 .35-.19.35-.48v-26.3l-31-17.9-2.89 1.67z" style="transform-origin:51.575px 202.865px" id="eluqxjaexto4" fill="#ebebeb" class="animable" />
		<path d="M65.62 225.52c0 .44-.31.62-.7.4l-29.59-17.09a1.52 1.52 0 01-.7-1.2v-26.31l31 17.91z" style="transform-origin:50.13px 203.667px" id="eldzsrv1yuspa" fill="#fff" class="animable" />
		<path style="transform-origin:51.57px 189.435px" id="elncxfmtf9vds" fill="#e6e6e6" d="M65.61 199.22l2.9-1.67-30.99-17.9-2.89 1.67 30.98 17.9z" class="animable" />
		<path d="M64.3 199.56a.84.84 0 01.2.18.68.68 0 01.2.36.19.19 0 010 .13c0 .24-.18.32-.42.18a.83.83 0 01-.27-.26.78.78 0 01-.16-.41.07.07 0 010-.05c.06-.2.23-.26.45-.13z" style="transform-origin:64.2784px 199.985px" id="eluxxfhbg7kg" fill="#263238" class="animable" />
		<path d="M62.89 198.54a1.9 1.9 0 00.24 1 1.22 1.22 0 00.9.63 1.41 1.41 0 00.67-.05.68.68 0 00-.2-.36.92.92 0 01-.62-.05 1.15 1.15 0 01-.59-1.15 3.81 3.81 0 011.72-3c.95-.55 1.72-.12 1.73 1l.39.23a1.47 1.47 0 000-.21 1.9 1.9 0 00-.23-1 1.25 1.25 0 00-.91-.62 1.77 1.77 0 00-1.18.27 4.17 4.17 0 00-1.92 3.31z" style="transform-origin:65.0112px 197.568px" id="el2gri16iq7zx" fill="#263238" class="animable" />
		<path d="M62.57 197.66l2.05 29.68.38-.22a.77.77 0 00.35-.6l-2.25-29.17z" style="transform-origin:63.96px 212.345px" id="elva3e250eyuc" fill="#0092df" class="animable" />
		<path d="M62.57 197.66l2.05 29.68.38-.22a.77.77 0 00.35-.6l-2.25-29.17z" style="transform-origin:63.96px 212.345px" id="el9n4ppx8lvhg" class="animable" opacity=".6" />
		<path d="M64.82 226.89c0 .45-.31.63-.69.4l-29.6-17.09a1.54 1.54 0 01-.69-1.2l-2.26-29.71 31 17.91z" style="transform-origin:48.2px 203.34px" id="elad8xcoj1w1" fill="#0092df" class="animable" />
		<path style="transform-origin:50.51px 186.25px" id="elvei2unlbna8" fill="#0092df" d="M69.45 193.22l-30.98-17.91-6.9 3.99 31 17.89 6.88-3.97z" class="animable" />
		<path style="transform-origin:50.51px 186.25px" id="el40y16fqku1i" d="M69.45 193.22l-30.98-17.91-6.9 3.99 31 17.89 6.88-3.97z" class="animable" opacity=".1" />
		<path d="M62 190.48a1.26 1.26 0 01.09 1.1 1.81 1.81 0 01-.82.88 4.22 4.22 0 01-3.85 0 2 2 0 01-.74-.69 1.44 1.44 0 01.74-2 4.22 4.22 0 013.85 0 1.9 1.9 0 01.73.7z" style="transform-origin:59.3469px 191.115px" id="eltfeh67x8zgn" fill="#455a64" class="animable" />
		<path d="M61 192.12a1 1 0 000-2 3.79 3.79 0 00-3.44 0 1 1 0 000 2 3.82 3.82 0 003.44 0z" style="transform-origin:59.28px 191.118px" id="eluop5sdqqgb" fill="#f5f5f5" class="animable" />
		<path d="M54.45 188.7l.52-.3a1.15 1.15 0 000-2.18l-13.43-7.76a4.22 4.22 0 00-3.79 0l-.52.3a1.16 1.16 0 000 2.19l13.44 7.75a4.13 4.13 0 003.78 0z" style="transform-origin:46.1031px 183.584px" id="eln917uoevqc8" fill="#f5f5f5" class="animable" />
		<path style="transform-origin:66.015px 195.435px" id="elhzuwzsawc27" fill="#0092df" d="M69.46 193.69l-6.86 3.96-.03-.46 6.88-3.97.01.47z" class="animable" />
		<path style="transform-origin:66.015px 195.435px" id="elmtyp6kfe6d9" d="M69.46 193.69l-6.86 3.96-.03-.46 6.88-3.97.01.47z" class="animable" opacity=".6" />
		<path d="M61.46 139.69c-7.26.12-11.11.56-13.76 10-2 7-6.83 23.6-8.22 30.57-.64 3.21.07 16 1.05 30.53.17 2.55.18 5.48 1.6 6.88 3.15 3.12 9.78 5.05 10.46 3l-4.07-2.35 1.89-34.7 8.36-23c-.5 1.76 6.23-13.62 2.69-20.93z" style="transform-origin:50.8645px 180.604px" id="elumxfxb1pji" fill="#ffbda7" class="animable" />
		<path d="M49.37 202.62c.25 1.65 1.91 4 3.17 6.21 1.06 1.83 1.82 5.16 2.33 5.73s-.84 1.71-2.52.28-2.23-3.17-2.86-4l.37 8.22-4.23-1z" style="transform-origin:50.3046px 210.84px" id="elh5jgipy5gcg" fill="#ffbda7" class="animable" />
	</g>
	<g id="freepik--speach-bubbles--inject-1--inject-119" class="animable animator-active" style="transform-origin:249.52px 78.0166px;animation:3s Infinite linear floating;animation-delay:0s">
		<path d="M167.8 113.21l-3.8-7.08 3-8.74V92l-9.27 5.35v5.35l4 6.9a.57.57 0 00.27.24z" style="transform-origin:162.765px 102.605px" id="eloajykk7xu8" fill="#0092df" class="animable" />
		<path d="M167.8 113.21l-3.8-7.08 3-8.74V92l-9.27 5.35v5.35l4 6.9a.57.57 0 00.27.24z" style="transform-origin:162.765px 102.605px" id="els60lu8yh9nf" class="animable" opacity=".2" />
		<path d="M189.93 49.52a6.12 6.12 0 00-2.78-4.81l-2.26-1.31a6.16 6.16 0 00-5.55 0l-34.69 20.06a6.13 6.13 0 00-2.78 4.81v38.17a6.16 6.16 0 002.78 4.81l2.26 1.31a6.18 6.18 0 005.56 0l11.15-6.45 4 6.89a.59.59 0 001.07-.11l4.2-12.12 14.28-8.28a6.12 6.12 0 002.78-4.81z" style="transform-origin:165.91px 78.0166px" id="el2n4eqhdsnfd" fill="#0092df" class="animable" />
		<path d="M141.87 106.44a6.13 6.13 0 002.78 4.81l2.26 1.31a6.2 6.2 0 005.08.22c-1.31.49-2.3-.24-2.3-1.83V72.79a5.69 5.69 0 01.81-2.74l-7.82-4.51a5.69 5.69 0 00-.81 2.73z" style="transform-origin:146.93px 89.3803px" id="eladlk0jgg61" class="animable" opacity=".2" />
		<path d="M189.84 48.73c-.32-1.18-1.4-1.56-2.68-.82L152.46 68a5.5 5.5 0 00-2 2.07l-7.82-4.51a5.68 5.68 0 012-2.07l34.69-20.09a6.18 6.18 0 015.56 0l2.27 1.31a6.12 6.12 0 012.68 4.02z" style="transform-origin:166.24px 56.4047px" id="elolhtqu9noj" fill="#fff" class="animable" opacity=".3" />
		<path d="M183.72 76.58a.59.59 0 00-.2 0l-2.65-.15a.44.44 0 01-.45-.44c0-.42.06-.83.06-1.24a9.58 9.58 0 00-.06-1.32 1.3 1.3 0 01.3-.78l3-3.59a.83.83 0 00.18-.74l-1.41-3.11a.27.27 0 00-.08-.1c-.12-.06-.29 0-.46.14l-3.16 2.89a.56.56 0 01-.69.12 4.89 4.89 0 00-1.36-.79.49.49 0 01-.32-.55l1-4.43a.28.28 0 00-.13-.32.56.56 0 00-.3 0l-3.09.31a.87.87 0 00-.68.47l-1.68 4.5a1.41 1.41 0 01-.68.66 14 14 0 00-1.91 1.11c-.26.17-.55.19-.67 0l-1.58-2.42c-.11-.17-.37-.13-.57.08l-3.4 3.59a.93.93 0 00-.27.75l.95 3.2a1.1 1.1 0 01-.17.78 26.13 26.13 0 00-1.57 2.71 1.22 1.22 0 01-.73.55l-2.91.7a1 1 0 00-.66.55l-1.46 4.93c-.08.23.09.43.36.44l2.65.15a.44.44 0 01.45.43 13.68 13.68 0 000 2.56 1.29 1.29 0 01-.29.79l-3 3.59a.83.83 0 00-.18.74l1.41 3.11a.28.28 0 00.09.1.2.2 0 00.11 0 .58.58 0 00.35-.16l3.16-2.9a.56.56 0 01.69-.11 5.27 5.27 0 001.36.78.51.51 0 01.32.56l-1 4.43a.28.28 0 00.13.31.44.44 0 00.29 0l3.09-.3a.85.85 0 00.68-.47l1.68-4.51a1.48 1.48 0 01.68-.65c.32-.15.65-.33 1-.52s.62-.38.94-.59.55-.19.66 0l1.58 2.42a.18.18 0 00.08.07.4.4 0 00.49-.15l3.41-3.59a.93.93 0 00.26-.74l-.95-3.2a1.1 1.1 0 01.17-.78 24.69 24.69 0 001.57-2.71 1.18 1.18 0 01.74-.55l2.9-.7a1 1 0 00.66-.55l1.43-4.94a.34.34 0 00-.16-.42zm-15.52 12H167a3.13 3.13 0 01-2.92-2 6.58 6.58 0 01-.47-2.53 13.9 13.9 0 013.84-8.8 10.92 10.92 0 012.34-1.9 8.26 8.26 0 01.78-.4 5 5 0 012.2-.46h.37a3.11 3.11 0 012.43 1.93c1.32 2.9-.19 8-3.36 11.32a8.85 8.85 0 01-4.01 2.88z" style="transform-origin:169.9px 80.817px" id="el9ej1rmgnoxt" fill="#fff" class="animable" />
		<path d="M331.24 113.21l3.76-7.08-3-8.74V92l9.27 5.35v5.35l-4 6.9a.52.52 0 01-.27.24z" style="transform-origin:336.255px 102.605px" id="elb5rneivgn3v" fill="#0092df" class="animable" />
		<path d="M331.24 113.21l3.76-7.08-3-8.74V92l9.27 5.35v5.35l-4 6.9a.52.52 0 01-.27.24z" style="transform-origin:336.255px 102.605px" id="ele25n5eelb5e" class="animable" opacity=".2" />
		<path d="M309.11 49.52a6.12 6.12 0 012.78-4.81l2.26-1.31a6.18 6.18 0 015.56 0l34.68 20.06a6.13 6.13 0 012.78 4.81v38.17a6.13 6.13 0 01-2.78 4.81l-2.26 1.31a6.16 6.16 0 01-5.55 0l-11.16-6.45-4 6.89a.59.59 0 01-1.07-.11l-4.2-12.12-14.28-8.28a6.12 6.12 0 01-2.78-4.81z" style="transform-origin:333.13px 78.0166px" id="ellil66gf4o7h" fill="#0092df" class="animable" />
		<path d="M357.17 106.44a6.13 6.13 0 01-2.78 4.81l-2.26 1.31a6.19 6.19 0 01-5.08.22c1.31.49 2.3-.24 2.3-1.83V72.79a5.69 5.69 0 00-.81-2.74l7.82-4.51a5.69 5.69 0 01.81 2.73z" style="transform-origin:352.11px 89.3807px" id="elzsh4ekqyq1q" class="animable" opacity=".2" />
		<path d="M309.2 48.73c.33-1.18 1.4-1.56 2.68-.82L346.58 68a5.5 5.5 0 011.95 2.07l7.82-4.51a5.6 5.6 0 00-2-2.07L319.71 43.4a6.18 6.18 0 00-5.56 0l-2.27 1.31a6.15 6.15 0 00-2.68 4.02z" style="transform-origin:332.775px 56.4047px" id="eljji1poizmjl" fill="#fff" class="animable" opacity=".3" />
		<path d="M332.88 99.38L328 96.53a1.4 1.4 0 01-.57-1.1v-2.08c0-.42.26-.62.57-.43l4.93 2.84a1.4 1.4 0 01.58 1.11v2.07c-.05.43-.31.62-.63.44z" style="transform-origin:330.47px 96.1478px" id="elct2czmmg3xq" fill="#fff" class="animable" />
		<path d="M326.55 78.57a4.7 4.7 0 01.88 1.79 2.33 2.33 0 01-1-1c-.06-.13-.25-.54-.09-.73s.14-.12.21-.06z" style="transform-origin:326.854px 79.4331px" id="elxojk22px8dl" fill="#fff" class="animable" />
		<path d="M330.42 77.68a.5.5 0 01.25.37 2 2 0 01-.25 1.26 3.38 3.38 0 01-.24-1.54c.03-.12.08-.18.24-.09z" style="transform-origin:330.428px 78.4733px" id="elo49zlypnvrg" fill="#fff" class="animable" />
		<path d="M334.29 83c.06 0 .11.1.18.27a.49.49 0 01-.09.62c-.2.18-.56.16-1-.13.37-.58.7-.76.91-.76z" style="transform-origin:333.961px 83.5029px" id="elcs9geihez74" fill="#fff" class="animable" />
		<path d="M322.67 74.54c0 8.21 5.08 12.5 5.08 15.81v1.39l5.35 3.1v-1.4c0-3.31 5.08-1.74 5.08-9.94 0-5.72-3.48-12.35-7.76-14.82s-7.75.15-7.75 5.86zm3.13 3.25c.22-.28.53-.27.87 0a6.22 6.22 0 011.42 2.77 2.09 2.09 0 00.74 0 2.56 2.56 0 001.2-.68 5.27 5.27 0 01-.47-2.67c.11-.47.44-.6.86-.35a1.92 1.92 0 01.86 1.34 2.9 2.9 0 01-.47 2.13 13.28 13.28 0 001.2 2.06 8.5 8.5 0 00.74.9c.42-.88.92-1.29 1.42-1.13a1.65 1.65 0 01.87 1 1.48 1.48 0 01-.14 1.68c-.36.32-1 .27-1.78-.33a11.81 11.81 0 00-.48 1.72 34.93 34.93 0 00-.64 6.59c0 .24-.14.35-.31.26a.77.77 0 01-.33-.61 35.65 35.65 0 01.66-6.81 13.82 13.82 0 01.47-1.72 9.36 9.36 0 01-.82-1 14.3 14.3 0 01-1.25-2.12 2.86 2.86 0 01-1.25.68 2.57 2.57 0 01-.82.06c.18.69.33 1.45.47 2.27a45.65 45.65 0 01.66 7.57c0 .23-.14.33-.32.23a.79.79 0 01-.32-.62 46.23 46.23 0 00-.64-7.34c-.15-.87-.31-1.62-.48-2.26a3.57 3.57 0 01-1.78-1.73 1.87 1.87 0 01-.14-1.89z" style="transform-origin:330.425px 81.2951px" id="elu3xp1twcjbc" fill="#fff" class="animable" />
		<path d="M330.42 65.69a1.78 1.78 0 01-.67-1.42V62c0-.57.3-.86.67-.64a1.74 1.74 0 01.67 1.41V65c0 .61-.3.9-.67.69z" style="transform-origin:330.42px 63.5221px" id="elkzt2el7xkzc" fill="#fff" class="animable" />
		<path d="M325.47 64.87a1.48 1.48 0 01-.58-.85l-.74-2.41c-.19-.6-.08-1.17.24-1.27s.73.31.92.91l.74 2.41c.18.6.07 1.16-.25 1.26a.37.37 0 01-.33-.05z" style="transform-origin:325.097px 62.6317px" id="el6mgl8zh1me" fill="#fff" class="animable" />
		<path d="M321.84 68.36a1.28 1.28 0 01-.33-.33l-1.29-1.89a1.75 1.75 0 01-.24-1.55c.18-.39.59-.32.91.15l1.29 1.89a1.75 1.75 0 01.24 1.55.38.38 0 01-.58.18z" style="transform-origin:321.2px 66.3845px" id="elquxaduus5n9" fill="#fff" class="animable" />
		<path d="M320.52 75.21l-1.52-.85a1.78 1.78 0 01-.67-1.42c0-.57.3-.86.67-.64l1.49.85a1.78 1.78 0 01.67 1.42c.03.57-.27.86-.64.64z" style="transform-origin:319.746px 73.755px" id="eluuzu156eelr" fill="#fff" class="animable" />
		<path d="M320.56 84a1.51 1.51 0 01-.58-.85c-.19-.6-.08-1.17.24-1.27l1.29-.4c.32-.1.73.31.91.9s.08 1.17-.24 1.27l-1.29.4a.44.44 0 01-.33-.05z" style="transform-origin:321.198px 82.7637px" id="eldcrzm1vuhew" fill="#fff" class="animable" />
		<path d="M340.28 95.39a1 1 0 01-.33-.33l-1.29-1.88a1.76 1.76 0 01-.24-1.55c.18-.39.59-.32.91.15l1.29 1.89a1.73 1.73 0 01.24 1.54.37.37 0 01-.58.18z" style="transform-origin:339.64px 93.4227px" id="elw7pc8wtwxzd" fill="#fff" class="animable" />
		<path d="M341.81 87.51l-1.49-.86a1.76 1.76 0 01-.66-1.42c0-.57.29-.85.66-.64l1.49.86a1.76 1.76 0 01.67 1.41c0 .57-.3.86-.67.65z" style="transform-origin:341.07px 86.0494px" id="elal4che0kty7" fill="#fff" class="animable" />
		<path d="M339 78.26a1.48 1.48 0 01-.58-.85c-.19-.6-.08-1.17.24-1.26l1.29-.41c.32-.1.73.31.91.91s.08 1.17-.24 1.26l-1.29.41a.4.4 0 01-.33-.06z" style="transform-origin:339.638px 77.0288px" id="elvjizoz8n6q9" fill="#fff" class="animable" />
		<path d="M335.37 70.59a1.08 1.08 0 01-.33-.34 1.77 1.77 0 01-.25-1.54l.75-1.56c.18-.38.59-.31.91.16a1.77 1.77 0 01.25 1.54l-.7 1.56a.38.38 0 01-.63.18z" style="transform-origin:335.745px 68.8001px" id="eltqu1d2o2jdg" fill="#fff" class="animable" />
	</g>
	<g id="freepik--Desk--inject-1--inject-119" class="animable" style="transform-origin:243.165px 317.981px">
		<g id="freepik--Table--inject-1--inject-119" class="animable" style="transform-origin:243.165px 317.981px">
			<path d="M250 344.76v77.62a2.21 2.21 0 001 1.74l2.14 1.24a2.22 2.22 0 002 0l2.14-1.24a2.21 2.21 0 001-1.74v-77.62c0-.64-.45-.9-1-.58l-2.14 1.24a2.22 2.22 0 01-2 0l-2.14-1.24c-.52-.32-1-.06-1 .58z" style="transform-origin:254.14px 384.821px" id="elk1zsi9jpmgk" fill="#37474f" class="animable" />
			<path d="M255.19 425.36l2.14-1.24a2.21 2.21 0 001-1.74v-77.62c0-.64-.45-.9-1-.58l-2.14 1.24a2.23 2.23 0 00-1 1.74v77.62c0 .64.45.9 1 .58z" style="transform-origin:256.26px 384.77px" id="elipbrzncuydo" fill="#455a64" class="animable" />
			<path d="M136.74 279.37V357a2.21 2.21 0 001 1.74l2.14 1.23a2.16 2.16 0 002 0l2.14-1.23a2.21 2.21 0 001-1.74v-77.63c0-.64-.45-.9-1-.58L141.9 280a2.22 2.22 0 01-2 0l-2.14-1.23c-.57-.3-1.02-.04-1.02.6z" style="transform-origin:140.88px 319.431px" id="elr4lgh6cqbg" fill="#37474f" class="animable" />
			<path d="M141.9 360l2.14-1.23a2.21 2.21 0 001-1.74v-77.66c0-.64-.45-.9-1-.58L141.9 280a2.22 2.22 0 00-1 1.75v77.61c-.01.64.44.93 1 .64z" style="transform-origin:142.97px 319.383px" id="elxdhtzp9oaad" fill="#455a64" class="animable" />
			<path d="M347.58 288.41V366a2.24 2.24 0 001 1.74l2.14 1.24a2.22 2.22 0 002 0l2.14-1.24a2.21 2.21 0 001-1.74v-77.59c0-.64-.45-.9-1-.58l-2.14 1.23a2.22 2.22 0 01-2 0l-2.14-1.23c-.58-.32-1-.06-1 .58z" style="transform-origin:351.72px 328.456px" id="elej25fh1x4zq" fill="#37474f" class="animable" />
			<path d="M352.74 369l2.14-1.24a2.21 2.21 0 001-1.74v-77.61c0-.64-.45-.9-1-.58l-2.14 1.23a2.25 2.25 0 00-1 1.75v77.61c0 .65.45.91 1 .58z" style="transform-origin:353.81px 328.418px" id="el7ii0jpt23z5" fill="#455a64" class="animable" />
			<g id="freepik--desk--inject-1--inject-119" class="animable" style="transform-origin:243.165px 285.182px">
				<path d="M116.88 286.46v-.73a4 4 0 011.84-3.17l124.22-71.75a4 4 0 013.67 0l121 69.85a4 4 0 011.84 3.17v.73a4 4 0 01-1.84 3.17l-124.19 71.76a4.09 4.09 0 01-3.67 0l-121-69.85a4.05 4.05 0 01-1.87-3.18z" style="transform-origin:243.165px 285.144px" id="elkdvg2qey50a" fill="#0092df" class="animable" />
				<g style="transform-origin:243.165px 285.144px" id="elqpg8eddtp3" class="animable" opacity=".65">
					<path d="M116.88 286.46v-.73a4 4 0 011.84-3.17l124.22-71.75a4 4 0 013.67 0l121 69.85a4 4 0 011.84 3.17v.73a4 4 0 01-1.84 3.17l-124.19 71.76a4.09 4.09 0 01-3.67 0l-121-69.85a4.05 4.05 0 01-1.87-3.18z" style="transform-origin:243.165px 285.144px" id="ele76svkrgh19" fill="#fff" class="animable" />
				</g>
				<path d="M241.59 355v5a3.91 3.91 0 01-1.84-.44l-121-69.85a4 4 0 01-1.83-3.17v-.74a4 4 0 011.49-2.93c-.66.56-.55 1.35.34 1.88l121 69.85a3.68 3.68 0 001.84.4z" style="transform-origin:179.255px 321.435px" id="elf6q8wqd6oxn" fill="#0092df" class="animable" />
				<g style="transform-origin:179.255px 321.435px" id="elnq57239tsqk" class="animable" opacity=".5">
					<path d="M241.59 355v5a3.91 3.91 0 01-1.84-.44l-121-69.85a4 4 0 01-1.83-3.17v-.74a4 4 0 011.49-2.93c-.66.56-.55 1.35.34 1.88l121 69.85a3.68 3.68 0 001.84.4z" style="transform-origin:179.255px 321.435px" id="elr83886ehwii" fill="#fff" class="animable" />
				</g>
				<path d="M118.72 284.67l121 69.86a4.09 4.09 0 003.67 0l124.22-71.76a1.11 1.11 0 000-2.11l-121-69.85a4 4 0 00-3.67 0l-124.22 71.75a1.11 1.11 0 000 2.11z" style="transform-origin:243.165px 282.665px" id="elv3g1grych3m" fill="#0092df" class="animable" />
				<g style="transform-origin:243.165px 282.665px" id="elybqspcvjg6" class="animable" opacity=".8">
					<path d="M118.72 284.67l121 69.86a4.09 4.09 0 003.67 0l124.22-71.76a1.11 1.11 0 000-2.11l-121-69.85a4 4 0 00-3.67 0l-124.22 71.75a1.11 1.11 0 000 2.11z" style="transform-origin:243.165px 282.665px" id="elyf5rw0n4dx8" fill="#fff" class="animable" />
				</g>
				<path style="transform-origin:332.125px 273.14px" id="freepik--shadow--inject-1--inject-119" fill="#455a64" d="M332.21 274.36l2.07-2.44-4.31 1.15" class="animable" opacity=".1" />
			</g>
		</g>
		<g id="freepik--green-laptop--inject-1--inject-119" class="animable" style="transform-origin:289.551px 254.43px">
			<path d="M258.05 256.08v.58a2.43 2.43 0 001.2 2.08l41.88 24.17a2.31 2.31 0 001.19.32 2.38 2.38 0 001.21-.32l22.82-13.14a2.39 2.39 0 001.2-2.07v-.8a.32.32 0 01-.15.27l-25.07 14.47z" style="transform-origin:292.8px 269.655px" id="elcgx6o5ff8xd" fill="#0092df" class="animable" />
			<g style="transform-origin:292.8px 269.655px" id="el237tvhk4efl" class="animable" opacity=".3">
				<path id="elltwkc7wgx2" d="M258.05 256.08v.58a2.43 2.43 0 001.2 2.08l41.88 24.17a2.31 2.31 0 001.19.32 2.38 2.38 0 001.21-.32l22.82-13.14a2.39 2.39 0 001.2-2.07v-.8a.32.32 0 01-.15.27l-25.07 14.47z" class="animable" style="transform-origin:292.8px 269.655px" />
			</g>
			<path d="M258.05 256.08l24.83-14.34a1.46 1.46 0 011.43 0l43.08 24.88a.32.32 0 010 .55l-25.07 14.47z" style="transform-origin:292.798px 261.596px" id="elymg2n6vryag" fill="#0092df" class="animable" />
			<path d="M258.05 256.08l24.83-14.34a1.46 1.46 0 011.43 0l43.08 24.88a.32.32 0 010 .55l-25.07 14.47z" style="transform-origin:292.798px 261.596px" id="el2cj0ge6ozla" fill="#0092df" class="animable" />
			<g style="transform-origin:292.798px 261.596px" id="eldob7bxdz3kh" class="animable" opacity=".2">
				<path id="eldh92xyf7ds" d="M258.05 256.08l24.83-14.34a1.46 1.46 0 011.43 0l43.08 24.88a.32.32 0 010 .55l-25.07 14.47z" class="animable" style="transform-origin:292.798px 261.596px" />
			</g>
			<g style="transform-origin:289.635px 264.365px" id="elgg7xbmicm5v" class="animable" opacity=".3">
				<path id="elj4l2nhbsxn" class="animable" style="transform-origin:289.635px 264.365px" d="M302.55 279.53l13.4-7.72-39.17-22.61-13.46 7.68 39.23 22.65z" />
			</g>
			<path style="transform-origin:289.63px 260.645px" id="eliyswyuv7bym" fill="#0092df" d="M263.32 256.88l.51.3 12.95-7.4 38.65 22.32.51-.29-39.16-22.62-13.46 7.69z" class="animable" />
			<g style="transform-origin:289.63px 260.645px" id="elt3sgc28lm1l" class="animable" opacity=".6">
				<path id="ellvvtfqw0pth" class="animable" style="transform-origin:289.63px 260.645px" d="M263.32 256.88l.51.3 12.95-7.4 38.65 22.32.51-.29-39.16-22.62-13.46 7.69z" />
			</g>
			<g style="transform-origin:299.775px 256.57px" id="elhb1rkbsc1qf" class="animable" opacity=".6">
				<path id="el5mi8ke4sb" class="animable" style="transform-origin:299.775px 256.57px" d="M309.14 258.04l-.25.15-6.57 3.79-11.67-6.74-.24-.14 6.81-3.94 11.92 6.88z" />
			</g>
			<path style="transform-origin:299.77px 256.71px" id="elm8y8xlx4p8n" fill="#0092df" d="M308.89 258.19l-6.57 3.79-11.67-6.74 6.57-3.8 11.67 6.75z" class="animable" />
			<g style="transform-origin:299.77px 256.71px" id="elz8l2zjtxqvp" class="animable" opacity=".5">
				<path id="el1yryqlfxpjd" class="animable" style="transform-origin:299.77px 256.71px" d="M308.89 258.19l-6.57 3.79-11.67-6.74 6.57-3.8 11.67 6.75z" />
			</g>
			<path d="M302.32 281.64v1.59a2.31 2.31 0 01-1.19-.32l-41.88-24.18a2.38 2.38 0 01-1.2-2.07v-.58z" style="transform-origin:280.185px 269.655px" id="elfvkxswopdgh" fill="#0092df" class="animable" />
			<path d="M302.32 281.64v1.59a2.31 2.31 0 01-1.19-.32l-41.88-24.18a2.38 2.38 0 01-1.2-2.07v-.58z" style="transform-origin:280.185px 269.655px" id="elgucuqk6q6d" fill="#0092df" class="animable" />
			<g style="transform-origin:280.185px 269.655px" id="el658cm65cqn4" class="animable" opacity=".6">
				<path id="elxr20tenv2n" d="M302.32 281.64v1.59a2.31 2.31 0 01-1.19-.32l-41.88-24.18a2.38 2.38 0 01-1.2-2.07v-.58z" class="animable" style="transform-origin:280.185px 269.655px" />
			</g>
			<path d="M301.65 282a2.82 2.82 0 01-2.45-.19l-41.69-24.07a2.81 2.81 0 01-1.38-2l-4.57-27.22a3.71 3.71 0 010-.47 2.88 2.88 0 01.83-2l43.34 25a2.11 2.11 0 011 1.46z" style="transform-origin:276.601px 254.122px" id="elj8hri3ajoal" fill="#0092df" class="animable" />
			<path d="M302.32 281.64l-.28.16a2.33 2.33 0 01-.39.19l-4.93-29.46a2.11 2.11 0 00-1-1.46l-43.34-25a3.68 3.68 0 01.58-.44l43.42 25.07a2.1 2.1 0 011 1.47z" style="transform-origin:277.35px 253.81px" id="elglf2836fvlg" fill="#0092df" class="animable" />
			<g style="transform-origin:277.35px 253.81px" id="els1d9ld3dy0i" class="animable" opacity=".1">
				<path id="elyaf119lb6go" d="M302.32 281.64l-.28.16a2.33 2.33 0 01-.39.19l-4.93-29.46a2.11 2.11 0 00-1-1.46l-43.34-25a3.68 3.68 0 01.58-.44l43.42 25.07a2.1 2.1 0 011 1.47z" class="animable" style="transform-origin:277.35px 253.81px" />
			</g>
			<path d="M296.31 251.62l.67-.39a2.14 2.14 0 01.4.91l4.94 29.5-.28.16a2.33 2.33 0 01-.39.19l-4.93-29.46a2.21 2.21 0 00-.41-.91z" style="transform-origin:299.315px 266.61px" id="elb8uz3blp6kh" class="animable" opacity=".25" />
			<g style="transform-origin:274.515px 254.762px" id="ellvyrtmnhtvr" class="animable" opacity=".3">
				<path id="elzo4zald2d6e" d="M278.16 256.86c-.3-1.82-2.18-4.24-4.2-5.4s-3.4-.63-3.09 1.19 2.18 4.24 4.2 5.41 3.4.63 3.09-1.2z" class="animable" style="transform-origin:274.515px 254.762px" />
			</g>
		</g>
		<g id="freepik--black-laptop--inject-1--inject-119" class="animable" style="transform-origin:195.587px 253.005px">
			<path d="M158.69 265.11v.79a2.32 2.32 0 001.15 2L182 280.67a2.29 2.29 0 001.16.31 2.33 2.33 0 001.17-.31L225 257.19a2.35 2.35 0 001.17-2v-.56l-43 24.83-24.34-14.06a.3.3 0 01-.14-.29z" style="transform-origin:192.429px 267.805px" id="eltp2j8cr1m5p" fill="#37474f" class="animable" />
			<path d="M226.18 254.61l-24.11-13.93a1.43 1.43 0 00-1.39 0l-41.84 24.16a.31.31 0 000 .54l24.34 14.06z" style="transform-origin:192.431px 259.97px" id="elx9s5zfifzam" fill="#455a64" class="animable" />
			<g style="transform-origin:192.431px 259.97px" id="elyqgzt2b4wx" class="animable" opacity=".2">
				<path d="M226.18 254.61l-24.11-13.93a1.43 1.43 0 00-1.39 0l-41.84 24.16a.31.31 0 000 .54l24.34 14.06z" style="transform-origin:192.431px 259.97px" id="el5d0rzrerqpd" fill="#263238" class="animable" />
			</g>
			<path style="transform-origin:195.51px 262.655px" id="elo6ot08xnj4f" fill="#263238" d="M182.96 277.39l-13.01-7.51 38.04-21.96 13.08 7.47-38.11 22z" class="animable" />
			<path style="transform-origin:185.665px 255.085px" id="elaqvqgtbdqv" fill="#263238" d="M176.57 256.52l.24.13 6.37 3.68 11.34-6.54.24-.14-6.62-3.81-11.57 6.68z" class="animable" />
			<path style="transform-origin:185.665px 255.22px" id="elrisxbap80me" fill="#37474f" d="M176.81 256.65l6.37 3.68 11.34-6.54-6.38-3.68-11.33 6.54z" class="animable" />
			<g style="transform-origin:185.665px 255.22px" id="el3tq6u458jii" class="animable" opacity=".5">
				<path style="transform-origin:185.665px 255.22px" id="el47052wt9m43" fill="#263238" d="M176.81 256.65l6.37 3.68 11.34-6.54-6.38-3.68-11.33 6.54z" class="animable" />
			</g>
			<path d="M183.18 279.43V281a2.27 2.27 0 001.16-.31l40.66-23.5a2.34 2.34 0 001.16-2v-.56z" style="transform-origin:204.67px 267.815px" id="elx3hvtw7map" fill="#37474f" class="animable" />
			<g style="mix-blend-mode:multiply;transform-origin:204.67px 267.815px" id="el0cbrt5v0iyok" class="animable" opacity=".5">
				<path d="M183.18 279.43V281a2.27 2.27 0 001.16-.31l40.66-23.5a2.34 2.34 0 001.16-2v-.56z" style="transform-origin:204.67px 267.815px" id="el9umopk0pqul" fill="#263238" class="animable" />
			</g>
			<path d="M183.84 279.78a2.75 2.75 0 002.37-.19l40.5-23.38a2.75 2.75 0 001.34-1.92l4.43-26.44a2.28 2.28 0 000-.45 2.73 2.73 0 00-.82-2l-42.08 24.3a2.05 2.05 0 00-1 1.42z" style="transform-origin:208.166px 252.682px" id="el4011llq6313" fill="#455a64" class="animable" />
			<g style="transform-origin:208.166px 252.682px" id="elw2z4ly1v4ed" class="animable" opacity=".2">
				<path d="M183.84 279.78a2.75 2.75 0 002.37-.19l40.5-23.38a2.75 2.75 0 001.34-1.92l4.43-26.44a2.28 2.28 0 000-.45 2.73 2.73 0 00-.82-2l-42.08 24.3a2.05 2.05 0 00-1 1.42z" style="transform-origin:208.166px 252.682px" id="el5zb435gulce" fill="#263238" class="animable" />
			</g>
			<path d="M183.18 279.44l.28.15c.12.07.25.13.38.19l4.79-28.62a2.05 2.05 0 011-1.42l42.08-24.3a2.68 2.68 0 00-.56-.43L189 249.36a2.06 2.06 0 00-1 1.42z" style="transform-origin:207.445px 252.395px" id="elzptby9xi7zo" fill="#455a64" class="animable" />
			<path d="M188.63 251.14l-4.79 28.61a2.64 2.64 0 01-.38-.18l-.28-.16 4.8-28.65a2 2 0 01.32-.79l.65.38a2 2 0 00-.32.79z" style="transform-origin:186.065px 264.86px" id="el94he9s4tyl7" fill="#263238" class="animable" opacity=".5" />
			<path d="M206.65 255.37a8.9 8.9 0 014.08-5.25c2-1.13 3.3-.61 3 1.16a9 9 0 01-4.09 5.25c-1.94 1.13-3.29.61-2.99-1.16z" style="transform-origin:210.191px 253.325px" id="ell7x19vq8xzs" fill="#0092df" class="animable" />
		</g>
		<g id="freepik--Notebooks--inject-1--inject-119" class="animable" style="transform-origin:156.608px 286.09px">
			<path d="M153.33 273.92L134.21 284l-.4.61v.5a.72.72 0 00.4.62l25.2 14.55a1.42 1.42 0 001.31 0l18.69-10.79V289z" style="transform-origin:156.61px 287.18px" id="el7642vc4mxx5" fill="#263238" class="animable" />
			<path d="M160.06 299.93a1.25 1.25 0 01-.65-.16l-25.2-14.55a.67.67 0 010-1.23l18.28-10.56L179.41 289l-18.69 10.79a1.27 1.27 0 01-.66.14z" style="transform-origin:156.608px 286.681px" id="elc859kb1axi5" fill="#455a64" class="animable" />
			<path d="M152.49 272l-18.08 10.4-.18.26v1.94a.31.31 0 00.18.26l25.21 14.55a.94.94 0 00.89 0L178.59 289v-2z" style="transform-origin:156.41px 285.761px" id="el7dd3r3s8zem" fill="#ebebeb" class="animable" />
			<path d="M178.59 287l-.23.13-2.94 1.7-.55.32-14.36 8.28a.94.94 0 01-.89 0l-25.21-14.55a.28.28 0 010-.52l.24-.13L152.49 272l25.87 14.94h.06z" style="transform-origin:156.412px 284.771px" id="elr9vrz1mly0h" fill="#f0f0f0" class="animable" />
			<path d="M160.06 297.58v1.94a.8.8 0 01-.44-.11l-25.21-14.55a.31.31 0 01-.18-.26v-1.94a.31.31 0 00.18.26l25.21 14.55a.8.8 0 00.44.11z" style="transform-origin:147.145px 291.09px" id="el8jdbukay55v" fill="#e0e0e0" class="animable" />
			<path d="M178.59 286.78l-3.26 1.88-.51.29-14.31 8.26a.94.94 0 01-.89 0l-22.57-13-.57-.32a5.64 5.64 0 01-1.83-1.59.43.43 0 000-.07.35.35 0 01-.06-.14.41.41 0 01.32-.45 8 8 0 001.7-.71l15.9-9.18z" style="transform-origin:156.589px 284.536px" id="el0m8vb9dz3qm" fill="#fff" class="animable" />
			<path d="M175.22 286.55a.26.26 0 000 .49 1 1 0 00.84 0 .26.26 0 000-.49 1 1 0 00-.84 0z" style="transform-origin:175.64px 286.795px" id="elm4ln56i49zi" class="animable" opacity=".1" />
			<path d="M177.91 285a1.13 1.13 0 00-1.13.08 3.48 3.48 0 00-1.41 2 1 1 0 00.3 0 3.16 3.16 0 011.27-1.81 1.11 1.11 0 01.51-.16.68.68 0 01.31.08 1.19 1.19 0 01.42 1 2.09 2.09 0 010 .25l.29.17a3 3 0 000-.42 1.45 1.45 0 00-.56-1.19z" style="transform-origin:176.924px 285.988px" id="elw9nk4byind" fill="#263238" class="animable" />
			<path d="M178.43 286.87v.07h-.06z" style="transform-origin:178.4px 286.905px" id="el8l3bgnthsgy" fill="#263238" class="animable" />
			<path d="M172.69 285.09c-.23.14-.23.36 0 .49a1 1 0 00.84 0c.23-.13.23-.35 0-.49a1 1 0 00-.84 0z" style="transform-origin:173.11px 285.335px" id="elgrob59hr6f" class="animable" opacity=".1" />
			<path d="M175.39 283.52a1.13 1.13 0 00-1.13.08 3.57 3.57 0 00-1.42 2 1.06 1.06 0 00.31 0 3.18 3.18 0 011.26-1.81 1.15 1.15 0 01.52-.16.61.61 0 01.3.08 1.16 1.16 0 01.42 1 2.09 2.09 0 010 .25l.29.17a2 2 0 000-.42 1.47 1.47 0 00-.55-1.19z" style="transform-origin:174.396px 284.508px" id="elh5uvksuxwm8" fill="#263238" class="animable" />
			<path d="M170.17 283.64a.25.25 0 000 .48.87.87 0 00.83 0c.24-.13.24-.35 0-.48a.87.87 0 00-.83 0z" style="transform-origin:170.585px 283.88px" id="el3txvg6f3b4i" class="animable" opacity=".1" />
			<path d="M172.86 282.06a1.13 1.13 0 00-1.13.08 3.57 3.57 0 00-1.42 2 .83.83 0 00.31 0 3.19 3.19 0 011.27-1.81 1.06 1.06 0 01.51-.15.6.6 0 01.3.07 1.16 1.16 0 01.43 1 2 2 0 010 .25l.3.17a3 3 0 000-.42 1.45 1.45 0 00-.57-1.19z" style="transform-origin:171.874px 283.05px" id="eln5vxo5aeg9" fill="#263238" class="animable" />
			<path d="M167.64 282.18a.25.25 0 000 .48.89.89 0 00.84 0 .25.25 0 000-.48.89.89 0 00-.84 0z" style="transform-origin:168.06px 282.42px" id="el1z1ikzi8r3a" class="animable" opacity=".1" />
			<path d="M170.33 280.61a1.07 1.07 0 00-1.12.08 3.46 3.46 0 00-1.42 2 .78.78 0 00.31 0 3.12 3.12 0 011.26-1.8 1 1 0 01.52-.16.52.52 0 01.3.08 1.13 1.13 0 01.42 1 2 2 0 010 .25l.29.17a3 3 0 000-.42 1.43 1.43 0 00-.56-1.2z" style="transform-origin:169.344px 281.597px" id="ely8xbo74bcn9" fill="#263238" class="animable" />
			<path d="M165.12 280.72c-.23.13-.23.35 0 .49a.93.93 0 00.83 0c.24-.14.24-.36 0-.49a.93.93 0 00-.83 0z" style="transform-origin:165.539px 280.965px" id="eli9xh0ferr6" class="animable" opacity=".1" />
			<path d="M167.81 279.15a1.09 1.09 0 00-1.13.08 3.5 3.5 0 00-1.42 2 .82.82 0 00.31 0 3.13 3.13 0 011.27-1.8 1 1 0 01.51-.16.61.61 0 01.3.08 1.14 1.14 0 01.43 1 2.29 2.29 0 010 .25l.3.17a3.19 3.19 0 000-.42 1.43 1.43 0 00-.57-1.2z" style="transform-origin:166.823px 280.137px" id="el5jzbdv2z2c6" fill="#263238" class="animable" />
			<path d="M162.59 279.26a.26.26 0 000 .49 1 1 0 00.84 0 .26.26 0 000-.49 1 1 0 00-.84 0z" style="transform-origin:163.01px 279.505px" id="elujwp2e51pwq" class="animable" opacity=".1" />
			<path d="M165.28 277.69a1.11 1.11 0 00-1.13.08 3.52 3.52 0 00-1.41 2 1 1 0 00.31 0 3.11 3.11 0 011.26-1.81 1 1 0 01.51-.16.65.65 0 01.31.08 1.15 1.15 0 01.42 1 2.18 2.18 0 010 .25l.29.17a3.07 3.07 0 000-.42 1.43 1.43 0 00-.56-1.19z" style="transform-origin:164.294px 278.677px" id="elppuk721hijb" fill="#263238" class="animable" />
			<path d="M160.06 277.8c-.23.14-.23.36 0 .49a1 1 0 00.84 0c.23-.13.23-.35 0-.49a1 1 0 00-.84 0z" style="transform-origin:160.48px 278.045px" id="elhdbuh66mrzr" class="animable" opacity=".1" />
			<path d="M162.76 276.23a1.13 1.13 0 00-1.13.08 3.54 3.54 0 00-1.42 2 1.06 1.06 0 00.31 0 3.15 3.15 0 011.26-1.81 1.15 1.15 0 01.52-.16.61.61 0 01.3.08 1.16 1.16 0 01.43 1 2.11 2.11 0 010 .25l.3.17a3 3 0 000-.42 1.45 1.45 0 00-.57-1.19z" style="transform-origin:161.774px 277.218px" id="el6t39uqw1w7n" fill="#263238" class="animable" />
			<path d="M157.54 276.35a.25.25 0 000 .48.89.89 0 00.84 0 .25.25 0 000-.48.89.89 0 00-.84 0z" style="transform-origin:157.96px 276.59px" id="elrfq73h89cga" class="animable" opacity=".1" />
			<path d="M160.23 274.77a1.13 1.13 0 00-1.13.08 3.51 3.51 0 00-1.41 2 .75.75 0 00.3 0 3.19 3.19 0 011.27-1.81 1.08 1.08 0 01.51-.16.61.61 0 01.3.08 1.16 1.16 0 01.43 1 2.09 2.09 0 010 .25l.29.17a3 3 0 000-.42 1.45 1.45 0 00-.56-1.19z" style="transform-origin:159.244px 275.76px" id="elgtrxdswsti5" fill="#263238" class="animable" />
			<path d="M155 274.89a.25.25 0 000 .48.89.89 0 00.84 0 .25.25 0 000-.48.89.89 0 00-.84 0z" style="transform-origin:155.42px 275.13px" id="elabtg3fasxzk" class="animable" opacity=".1" />
			<path d="M157.7 273.32a1.09 1.09 0 00-1.12.07 3.57 3.57 0 00-1.42 2 .8.8 0 00.31 0 3.18 3.18 0 011.26-1.81 1.12 1.12 0 01.52-.15.6.6 0 01.3.07 1.16 1.16 0 01.42 1 2 2 0 010 .25l.29.17a3 3 0 000-.42 1.43 1.43 0 00-.56-1.18z" style="transform-origin:156.714px 274.301px" id="eldoczz0unpdw" fill="#263238" class="animable" />
			<path d="M152.49 273.43a.25.25 0 000 .48.87.87 0 00.83 0c.24-.13.24-.35 0-.48a.87.87 0 00-.83 0z" style="transform-origin:152.905px 273.67px" id="elspvp13kgznp" class="animable" opacity=".1" />
			<path d="M155.18 271.86a1.09 1.09 0 00-1.13.08 3.5 3.5 0 00-1.42 2 .82.82 0 00.31 0 3.13 3.13 0 011.27-1.8 1 1 0 01.51-.16.52.52 0 01.3.08 1.14 1.14 0 01.43 1 1.94 1.94 0 010 .24l.3.17a2.93 2.93 0 000-.41 1.43 1.43 0 00-.57-1.2z" style="transform-origin:154.194px 272.847px" id="el3rbdc6sqs2e" fill="#263238" class="animable" />
			<path d="M157.54 294.61a.28.28 0 01-.14-.53l13.9-8a.28.28 0 01.39.1.28.28 0 01-.11.39l-13.9 8a.32.32 0 01-.14.04z" style="transform-origin:164.487px 290.324px" id="el0na6zx6iimq" fill="#ebebeb" class="animable" />
			<path d="M155.85 293.64a.28.28 0 01-.24-.14.29.29 0 01.1-.39l13.91-8a.27.27 0 01.38.11.28.28 0 01-.1.39l-13.9 8a.28.28 0 01-.15.03z" style="transform-origin:162.807px 289.356px" id="elxj2z0ixfe7h" fill="#ebebeb" class="animable" />
			<path d="M154.17 292.67a.3.3 0 01-.25-.14.29.29 0 01.11-.39l13.9-8a.28.28 0 01.39.11.28.28 0 01-.1.38l-13.91 8a.23.23 0 01-.14.04z" style="transform-origin:161.121px 288.386px" id="elrohtuahzqw" fill="#ebebeb" class="animable" />
			<path d="M152.49 291.7a.29.29 0 01-.25-.14.29.29 0 01.1-.39l13.91-8a.29.29 0 01.39.1.28.28 0 01-.11.39l-13.9 8a.27.27 0 01-.14.04z" style="transform-origin:159.441px 287.416px" id="el3ntnj0y0qdi" fill="#ebebeb" class="animable" />
			<path d="M150.8 290.73a.28.28 0 01-.24-.15.28.28 0 01.1-.39l13.9-8a.28.28 0 01.29.49l-13.91 8a.33.33 0 01-.14.05z" style="transform-origin:157.754px 286.44px" id="elzrmkdwet1v" fill="#ebebeb" class="animable" />
			<path d="M149.12 289.75a.28.28 0 01-.14-.53l13.9-8a.29.29 0 01.39.11.29.29 0 01-.11.39l-13.9 8a.32.32 0 01-.14.03z" style="transform-origin:156.065px 285.468px" id="ellidtu4atyh" fill="#ebebeb" class="animable" />
			<path d="M147.43 288.78a.28.28 0 01-.24-.14.29.29 0 01.1-.39l13.91-8a.27.27 0 01.38.11.28.28 0 01-.1.39l-13.9 8a.28.28 0 01-.15.03z" style="transform-origin:154.387px 284.496px" id="elwy5tyfy8n8h" fill="#ebebeb" class="animable" />
			<path d="M145.75 287.81a.3.3 0 01-.25-.14.29.29 0 01.11-.39l13.9-8a.28.28 0 01.29.49l-13.91 8a.23.23 0 01-.14.04z" style="transform-origin:152.702px 283.525px" id="elcuqi0zbc18" fill="#ebebeb" class="animable" />
			<path d="M144.07 286.84a.29.29 0 01-.15-.53l13.91-8a.29.29 0 01.39.1.28.28 0 01-.11.39l-13.9 8a.43.43 0 01-.14.04z" style="transform-origin:151.026px 282.556px" id="elvs1gqmx5q1" fill="#ebebeb" class="animable" />
			<path d="M142.38 285.86a.27.27 0 01-.24-.14.28.28 0 01.1-.39l13.9-8a.28.28 0 01.39.1.29.29 0 01-.1.39l-13.91 8a.32.32 0 01-.14.04z" style="transform-origin:149.333px 281.574px" id="elwl1iqpjp6t9" fill="#ebebeb" class="animable" />
			<path d="M140.7 284.89a.28.28 0 01-.14-.53l13.9-8a.29.29 0 11.28.5l-13.9 8a.23.23 0 01-.14.03z" style="transform-origin:147.667px 280.595px" id="elpz8l0htlozf" fill="#ebebeb" class="animable" />
			<path d="M139 283.92a.28.28 0 01-.24-.14.29.29 0 01.1-.39l13.91-8a.29.29 0 01.39.11.28.28 0 01-.11.38l-13.9 8a.28.28 0 01-.15.04z" style="transform-origin:145.958px 279.637px" id="elyzsdssbgmee" fill="#ebebeb" class="animable" />
			<path d="M137.33 283a.3.3 0 01-.25-.14.29.29 0 01.11-.39l13.9-8a.28.28 0 11.29.49l-13.91 8a.23.23 0 01-.14.04z" style="transform-origin:144.282px 278.715px" id="ellb5y5m24o6o" fill="#ebebeb" class="animable" />
			<path d="M159.25 295.59a.27.27 0 01-.25-.15.27.27 0 01.11-.38l14.7-8.51a.28.28 0 01.29.49l-14.71 8.51a.33.33 0 01-.14.04z" style="transform-origin:166.6px 291.051px" id="eld3s46l21q7c" fill="#0092df" class="animable" />
			<g style="transform-origin:157.523px 285.075px" id="el980vto0kk2" class="animable" opacity=".25">
				<path d="M166.6 285a1.21 1.21 0 00-.57-.37 2.34 2.34 0 01-.27-.14c-.13-.2-.3-.54-.08-.58s.4.12.54.16.07-.1 0-.12c-.25-.1-.72-.4-.82 0a.62.62 0 00.05.39.8.8 0 00-.36-.07c-.12 0-.22 0-.26.15a.27.27 0 000 .16.13.13 0 00.11.12h-.13c-.17 0-.65-.12-.77.1s.06.21.05.25-.35.13-.41.17 0 .11 0 .12a4.32 4.32 0 01-.51 0c-.28 0-1-.08-.88.35l.06.11a.54.54 0 000 .11l-.07.05c-.07.05-.12 0-.15.07s.07.22-.09.33-.72-.15-1 0 .07.56-.3.57c-.08 0 0 .12 0 .13.34 0 .3 0 .37-.32.11-.46.8-.14 1.18-.25.05 0 .05-.07 0-.1s0-.26.17-.33a.07.07 0 000-.1c0-.07-.19-.3-.1-.41a1.7 1.7 0 01.41 0h.9a.06.06 0 00.06-.08c0-.1.34-.16.43-.18a.06.06 0 000-.08c-.19-.46.5-.29.78-.25.06 0 .1 0 .08-.08s-.39-.32 0-.37a.68.68 0 01.31.07 2.16 2.16 0 00.71.73c.49.12.77.02.56-.31zm-.13.08c.09.12-.18 0-.21 0a1 1 0 01-.36-.38l.21.11a.86.86 0 01.36.29z" style="transform-origin:163.687px 285.404px" id="ela0muf63odho" fill="#455a64" class="animable" />
				<path d="M159.64 288c0-.2 0-.42.13-.45s0-.13 0-.13c-.25 0-.33.21-.29.47a2 2 0 00-.32-.11c-.16 0-.27 0-.32.13s0 .17 0 .26.12.08-.07.13a.91.91 0 01-.23 0 .35.35 0 00-.34.11c-.13.1.18.15-.18.09-.1 0-.19-.06-.29 0s-.2.06-.18.21.15.16.15.2c0 .32-.34.05-.47 0s-.09 0-.09.05.11.21-.12.23c0 0-.19-.09-.24-.09s-.28.19-.47.18-.07 0-.06.08.13.23-.16.36h-.33c-.09 0 0 .13 0 .14s.58.2.72 0-.1-.29 0-.37.26-.08.29-.09a.51.51 0 01.22-.06s.08.06.12.06h.17c.06 0 .06-.1.08-.11s-.07-.07 0-.11.14.05.21.07.27.12.36 0-.1-.26-.08-.36.38-.06.52-.16 0 0 0-.07c-.09-.31.48-.06.66-.1a.07.07 0 00.07-.06l-.08-.2c0-.19.31-.17.43-.14.11.39.42.77.75.67a.07.07 0 000-.06c.05-.38-.2-.64-.56-.77zm.12.31v-.09c.11.08.22.18.23.23s-.19-.13-.23-.19z" style="transform-origin:157.963px 288.686px" id="elofifqp0pqq" fill="#455a64" class="animable" />
				<path d="M164.7 290a1.27 1.27 0 00-.57-.36l-.28-.14c-.12-.21-.29-.55-.07-.59a1.85 1.85 0 01.54.16c.08 0 .07-.09 0-.12-.25-.09-.72-.4-.83 0a.71.71 0 00.06.39.8.8 0 00-.36-.07c-.12 0-.22 0-.26.15s0 .11 0 .17.1.11.12.12h-.13c-.18 0-.66-.13-.77.09s.06.22.05.25-.35.13-.41.17 0 .11 0 .12a4.32 4.32 0 01-.51 0c-.28 0-1-.08-.88.35 0 .05 0 0 .06.11s0 .1 0 .11 0 0-.07.06-.12 0-.15.06.07.23-.1.33-.71-.15-.95 0 .07.56-.3.57c-.09 0 0 .12 0 .13.35 0 .31 0 .38-.32.11-.46.8-.14 1.18-.25v-.1c0-.03 0-.25.17-.33a.07.07 0 000-.1c0-.07-.19-.3-.1-.41s.36 0 .41-.05h.9a.07.07 0 00.06-.09c-.05-.09.34-.16.43-.18s.05-.05 0-.08c-.19-.46.5-.29.78-.24a.07.07 0 00.08-.09c0-.16-.39-.31 0-.37a.68.68 0 01.31.07 2.2 2.2 0 00.71.74c.43.15.7.05.5-.26zm-.13.08c.09.12-.18 0-.21 0a.94.94 0 01-.36-.38l.21.11a.86.86 0 01.36.27z" style="transform-origin:161.809px 290.405px" id="el7czuq55f6le" fill="#455a64" class="animable" />
				<path d="M169 286.47c-.05-.2-.06-.42.13-.45s0-.13 0-.13c-.25 0-.33.21-.3.47a1.67 1.67 0 00-.31-.11c-.16 0-.27 0-.32.13s0 .17 0 .26.12.08-.08.13a1 1 0 01-.23 0 .36.36 0 00-.34.11c-.12.1.19.15-.18.09a.86.86 0 00-.28 0c-.13 0-.21.07-.18.22s.15.16.15.2c0 .32-.35.05-.48 0s-.08 0-.08.05.1.21-.12.23c0 0-.19-.09-.24-.09s-.28.19-.48.18c0 0-.07 0 0 .08s.13.23-.16.36h-.34c-.08 0 0 .13 0 .14s.58.2.71 0-.09-.29 0-.37.25-.08.28-.09a.6.6 0 01.23-.06s.07.06.11.06h.17c.05 0 .06-.1.09-.11s-.07-.08 0-.11.14.05.2.07.28.12.37 0-.1-.26-.08-.36.37-.06.52-.16a.06.06 0 000-.07c-.09-.31.48-.06.66-.1s.07 0 .06-.06a1.5 1.5 0 00-.07-.2c.05-.19.31-.17.42-.14.12.39.42.77.76.67a.07.07 0 000-.06c-.02-.34-.31-.6-.59-.78zm.12.31a.39.39 0 010-.09.81.81 0 01.23.23c-.01.19-.23-.08-.26-.14z" style="transform-origin:167.361px 287.161px" id="elcn62hdt5s9" fill="#455a64" class="animable" />
				<path d="M156.33 279.34a1.27 1.27 0 00-.57-.36l-.27-.14c-.13-.21-.3-.54-.08-.59a1.85 1.85 0 01.54.16c.08 0 .07-.09 0-.12-.25-.09-.72-.4-.82 0a.61.61 0 00.05.39.8.8 0 00-.36-.07c-.12 0-.22 0-.26.15s0 .11 0 .17.1.11.12.12h-.13c-.18 0-.65-.13-.77.09s.06.22 0 .25-.35.13-.41.17 0 .11 0 .12a4.32 4.32 0 01-.51 0c-.28 0-1-.08-.88.35 0 0 .05 0 .06.12s0 .09 0 .1 0 0-.07.06-.12 0-.15.06.07.23-.1.33-.71-.15-.95 0 .07.56-.3.57c-.09 0 0 .12 0 .13.35 0 .31 0 .38-.32.11-.46.8-.14 1.18-.25v-.1c0-.03 0-.25.17-.32a.07.07 0 000-.1c0-.08-.19-.31-.1-.42s.36 0 .41-.05h.9a.07.07 0 00.06-.09c0-.09.34-.16.43-.18s0-.05 0-.08c-.19-.46.5-.29.78-.24a.07.07 0 00.08-.09c0-.16-.39-.31 0-.37a.68.68 0 01.31.07 2.2 2.2 0 00.71.74c.48.15.76.06.55-.26zm-.13.08c.09.12-.18 0-.21 0a.94.94 0 01-.36-.38l.21.11a.86.86 0 01.36.27z" style="transform-origin:153.415px 279.745px" id="elk3ot0infip" fill="#455a64" class="animable" />
				<path d="M149.37 282.27c-.05-.2-.05-.42.13-.45s0-.13 0-.13c-.25 0-.33.21-.3.47a1.11 1.11 0 00-.31-.1c-.16 0-.27 0-.32.13s.05.16 0 .25.12.08-.07.13a1.79 1.79 0 01-.23 0c-.2 0-.22 0-.34.1s.18.16-.18.1a.73.73 0 00-.29 0c-.13 0-.2.07-.18.21s.15.16.15.2c0 .32-.34.05-.48 0s-.08 0-.08.05.11.22-.12.23c0 0-.19-.09-.24-.09s-.28.19-.47.18a.05.05 0 00-.06.08c.05.15.13.24-.16.36h-.33c-.09 0 0 .13 0 .14s.58.2.72 0-.1-.29-.05-.37.25-.08.29-.09a.71.71 0 01.22-.06s.08.06.12.06h.16c.05 0 .07-.09.09-.11s-.07-.07 0-.11.14.05.21.07.27.12.36 0-.1-.25-.08-.36.37-.05.52-.15a.05.05 0 000-.07c-.09-.32.48-.07.66-.1s.07 0 .06-.07a1.5 1.5 0 00-.07-.2c.05-.19.31-.17.43-.13.11.38.42.77.75.66a.07.07 0 000-.06c.12-.33-.2-.59-.51-.77zm.12.32v-.1a1 1 0 01.23.23c.03.19-.2-.08-.23-.13z" style="transform-origin:147.678px 282.956px" id="ell0skofogwwj" fill="#455a64" class="animable" />
				<path d="M154.43 284.32a1.27 1.27 0 00-.57-.36l-.28-.14c-.13-.21-.29-.54-.07-.58s.4.11.54.15.06-.09 0-.11c-.25-.1-.72-.41-.83 0a.69.69 0 00.06.39.8.8 0 00-.36-.07c-.12 0-.22 0-.26.15s0 .11 0 .17.1.11.12.12h-.13c-.18 0-.66-.12-.77.09s.06.22 0 .25-.35.13-.41.17 0 .11 0 .12a2.77 2.77 0 01-.5 0c-.28 0-1-.08-.88.35 0 .05.05 0 .06.12a.16.16 0 000 .1l-.07.06c-.07.06-.12 0-.15.07s.07.22-.1.32-.71-.15-.95 0 .07.56-.3.56c-.09 0 0 .13 0 .13.35 0 .31 0 .38-.32.11-.46.79-.14 1.18-.25.05 0 .05-.06 0-.1s0-.25.17-.32a.07.07 0 000-.1c0-.08-.19-.31-.1-.42a2.48 2.48 0 01.41 0 6.76 6.76 0 01.9 0 .07.07 0 00.06-.09c-.05-.09.34-.15.43-.17a.07.07 0 000-.08c-.19-.47.49-.3.78-.25a.07.07 0 00.08-.09c-.05-.15-.39-.31 0-.37a.71.71 0 01.31.08 2.26 2.26 0 00.71.73c.47.1.74.01.54-.31zm-.13.09c.09.11-.18 0-.22 0a1 1 0 01-.35-.38l.21.11a.8.8 0 01.36.27z" style="transform-origin:151.518px 284.727px" id="elx8cmj7dg8ga" fill="#455a64" class="animable" />
				<path d="M158.7 280.79c0-.2-.06-.42.13-.45s0-.13 0-.13c-.25 0-.33.21-.3.47a1.11 1.11 0 00-.31-.1c-.16 0-.27 0-.32.13s0 .16 0 .25.12.08-.08.13a2 2 0 01-.23 0c-.2 0-.22 0-.34.1s.19.16-.18.1a.66.66 0 00-.28 0c-.14 0-.21.07-.18.21s.15.16.15.2c0 .32-.35.05-.48 0s-.08 0-.08.05.1.22-.13.23a1.85 1.85 0 00-.23-.09c-.15 0-.29.19-.48.18s-.07 0-.05.08.13.24-.16.36h-.34c-.08 0 0 .13 0 .14s.58.2.71 0-.09-.29-.05-.37.26-.08.29-.09a.86.86 0 01.23-.06s.07.06.11.06h.17c.05 0 .06-.09.08-.11s-.06-.07 0-.11.13.05.2.07.28.12.37 0-.1-.26-.08-.36.37-.05.52-.15a.07.07 0 000-.07c-.09-.32.48-.07.66-.11 0 0 .07 0 .06-.06a1.5 1.5 0 00-.07-.2c0-.19.3-.17.42-.13.12.38.42.77.75.66a.06.06 0 00.05-.06c.07-.33-.23-.56-.53-.77zm.12.31a.26.26 0 010-.09 1 1 0 01.23.23c.02.19-.2-.08-.23-.14z" style="transform-origin:157.007px 281.476px" id="el9d1yxg5f61e" fill="#455a64" class="animable" />
				<path d="M155.48 287.75a1.21 1.21 0 00-.57-.36l-.27-.14c-.13-.21-.3-.54-.07-.59a2 2 0 01.54.16c.08 0 .06-.09 0-.11-.24-.1-.72-.41-.82 0a.62.62 0 00.06.39.84.84 0 00-.35-.1c-.12 0-.21 0-.26.15s0 .11 0 .17.09.11.12.12h-.14c-.17 0-.65-.13-.76.09s.06.22 0 .25-.35.13-.41.17 0 .11 0 .12a4.31 4.31 0 01-.51 0c-.27 0-1-.08-.87.35 0 .05 0 0 .05.12v.1l-.06.06c-.06.06-.12 0-.16.06s.07.23-.09.33-.72-.15-.95 0 .06.57-.31.57c-.08 0 0 .13 0 .13.34 0 .31 0 .37-.32.11-.46.8-.14 1.19-.25a.07.07 0 000-.1c-.11-.16 0-.25.17-.32a.06.06 0 000-.1c0-.08-.18-.31-.09-.42s.36 0 .41-.05a9 9 0 01.9 0 .06.06 0 00.05-.09c0-.09.35-.15.43-.17a.07.07 0 000-.09c-.18-.46.5-.29.78-.24a.07.07 0 00.08-.09c0-.16-.38-.31 0-.37a.62.62 0 01.32.08 2.16 2.16 0 00.71.73c.45.17.72.08.51-.24zm-.12.08c.08.12-.19 0-.22 0a1 1 0 01-.36-.38 1.48 1.48 0 00.22.11.93.93 0 01.36.27z" style="transform-origin:152.583px 288.147px" id="eliyvnm5nw37i" fill="#455a64" class="animable" />
				<path d="M158.87 284.53c-.05-.2-.06-.42.13-.44s0-.14 0-.14c-.26 0-.33.21-.3.47a1.36 1.36 0 00-.31-.1c-.17 0-.27 0-.33.13s0 .16 0 .25.13.08-.07.13-.17 0-.23 0-.22 0-.34.1.18.16-.18.1a.68.68 0 00-.28 0c-.14 0-.21.07-.19.22s.16.15.16.19c0 .32-.35.05-.48 0s-.08 0-.08.05.1.22-.13.23c0 0-.18-.09-.23-.09s-.29.2-.48.18-.07 0-.06.09.14.23-.15.35h-.35v.14s.59.2.72 0-.1-.28 0-.37.26-.08.29-.09a1.28 1.28 0 01.23-.06s.07.07.11.06.12 0 .17 0 .06-.09.08-.11-.06-.07 0-.1.13 0 .2.07.27.11.37 0-.1-.25-.08-.36.37 0 .52-.15a.07.07 0 000-.07c-.09-.32.48-.07.66-.1a.07.07 0 00.06-.07l-.07-.2c0-.19.3-.16.42-.13.12.38.42.77.75.66 0 0 .05 0 0 0 .07-.37-.22-.66-.53-.84zm.12.32l-.05-.09a.76.76 0 01.24.23c.06.19-.18-.09-.18-.14z" style="transform-origin:157.196px 285.214px" id="elklxi635nd7" fill="#455a64" class="animable" />
				<path d="M162.74 281.92a.09.09 0 000-.07c-.05-.2-.28-.05-.32.07s.05.16 0 .25.13.08-.07.13a2 2 0 01-.23 0c-.2 0-.22 0-.34.1s.18.16-.18.1a.68.68 0 00-.28 0c-.14 0-.21.07-.19.21s.16.16.16.2c0 .32-.35 0-.48 0h-.08s.1.22-.13.23c0 0-.18-.09-.23-.09s-.29.19-.48.18-.07 0-.06.08.14.24-.16.36h-.34c-.07 0 0 .13 0 .14s.59.2.72 0-.1-.29 0-.37.26-.08.29-.09a.77.77 0 01.23-.06s.07.06.11.06h.17c.05 0 .06-.09.08-.11s-.06-.07 0-.11.13 0 .2.07.27.12.37 0-.1-.25-.08-.36.37-.05.52-.15a.1.1 0 000-.07c-.09-.32.48-.07.66-.1a.07.07 0 00.06-.07.94.94 0 010-.41.29.29 0 00.08-.12z" style="transform-origin:161.023px 282.827px" id="elqluuginswvc" fill="#455a64" class="animable" />
			</g>
		</g>
		<g id="freepik--green-pencil--inject-1--inject-119" class="animable" style="transform-origin:182.938px 296.517px">
			<path style="transform-origin:182.93px 297.175px" id="freepik--shadow--inject-1--inject-119" fill="#455a64" d="M171.33 302.51l2.38 1.37 18.75-10.97 2.07-2.44-4.32 1.14-18.88 10.9z" class="animable" opacity=".1" />
			<path d="M190.39 289.94l4-.78a.12.12 0 01.12.2l-2.71 3.07z" style="transform-origin:192.468px 290.792px" id="eluhsxvu7z9e" fill="#ffa8a7" class="animable" />
			<path d="M194.5 289.36a.12.12 0 00-.12-.2l-.78.15a.69.69 0 01.32.64v.05z" style="transform-origin:194.068px 289.577px" id="eluc1pm6nk37" fill="#263238" class="animable" />
			<path d="M176.89 301l.33-.19.39-.22 14.18-8.13a2.09 2.09 0 00-1.4-2.49l-14.17 8.13-.75.43c.53-.28 1.92 2.18 1.42 2.47z" style="transform-origin:183.66px 295.485px" id="el4r702r01bt5" fill="#0092df" class="animable" />
			<path d="M178.14 300.26l.73-.42c.21-.11.09-.64-.16-1.19-.33-.73-1-1.43-1.28-1.28l-.53.31-.19.11c.28-.15.94.56 1.27 1.28.24.53.36 1 .18 1.18z" style="transform-origin:177.844px 298.805px" id="eln0y8ro39x2" fill="#ebebeb" class="animable" />
			<path d="M178.32 300.16c.5-.27-.93-2.74-1.43-2.47l-.73.41c.5-.26 1.93 2.21 1.43 2.47z" style="transform-origin:177.292px 299.12px" id="elj61fgia6iu" fill="#0092df" class="animable" />
			<path d="M176.89 301l.72-.41c.5-.26-.86-2.65-1.39-2.49l-.72.42c.5-.27 1.89 2.19 1.39 2.48z" style="transform-origin:176.609px 299.546px" id="elgtvhwa66vqv" fill="#ebebeb" class="animable" />
			<path d="M194.52 289.23l-.14-.07-2.9 1.58-15 8.6h-.07c.42.67.74 1.51.46 1.65l.33-.19.39-.22 14.18-8.13 2.71-3.07a.15.15 0 00.04-.15z" style="transform-origin:185.468px 295.075px" id="el95kpp5rrvnt" class="animable" opacity=".15" />
			<path d="M173.83 302.72l3.06-1.75c.22-.11.1-.63-.15-1.18-.33-.73-1-1.44-1.27-1.29l-3.08 1.76c-.61.35 0 1.68.64 2.27a.72.72 0 00.8.19z" style="transform-origin:174.572px 300.625px" id="ell187l7nwnh7" fill="#f28f8f" class="animable" />
			<path d="M174 301.77a2.2 2.2 0 00-1.24-1.51.54.54 0 00-.46.06c-.46.43.07 1.65.72 2.21a.74.74 0 00.79.2c.24-.14.32-.49.19-.96z" style="transform-origin:173.094px 301.502px" id="elicf3mdwsbcm" class="animable" opacity=".1" />
		</g>
		<g id="freepik--Papers--inject-1--inject-119" class="animable" style="transform-origin:217.53px 312.131px">
			<path d="M223.19 330.64a2.4 2.4 0 001.2-.3l20-11.55a1.09 1.09 0 00.61-.92 1.07 1.07 0 00-.61-.91l-3.57-2.07 1.71-1a1 1 0 000-1.84l-29.46-17a2.4 2.4 0 00-1.2-.3 2.45 2.45 0 00-1.2.3l-20 11.55a1.09 1.09 0 00-.61.92 1.07 1.07 0 00.61.91l3.57 2.07-1.71 1a1.07 1.07 0 00-.61.91 1.09 1.09 0 00.61.92l29.45 17a2.45 2.45 0 001.21.31z" style="transform-origin:217.53px 312.695px" id="freepik--shadow--inject-1--inject-119" fill="#455a64" class="animable" opacity=".1" />
			<path d="M192.32 310.87a.69.69 0 01.41-.58l20-11.56a2.22 2.22 0 012 0l29.46 17a.71.71 0 01.41.58v.91a.71.71 0 01-.41.58l-20 11.56a2.22 2.22 0 01-2 0l-29.46-17a.71.71 0 01-.41-.57z" style="transform-origin:218.46px 314.045px" id="elxcfchraw8l" fill="#ebebeb" class="animable" />
			<path d="M244.22 315.74l-29.46-17a2.22 2.22 0 00-2 0l-20 11.56a.61.61 0 000 1.16l29.46 17a2.22 2.22 0 002 0l20-11.56a.61.61 0 000-1.16z" style="transform-origin:218.49px 313.6px" id="eluy5pqk2oupj" fill="#fff" class="animable" />
			<path d="M223.2 328.7v.9a2 2 0 001-.24l20-11.55a.71.71 0 00.42-.58v-.91a.69.69 0 01-.42.58l-20 11.56a2.05 2.05 0 01-1 .24z" style="transform-origin:233.91px 322.96px" id="elksf0b5391do" fill="#e0e0e0" class="animable" />
			<path d="M190.46 306a.69.69 0 01.41-.58l20-11.56a2.22 2.22 0 012 0l29.46 17a.71.71 0 01.41.58v.91a.71.71 0 01-.41.58l-20 11.55a2.22 2.22 0 01-2 0l-29.46-17a.71.71 0 01-.41-.57z" style="transform-origin:216.6px 309.17px" id="elr9d0smpzwy" fill="#ebebeb" class="animable" />
			<path d="M242.36 310.86l-29.46-17a2.22 2.22 0 00-2 0l-20 11.56a.61.61 0 000 1.16l29.46 17a2.22 2.22 0 002 0l20-11.56a.61.61 0 000-1.16z" style="transform-origin:216.63px 308.72px" id="elogtipwjtl0o" fill="#fff" class="animable" />
			<path d="M221.34 323.82v.9a2 2 0 001-.24l20-11.55a.71.71 0 00.42-.58v-.91a.71.71 0 01-.42.58l-20 11.56a2.05 2.05 0 01-1 .24z" style="transform-origin:232.05px 318.08px" id="el3hi353s7tl" fill="#e0e0e0" class="animable" />
		</g>
		<g id="freepik--Folder--inject-1--inject-119" class="animable" style="transform-origin:265.032px 286.714px">
			<g style="transform-origin:265.253px 287.2px" id="el4bsag8e9q97" class="animable" opacity=".1">
				<path d="M269.3 305.55a2.19 2.19 0 01-1.1-.28l-30.8-17.78a1.19 1.19 0 01-.05-2.14l25.44-16.18a2.28 2.28 0 011.21-.32 2.21 2.21 0 011.1.27l9.16 5.3a1.67 1.67 0 01.65 2.2l-.37.72a.32.32 0 00.12.4l18.46 10.74a1.21 1.21 0 01.05 2.15l-22.66 14.59a2.31 2.31 0 01-1.21.33z" style="transform-origin:265.253px 287.2px" id="eltc3kwc2k2fa" fill="#455a64" class="animable" />
			</g>
			<path d="M269.75 303.72l23.07-13.36a.5.5 0 000-.95l-31.64-18a1.81 1.81 0 00-1.65 0l-22.86 13.2a.5.5 0 000 .95l31.43 18.15a1.84 1.84 0 001.65.01z" style="transform-origin:264.745px 287.561px" id="el6nooj47jcgp" fill="#0092df" class="animable" />
			<g style="transform-origin:264.745px 287.561px" id="el6eacs69kdjg" class="animable" opacity=".2">
				<path d="M269.75 303.72l23.07-13.36a.5.5 0 000-.95l-31.64-18a1.81 1.81 0 00-1.65 0l-22.86 13.2a.5.5 0 000 .95l31.43 18.15a1.84 1.84 0 001.65.01z" style="transform-origin:264.745px 287.561px" id="elyv0xhyn2g8m" fill="#455a64" class="animable" />
			</g>
			<path d="M236.65 284.58l26-16.5a1.74 1.74 0 011.63 0l9.35 5.4a1 1 0 01.39 1.32l-.38.75a1 1 0 00.39 1.32l18.84 11a.53.53 0 010 1l-23.13 14.89a1.72 1.72 0 01-1.62 0l-31.43-18.15a.53.53 0 01-.04-1.03z" style="transform-origin:264.744px 285.92px" id="elgl74vmnvb8a" fill="#0092df" class="animable" />
		</g>
		<g id="freepik--black-pencil--inject-1--inject-119" class="animable" style="transform-origin:322.219px 278.245px">
			<path style="transform-origin:321.185px 279.46px" id="freepik--shadow--inject-1--inject-119" fill="#455a64" d="M329.97 273.07l-19.81 11.41 2.38 1.37 19.67-11.49" class="animable" opacity=".1" />
			<g id="freepik--Pencil--inject-1--inject-119" class="animable" style="transform-origin:322.809px 277.902px">
				<path d="M331.9 273.63l2.35-2.8a.11.11 0 00-.11-.18l-3.59.79z" style="transform-origin:332.414px 272.138px" id="el6fmnx0bd3kr" fill="#f28f8f" class="animable" />
				<path d="M334.16 270.65l-3.59.79.71 1.16.39-.24 2.51-1.59z" style="transform-origin:332.375px 271.625px" id="eleuele74qkug" fill="#ffa8a7" class="animable" />
				<path d="M334.14 270.65a.11.11 0 01.11.18l-.46.54a.62.62 0 00-.36-.53h-.05z" style="transform-origin:333.829px 271.008px" id="elm06wc5wx45t" fill="#263238" class="animable" />
				<path d="M314.29 281.25l.29-.17.35-.21 15.62-9.43a1.62 1.62 0 011 .66 1.68 1.68 0 01.36 1.52l-15.62 9.43-.67.4c.38-.28-.91-2.45-1.33-2.2z" style="transform-origin:323.126px 277.445px" id="eln2rx8d4qxzl" fill="#37474f" class="animable" />
				<path d="M314.29 281.25l.29-.17.35-.21 15.62-9.43a1.74 1.74 0 011.14.89l-16.3 9.95v.06c-.39-.62-.87-1.24-1.1-1.09z" style="transform-origin:322.99px 276.89px" id="el6ucf3gtsrmf" fill="#455a64" class="animable" />
				<path d="M315.39 280.58l.65-.39c.18-.12.54.21.86.65s.7 1.4.45 1.56l-.47.29-.18.1c.25-.16 0-1-.45-1.56-.3-.42-.65-.74-.84-.66z" style="transform-origin:316.41px 281.478px" id="el6huukx0ayim" fill="#ebebeb" class="animable" />
				<path d="M315.55 280.49c.43-.28 1.74 1.92 1.32 2.2l-.65.39c.43-.27-.89-2.48-1.32-2.2z" style="transform-origin:315.926px 281.773px" id="elc8max8y0s94" fill="#37474f" class="animable" />
				<path d="M314.29 281.25l.64-.38c.41-.28 1.7 1.84 1.35 2.18l-.65.38c.37-.26-.92-2.43-1.34-2.18z" style="transform-origin:315.315px 282.137px" id="elvmj04zt4h0o" fill="#ebebeb" class="animable" />
				<path d="M334.26 270.69a.11.11 0 00-.09-.05.11.11 0 01.09.05z" style="transform-origin:334.215px 270.665px" id="ela4khp8nfruf" fill="#ffa8a7" class="animable" />
				<path d="M311.57 282.9l2.72-1.65c.18-.12.54.21.86.64.43.58.7 1.4.46 1.56l-2.73 1.65c-.54.33-1.33-.69-1.5-1.48a.65.65 0 01.19-.72z" style="transform-origin:313.52px 283.194px" id="elc5v4u6jnzrj" fill="#f28f8f" class="animable" />
				<path d="M312.4 283.17a2 2 0 01.64 1.64.46.46 0 01-.24.33c-.54.18-1.26-.77-1.42-1.52a.65.65 0 01.18-.71c.21-.12.52-.04.84.26z" style="transform-origin:312.194px 284.009px" id="elkma7xe1tm8" class="animable" opacity=".1" />
			</g>
		</g>
	</g>
	<defs>
		<filter id="active" height="200%">
			<feMorphology in="SourceAlpha" operator="dilate" radius="2" result="DILATED" />
			<feFlood flood-color="#32DFEC" flood-opacity="1" result="PINK" />
			<feComposite in="PINK" in2="DILATED" operator="in" result="OUTLINE" />
			<feMerge>
				<feMergeNode in="OUTLINE" />
				<feMergeNode in="SourceGraphic" />
			</feMerge>
		</filter>
		<filter id="hover" height="200%">
			<feMorphology in="SourceAlpha" operator="dilate" radius="2" result="DILATED" />
			<feFlood flood-color="red" flood-opacity=".5" result="PINK" />
			<feComposite in="PINK" in2="DILATED" operator="in" result="OUTLINE" />
			<feMerge>
				<feMergeNode in="OUTLINE" />
				<feMergeNode in="SourceGraphic" />
			</feMerge>
			<feColorMatrix values="0 0 0 0 0 0 1 0 0 0 0 0 0 0 0 0 0 0 1 0" />
		</filter>
	</defs>
</svg>
